<?xml version="1.0" encoding="UTF-8" standalone="no"?><svg xmlns="http://www.w3.org/2000/svg" xmlns:xlink="http://www.w3.org/1999/xlink" clip-rule="evenodd" stroke-miterlimit="10" viewBox="0 0 1920 1080"><desc>SVG generated by Keynote</desc><defs></defs><g transform="matrix(1.00, 0.00, -0.00, -1.00, 0.0, 1080.0)"><g><clipPath id="clip0x6180008af300"><path d="M 0.0 1080.0 L 1920.0 1080.0 L 1920.0 0.0 L 0.0 0.0 Z M 0.0 1080.0 "></path></clipPath><g clip-path="url(#clip0x6180008af300)"><image xlink:href="../../276D3E42-5856-41CB-AB16-D06F20EE5A03/assets/2AC6053FA3DEC5D45F9110F07B4C05D7.png" width="3840.00" height="2160.00" transform="matrix(0.50, 0.00, -0.00, -0.50, 0.0, 1080.0)"></image></g></g><text xml:space="preserve" font-family="Avenir-Book,Avenir" font-size="72.0" fill="#000000" transform="matrix(1.00, 0.00, -0.00, -1.00, 178.2, 785.7)">T</text><text xml:space="preserve" font-family="Avenir-Book,Avenir" font-size="72.0" fill="#000000" transform="matrix(1.00, 0.00, -0.00, -1.00, 211.6, 785.7)">y</text><text xml:space="preserve" font-family="Avenir-Book,Avenir" font-size="72.0" fill="#000000" transform="matrix(1.00, 0.00, -0.00, -1.00, 246.3, 785.7)">p</text><text xml:space="preserve" font-family="Avenir-Book,Avenir" font-size="72.0" fill="#000000" transform="matrix(1.00, 0.00, -0.00, -1.00, 290.3, 785.7)">e</text><text xml:space="preserve" font-family="Avenir-Book,Avenir" font-size="72.0" fill="#000000" transform="matrix(1.00, 0.00, -0.00, -1.00, 330.3, 785.7)">S</text><text xml:space="preserve" font-family="Avenir-Book,Avenir" font-size="72.0" fill="#000000" transform="matrix(1.00, 0.00, -0.00, -1.00, 370.3, 785.7)">c</text><text xml:space="preserve" font-family="Avenir-Book,Avenir" font-size="72.0" fill="#000000" transform="matrix(1.00, 0.00, -0.00, -1.00, 405.0, 785.7)">r</text><text xml:space="preserve" font-family="Avenir-Book,Avenir" font-size="72.0" fill="#000000" transform="matrix(1.00, 0.00, -0.00, -1.00, 428.9, 785.7)">i</text><text xml:space="preserve" font-family="Avenir-Book,Avenir" font-size="72.0" fill="#000000" transform="matrix(1.00, 0.00, -0.00, -1.00, 446.2, 785.7)">p</text><text xml:space="preserve" font-family="Avenir-Book,Avenir" font-size="72.0" fill="#000000" transform="matrix(1.00, 0.00, -0.00, -1.00, 490.2, 785.7)">t</text><text xml:space="preserve" font-family="Avenir-Book,Avenir" font-size="72.0" fill="#000000" transform="matrix(1.00, 0.00, -0.00, -1.00, 514.1, 785.7)"> </text><text xml:space="preserve" font-family="Avenir-Book,Avenir" font-size="72.0" fill="#000000" transform="matrix(1.00, 0.00, -0.00, -1.00, 534.1, 785.7)">i</text><text xml:space="preserve" font-family="Avenir-Book,Avenir" font-size="72.0" fill="#000000" transform="matrix(1.00, 0.00, -0.00, -1.00, 551.4, 785.7)">s</text><text xml:space="preserve" font-family="Avenir-Book,Avenir" font-size="72.0" fill="#000000" transform="matrix(1.00, 0.00, -0.00, -1.00, 582.1, 785.7)"> </text><text xml:space="preserve" font-family="Avenir-Book,Avenir" font-size="72.0" fill="#000000" transform="matrix(1.00, 0.00, -0.00, -1.00, 602.1, 785.7)">a</text><text xml:space="preserve" font-family="Avenir-Book,Avenir" font-size="72.0" fill="#000000" transform="matrix(1.00, 0.00, -0.00, -1.00, 639.5, 785.7)"> </text><text xml:space="preserve" font-family="Avenir-Book,Avenir" font-size="72.0" fill="#000000" transform="matrix(1.00, 0.00, -0.00, -1.00, 659.5, 785.7)">l</text><text xml:space="preserve" font-family="Avenir-Book,Avenir" font-size="72.0" fill="#000000" transform="matrix(1.00, 0.00, -0.00, -1.00, 676.8, 785.7)">a</text><text xml:space="preserve" font-family="Avenir-Book,Avenir" font-size="72.0" fill="#000000" transform="matrix(1.00, 0.00, -0.00, -1.00, 714.1, 785.7)">n</text><text xml:space="preserve" font-family="Avenir-Book,Avenir" font-size="72.0" fill="#000000" transform="matrix(1.00, 0.00, -0.00, -1.00, 754.2, 785.7)">g</text><text xml:space="preserve" font-family="Avenir-Book,Avenir" font-size="72.0" fill="#000000" transform="matrix(1.00, 0.00, -0.00, -1.00, 798.2, 785.7)">u</text><text xml:space="preserve" font-family="Avenir-Book,Avenir" font-size="72.0" fill="#000000" transform="matrix(1.00, 0.00, -0.00, -1.00, 838.2, 785.7)">a</text><text xml:space="preserve" font-family="Avenir-Book,Avenir" font-size="72.0" fill="#000000" transform="matrix(1.00, 0.00, -0.00, -1.00, 875.6, 785.7)">g</text><text xml:space="preserve" font-family="Avenir-Book,Avenir" font-size="72.0" fill="#000000" transform="matrix(1.00, 0.00, -0.00, -1.00, 919.6, 785.7)">e</text><text xml:space="preserve" font-family="Avenir-Book,Avenir" font-size="72.0" fill="#000000" transform="matrix(1.00, 0.00, -0.00, -1.00, 959.6, 785.7)"> </text><text xml:space="preserve" font-family="Avenir-Book,Avenir" font-size="72.0" fill="#000000" transform="matrix(1.00, 0.00, -0.00, -1.00, 979.6, 785.7)">f</text><text xml:space="preserve" font-family="Avenir-Book,Avenir" font-size="72.0" fill="#000000" transform="matrix(1.00, 0.00, -0.00, -1.00, 1000.9, 785.7)">o</text><text xml:space="preserve" font-family="Avenir-Book,Avenir" font-size="72.0" fill="#000000" transform="matrix(1.00, 0.00, -0.00, -1.00, 1043.6, 785.7)">r</text><text xml:space="preserve" font-family="Avenir-Book,Avenir" font-size="72.0" fill="#000000" transform="matrix(1.00, 0.00, -0.00, -1.00, 1067.5, 785.7)"> </text><text xml:space="preserve" font-family="Avenir-Book,Avenir" font-size="72.0" fill="#000000" transform="matrix(1.00, 0.00, -0.00, -1.00, 1087.5, 785.7)">a</text><text xml:space="preserve" font-family="Avenir-Book,Avenir" font-size="72.0" fill="#000000" transform="matrix(1.00, 0.00, -0.00, -1.00, 1124.9, 785.7)">p</text><text xml:space="preserve" font-family="Avenir-Book,Avenir" font-size="72.0" fill="#000000" transform="matrix(1.00, 0.00, -0.00, -1.00, 1168.9, 785.7)">p</text><text xml:space="preserve" font-family="Avenir-Book,Avenir" font-size="72.0" fill="#000000" transform="matrix(1.00, 0.00, -0.00, -1.00, 1212.9, 785.7)">l</text><text xml:space="preserve" font-family="Avenir-Book,Avenir" font-size="72.0" fill="#000000" transform="matrix(1.00, 0.00, -0.00, -1.00, 1230.2, 785.7)">i</text><text xml:space="preserve" font-family="Avenir-Book,Avenir" font-size="72.0" fill="#000000" transform="matrix(1.00, 0.00, -0.00, -1.00, 1247.4, 785.7)">c</text><text xml:space="preserve" font-family="Avenir-Book,Avenir" font-size="72.0" fill="#000000" transform="matrix(1.00, 0.00, -0.00, -1.00, 1282.1, 785.7)">a</text><text xml:space="preserve" font-family="Avenir-Book,Avenir" font-size="72.0" fill="#000000" transform="matrix(1.00, 0.00, -0.00, -1.00, 1319.5, 785.7)">t</text><text xml:space="preserve" font-family="Avenir-Book,Avenir" font-size="72.0" fill="#000000" transform="matrix(1.00, 0.00, -0.00, -1.00, 1343.4, 785.7)">i</text><text xml:space="preserve" font-family="Avenir-Book,Avenir" font-size="72.0" fill="#000000" transform="matrix(1.00, 0.00, -0.00, -1.00, 1360.7, 785.7)">o</text><text xml:space="preserve" font-family="Avenir-Book,Avenir" font-size="72.0" fill="#000000" transform="matrix(1.00, 0.00, -0.00, -1.00, 1403.4, 785.7)">n</text><text xml:space="preserve" font-family="Avenir-Book,Avenir" font-size="72.0" fill="#000000" transform="matrix(1.00, 0.00, -0.00, -1.00, 1443.4, 785.7)">-</text><text xml:space="preserve" font-family="Avenir-Book,Avenir" font-size="72.0" fill="#000000" transform="matrix(1.00, 0.00, -0.00, -1.00, 1467.4, 785.7)">s</text><text xml:space="preserve" font-family="Avenir-Book,Avenir" font-size="72.0" fill="#000000" transform="matrix(1.00, 0.00, -0.00, -1.00, 1498.1, 785.7)">c</text><text xml:space="preserve" font-family="Avenir-Book,Avenir" font-size="72.0" fill="#000000" transform="matrix(1.00, 0.00, -0.00, -1.00, 1532.8, 785.7)">a</text><text xml:space="preserve" font-family="Avenir-Book,Avenir" font-size="72.0" fill="#000000" transform="matrix(1.00, 0.00, -0.00, -1.00, 1570.1, 785.7)">l</text><text xml:space="preserve" font-family="Avenir-Book,Avenir" font-size="72.0" fill="#000000" transform="matrix(1.00, 0.00, -0.00, -1.00, 1587.4, 785.7)">e</text><text xml:space="preserve" font-family="Avenir-Book,Avenir" font-size="72.0" fill="#000000" transform="matrix(1.00, 0.00, -0.00, -1.00, 1627.5, 785.7)"> </text><text xml:space="preserve" font-family="Avenir-Book,Avenir" font-size="72.0" fill="#000000" transform="matrix(1.00, 0.00, -0.00, -1.00, 178.2, 687.7)">J</text><text xml:space="preserve" font-family="Avenir-Book,Avenir" font-size="72.0" fill="#000000" transform="matrix(1.00, 0.00, -0.00, -1.00, 212.9, 687.7)">a</text><text xml:space="preserve" font-family="Avenir-Book,Avenir" font-size="72.0" fill="#000000" transform="matrix(1.00, 0.00, -0.00, -1.00, 250.3, 687.7)">v</text><text xml:space="preserve" font-family="Avenir-Book,Avenir" font-size="72.0" fill="#000000" transform="matrix(1.00, 0.00, -0.00, -1.00, 285.0, 687.7)">a</text><text xml:space="preserve" font-family="Avenir-Book,Avenir" font-size="72.0" fill="#000000" transform="matrix(1.00, 0.00, -0.00, -1.00, 322.4, 687.7)">S</text><text xml:space="preserve" font-family="Avenir-Book,Avenir" font-size="72.0" fill="#000000" transform="matrix(1.00, 0.00, -0.00, -1.00, 362.4, 687.7)">c</text><text xml:space="preserve" font-family="Avenir-Book,Avenir" font-size="72.0" fill="#000000" transform="matrix(1.00, 0.00, -0.00, -1.00, 397.1, 687.7)">r</text><text xml:space="preserve" font-family="Avenir-Book,Avenir" font-size="72.0" fill="#000000" transform="matrix(1.00, 0.00, -0.00, -1.00, 421.0, 687.7)">i</text><text xml:space="preserve" font-family="Avenir-Book,Avenir" font-size="72.0" fill="#000000" transform="matrix(1.00, 0.00, -0.00, -1.00, 438.3, 687.7)">p</text><text xml:space="preserve" font-family="Avenir-Book,Avenir" font-size="72.0" fill="#000000" transform="matrix(1.00, 0.00, -0.00, -1.00, 482.3, 687.7)">t</text><text xml:space="preserve" font-family="Avenir-Book,Avenir" font-size="72.0" fill="#000000" transform="matrix(1.00, 0.00, -0.00, -1.00, 506.2, 687.7)"> </text><text xml:space="preserve" font-family="Avenir-Book,Avenir" font-size="72.0" fill="#000000" transform="matrix(1.00, 0.00, -0.00, -1.00, 526.2, 687.7)">d</text><text xml:space="preserve" font-family="Avenir-Book,Avenir" font-size="72.0" fill="#000000" transform="matrix(1.00, 0.00, -0.00, -1.00, 570.2, 687.7)">e</text><text xml:space="preserve" font-family="Avenir-Book,Avenir" font-size="72.0" fill="#000000" transform="matrix(1.00, 0.00, -0.00, -1.00, 610.2, 687.7)">v</text><text xml:space="preserve" font-family="Avenir-Book,Avenir" font-size="72.0" fill="#000000" transform="matrix(1.00, 0.00, -0.00, -1.00, 644.9, 687.7)">e</text><text xml:space="preserve" font-family="Avenir-Book,Avenir" font-size="72.0" fill="#000000" transform="matrix(1.00, 0.00, -0.00, -1.00, 685.0, 687.7)">l</text><text xml:space="preserve" font-family="Avenir-Book,Avenir" font-size="72.0" fill="#000000" transform="matrix(1.00, 0.00, -0.00, -1.00, 702.3, 687.7)">o</text><text xml:space="preserve" font-family="Avenir-Book,Avenir" font-size="72.0" fill="#000000" transform="matrix(1.00, 0.00, -0.00, -1.00, 745.0, 687.7)">p</text><text xml:space="preserve" font-family="Avenir-Book,Avenir" font-size="72.0" fill="#000000" transform="matrix(1.00, 0.00, -0.00, -1.00, 788.9, 687.7)">m</text><text xml:space="preserve" font-family="Avenir-Book,Avenir" font-size="72.0" fill="#000000" transform="matrix(1.00, 0.00, -0.00, -1.00, 850.3, 687.7)">e</text><text xml:space="preserve" font-family="Avenir-Book,Avenir" font-size="72.0" fill="#000000" transform="matrix(1.00, 0.00, -0.00, -1.00, 890.3, 687.7)">n</text><text xml:space="preserve" font-family="Avenir-Book,Avenir" font-size="72.0" fill="#000000" transform="matrix(1.00, 0.00, -0.00, -1.00, 930.4, 687.7)">t</text><text xml:space="preserve" font-family="Avenir-Book,Avenir" font-size="72.0" fill="#000000" transform="matrix(1.00, 0.00, -0.00, -1.00, 954.3, 687.7)">.</text><text xml:space="preserve" font-family="Avenir-Book,Avenir" font-size="72.0" fill="#000000" transform="matrix(1.00, 0.00, -0.00, -1.00, 974.3, 687.7)"> </text><text xml:space="preserve" font-family="Avenir-Book,Avenir" font-size="72.0" fill="#000000" transform="matrix(1.00, 0.00, -0.00, -1.00, 178.2, 569.7)">T</text><text xml:space="preserve" font-family="Avenir-Book,Avenir" font-size="72.0" fill="#000000" transform="matrix(1.00, 0.00, -0.00, -1.00, 211.6, 569.7)">y</text><text xml:space="preserve" font-family="Avenir-Book,Avenir" font-size="72.0" fill="#000000" transform="matrix(1.00, 0.00, -0.00, -1.00, 246.3, 569.7)">p</text><text xml:space="preserve" font-family="Avenir-Book,Avenir" font-size="72.0" fill="#000000" transform="matrix(1.00, 0.00, -0.00, -1.00, 290.3, 569.7)">e</text><text xml:space="preserve" font-family="Avenir-Book,Avenir" font-size="72.0" fill="#000000" transform="matrix(1.00, 0.00, -0.00, -1.00, 330.3, 569.7)">S</text><text xml:space="preserve" font-family="Avenir-Book,Avenir" font-size="72.0" fill="#000000" transform="matrix(1.00, 0.00, -0.00, -1.00, 370.3, 569.7)">c</text><text xml:space="preserve" font-family="Avenir-Book,Avenir" font-size="72.0" fill="#000000" transform="matrix(1.00, 0.00, -0.00, -1.00, 405.0, 569.7)">r</text><text xml:space="preserve" font-family="Avenir-Book,Avenir" font-size="72.0" fill="#000000" transform="matrix(1.00, 0.00, -0.00, -1.00, 428.9, 569.7)">i</text><text xml:space="preserve" font-family="Avenir-Book,Avenir" font-size="72.0" fill="#000000" transform="matrix(1.00, 0.00, -0.00, -1.00, 446.2, 569.7)">p</text><text xml:space="preserve" font-family="Avenir-Book,Avenir" font-size="72.0" fill="#000000" transform="matrix(1.00, 0.00, -0.00, -1.00, 490.2, 569.7)">t</text><text xml:space="preserve" font-family="Avenir-Book,Avenir" font-size="72.0" fill="#000000" transform="matrix(1.00, 0.00, -0.00, -1.00, 514.1, 569.7)"> </text><text xml:space="preserve" font-family="Avenir-Book,Avenir" font-size="72.0" fill="#000000" transform="matrix(1.00, 0.00, -0.00, -1.00, 534.1, 569.7)">i</text><text xml:space="preserve" font-family="Avenir-Book,Avenir" font-size="72.0" fill="#000000" transform="matrix(1.00, 0.00, -0.00, -1.00, 551.4, 569.7)">s</text><text xml:space="preserve" font-family="Avenir-Book,Avenir" font-size="72.0" fill="#000000" transform="matrix(1.00, 0.00, -0.00, -1.00, 582.1, 569.7)"> </text><text xml:space="preserve" font-family="Avenir-Book,Avenir" font-size="72.0" fill="#000000" transform="matrix(1.00, 0.00, -0.00, -1.00, 602.1, 569.7)">a</text><text xml:space="preserve" font-family="Avenir-Book,Avenir" font-size="72.0" fill="#000000" transform="matrix(1.00, 0.00, -0.00, -1.00, 639.5, 569.7)"> </text><text xml:space="preserve" font-family="Avenir-Book,Avenir" font-size="72.0" fill="#000000" transform="matrix(1.00, 0.00, -0.00, -1.00, 659.5, 569.7)">t</text><text xml:space="preserve" font-family="Avenir-Book,Avenir" font-size="72.0" fill="#000000" transform="matrix(1.00, 0.00, -0.00, -1.00, 683.4, 569.7)">y</text><text xml:space="preserve" font-family="Avenir-Book,Avenir" font-size="72.0" fill="#000000" transform="matrix(1.00, 0.00, -0.00, -1.00, 718.1, 569.7)">p</text><text xml:space="preserve" font-family="Avenir-Book,Avenir" font-size="72.0" fill="#000000" transform="matrix(1.00, 0.00, -0.00, -1.00, 762.1, 569.7)">e</text><text xml:space="preserve" font-family="Avenir-Book,Avenir" font-size="72.0" fill="#000000" transform="matrix(1.00, 0.00, -0.00, -1.00, 802.1, 569.7)">d</text><text xml:space="preserve" font-family="Avenir-Book,Avenir" font-size="72.0" fill="#000000" transform="matrix(1.00, 0.00, -0.00, -1.00, 846.1, 569.7)"> </text><text xml:space="preserve" font-family="Avenir-Book,Avenir" font-size="72.0" fill="#000000" transform="matrix(1.00, 0.00, -0.00, -1.00, 866.1, 569.7)">s</text><text xml:space="preserve" font-family="Avenir-Book,Avenir" font-size="72.0" fill="#000000" transform="matrix(1.00, 0.00, -0.00, -1.00, 896.8, 569.7)">u</text><text xml:space="preserve" font-family="Avenir-Book,Avenir" font-size="72.0" fill="#000000" transform="matrix(1.00, 0.00, -0.00, -1.00, 936.8, 569.7)">p</text><text xml:space="preserve" font-family="Avenir-Book,Avenir" font-size="72.0" fill="#000000" transform="matrix(1.00, 0.00, -0.00, -1.00, 980.8, 569.7)">e</text><text xml:space="preserve" font-family="Avenir-Book,Avenir" font-size="72.0" fill="#000000" transform="matrix(1.00, 0.00, -0.00, -1.00, 1020.9, 569.7)">r</text><text xml:space="preserve" font-family="Avenir-Book,Avenir" font-size="72.0" fill="#000000" transform="matrix(1.00, 0.00, -0.00, -1.00, 1044.8, 569.7)">s</text><text xml:space="preserve" font-family="Avenir-Book,Avenir" font-size="72.0" fill="#000000" transform="matrix(1.00, 0.00, -0.00, -1.00, 1075.4, 569.7)">e</text><text xml:space="preserve" font-family="Avenir-Book,Avenir" font-size="72.0" fill="#000000" transform="matrix(1.00, 0.00, -0.00, -1.00, 1115.5, 569.7)">t</text><text xml:space="preserve" font-family="Avenir-Book,Avenir" font-size="72.0" fill="#000000" transform="matrix(1.00, 0.00, -0.00, -1.00, 1139.4, 569.7)"> </text><text xml:space="preserve" font-family="Avenir-Book,Avenir" font-size="72.0" fill="#000000" transform="matrix(1.00, 0.00, -0.00, -1.00, 1159.4, 569.7)">o</text><text xml:space="preserve" font-family="Avenir-Book,Avenir" font-size="72.0" fill="#000000" transform="matrix(1.00, 0.00, -0.00, -1.00, 1202.1, 569.7)">f</text><text xml:space="preserve" font-family="Avenir-Book,Avenir" font-size="72.0" fill="#000000" transform="matrix(1.00, 0.00, -0.00, -1.00, 1223.4, 569.7)"> </text><text xml:space="preserve" font-family="Avenir-Book,Avenir" font-size="72.0" fill="#000000" transform="matrix(1.00, 0.00, -0.00, -1.00, 1243.4, 569.7)">J</text><text xml:space="preserve" font-family="Avenir-Book,Avenir" font-size="72.0" fill="#000000" transform="matrix(1.00, 0.00, -0.00, -1.00, 1278.1, 569.7)">a</text><text xml:space="preserve" font-family="Avenir-Book,Avenir" font-size="72.0" fill="#000000" transform="matrix(1.00, 0.00, -0.00, -1.00, 1315.5, 569.7)">v</text><text xml:space="preserve" font-family="Avenir-Book,Avenir" font-size="72.0" fill="#000000" transform="matrix(1.00, 0.00, -0.00, -1.00, 1350.2, 569.7)">a</text><text xml:space="preserve" font-family="Avenir-Book,Avenir" font-size="72.0" fill="#000000" transform="matrix(1.00, 0.00, -0.00, -1.00, 1387.6, 569.7)">S</text><text xml:space="preserve" font-family="Avenir-Book,Avenir" font-size="72.0" fill="#000000" transform="matrix(1.00, 0.00, -0.00, -1.00, 1427.6, 569.7)">c</text><text xml:space="preserve" font-family="Avenir-Book,Avenir" font-size="72.0" fill="#000000" transform="matrix(1.00, 0.00, -0.00, -1.00, 1462.3, 569.7)">r</text><text xml:space="preserve" font-family="Avenir-Book,Avenir" font-size="72.0" fill="#000000" transform="matrix(1.00, 0.00, -0.00, -1.00, 1486.2, 569.7)">i</text><text xml:space="preserve" font-family="Avenir-Book,Avenir" font-size="72.0" fill="#000000" transform="matrix(1.00, 0.00, -0.00, -1.00, 1503.5, 569.7)">p</text><text xml:space="preserve" font-family="Avenir-Book,Avenir" font-size="72.0" fill="#000000" transform="matrix(1.00, 0.00, -0.00, -1.00, 1547.5, 569.7)">t</text><text xml:space="preserve" font-family="Avenir-Book,Avenir" font-size="72.0" fill="#000000" transform="matrix(1.00, 0.00, -0.00, -1.00, 1571.4, 569.7)"> </text><text xml:space="preserve" font-family="Avenir-Book,Avenir" font-size="72.0" fill="#000000" transform="matrix(1.00, 0.00, -0.00, -1.00, 1591.4, 569.7)">t</text><text xml:space="preserve" font-family="Avenir-Book,Avenir" font-size="72.0" fill="#000000" transform="matrix(1.00, 0.00, -0.00, -1.00, 1615.3, 569.7)">h</text><text xml:space="preserve" font-family="Avenir-Book,Avenir" font-size="72.0" fill="#000000" transform="matrix(1.00, 0.00, -0.00, -1.00, 1655.3, 569.7)">a</text><text xml:space="preserve" font-family="Avenir-Book,Avenir" font-size="72.0" fill="#000000" transform="matrix(1.00, 0.00, -0.00, -1.00, 1692.7, 569.7)">t</text><text xml:space="preserve" font-family="Avenir-Book,Avenir" font-size="72.0" fill="#000000" transform="matrix(1.00, 0.00, -0.00, -1.00, 1716.6, 569.7)"> </text><text xml:space="preserve" font-family="Avenir-Book,Avenir" font-size="72.0" fill="#000000" transform="matrix(1.00, 0.00, -0.00, -1.00, 178.2, 471.7)">c</text><text xml:space="preserve" font-family="Avenir-Book,Avenir" font-size="72.0" fill="#000000" transform="matrix(1.00, 0.00, -0.00, -1.00, 212.9, 471.7)">o</text><text xml:space="preserve" font-family="Avenir-Book,Avenir" font-size="72.0" fill="#000000" transform="matrix(1.00, 0.00, -0.00, -1.00, 255.6, 471.7)">m</text><text xml:space="preserve" font-family="Avenir-Book,Avenir" font-size="72.0" fill="#000000" transform="matrix(1.00, 0.00, -0.00, -1.00, 317.0, 471.7)">p</text><text xml:space="preserve" font-family="Avenir-Book,Avenir" font-size="72.0" fill="#000000" transform="matrix(1.00, 0.00, -0.00, -1.00, 361.0, 471.7)">i</text><text xml:space="preserve" font-family="Avenir-Book,Avenir" font-size="72.0" fill="#000000" transform="matrix(1.00, 0.00, -0.00, -1.00, 378.3, 471.7)">l</text><text xml:space="preserve" font-family="Avenir-Book,Avenir" font-size="72.0" fill="#000000" transform="matrix(1.00, 0.00, -0.00, -1.00, 395.5, 471.7)">e</text><text xml:space="preserve" font-family="Avenir-Book,Avenir" font-size="72.0" fill="#000000" transform="matrix(1.00, 0.00, -0.00, -1.00, 435.6, 471.7)">s</text><text xml:space="preserve" font-family="Avenir-Book,Avenir" font-size="72.0" fill="#000000" transform="matrix(1.00, 0.00, -0.00, -1.00, 466.2, 471.7)"> </text><text xml:space="preserve" font-family="Avenir-Book,Avenir" font-size="72.0" fill="#000000" transform="matrix(1.00, 0.00, -0.00, -1.00, 486.3, 471.7)">t</text><text xml:space="preserve" font-family="Avenir-Book,Avenir" font-size="72.0" fill="#000000" transform="matrix(1.00, 0.00, -0.00, -1.00, 510.2, 471.7)">o</text><text xml:space="preserve" font-family="Avenir-Book,Avenir" font-size="72.0" fill="#000000" transform="matrix(1.00, 0.00, -0.00, -1.00, 552.9, 471.7)"> </text><text xml:space="preserve" font-family="Avenir-Book,Avenir" font-size="72.0" fill="#000000" transform="matrix(1.00, 0.00, -0.00, -1.00, 572.9, 471.7)">p</text><text xml:space="preserve" font-family="Avenir-Book,Avenir" font-size="72.0" fill="#000000" transform="matrix(1.00, 0.00, -0.00, -1.00, 616.9, 471.7)">l</text><text xml:space="preserve" font-family="Avenir-Book,Avenir" font-size="72.0" fill="#000000" transform="matrix(1.00, 0.00, -0.00, -1.00, 634.1, 471.7)">a</text><text xml:space="preserve" font-family="Avenir-Book,Avenir" font-size="72.0" fill="#000000" transform="matrix(1.00, 0.00, -0.00, -1.00, 671.5, 471.7)">i</text><text xml:space="preserve" font-family="Avenir-Book,Avenir" font-size="72.0" fill="#000000" transform="matrix(1.00, 0.00, -0.00, -1.00, 688.8, 471.7)">n</text><text xml:space="preserve" font-family="Avenir-Book,Avenir" font-size="72.0" fill="#000000" transform="matrix(1.00, 0.00, -0.00, -1.00, 728.8, 471.7)"> </text><text xml:space="preserve" font-family="Avenir-Book,Avenir" font-size="72.0" fill="#000000" transform="matrix(1.00, 0.00, -0.00, -1.00, 748.8, 471.7)">J</text><text xml:space="preserve" font-family="Avenir-Book,Avenir" font-size="72.0" fill="#000000" transform="matrix(1.00, 0.00, -0.00, -1.00, 783.5, 471.7)">a</text><text xml:space="preserve" font-family="Avenir-Book,Avenir" font-size="72.0" fill="#000000" transform="matrix(1.00, 0.00, -0.00, -1.00, 820.9, 471.7)">v</text><text xml:space="preserve" font-family="Avenir-Book,Avenir" font-size="72.0" fill="#000000" transform="matrix(1.00, 0.00, -0.00, -1.00, 855.6, 471.7)">a</text><text xml:space="preserve" font-family="Avenir-Book,Avenir" font-size="72.0" fill="#000000" transform="matrix(1.00, 0.00, -0.00, -1.00, 893.0, 471.7)">S</text><text xml:space="preserve" font-family="Avenir-Book,Avenir" font-size="72.0" fill="#000000" transform="matrix(1.00, 0.00, -0.00, -1.00, 933.0, 471.7)">c</text><text xml:space="preserve" font-family="Avenir-Book,Avenir" font-size="72.0" fill="#000000" transform="matrix(1.00, 0.00, -0.00, -1.00, 967.7, 471.7)">r</text><text xml:space="preserve" font-family="Avenir-Book,Avenir" font-size="72.0" fill="#000000" transform="matrix(1.00, 0.00, -0.00, -1.00, 991.6, 471.7)">i</text><text xml:space="preserve" font-family="Avenir-Book,Avenir" font-size="72.0" fill="#000000" transform="matrix(1.00, 0.00, -0.00, -1.00, 1008.9, 471.7)">p</text><text xml:space="preserve" font-family="Avenir-Book,Avenir" font-size="72.0" fill="#000000" transform="matrix(1.00, 0.00, -0.00, -1.00, 1052.9, 471.7)">t</text><text xml:space="preserve" font-family="Avenir-Book,Avenir" font-size="72.0" fill="#000000" transform="matrix(1.00, 0.00, -0.00, -1.00, 1076.8, 471.7)">.</text><text xml:space="preserve" font-family="Avenir-Book,Avenir" font-size="72.0" fill="#000000" transform="matrix(1.00, 0.00, -0.00, -1.00, 1096.8, 471.7)"> </text><text xml:space="preserve" font-family="Avenir-Book,Avenir" font-size="72.0" fill="#000000" transform="matrix(1.00, 0.00, -0.00, -1.00, 178.2, 353.7)">A</text><text xml:space="preserve" font-family="Avenir-Book,Avenir" font-size="72.0" fill="#000000" transform="matrix(1.00, 0.00, -0.00, -1.00, 227.6, 353.7)">n</text><text xml:space="preserve" font-family="Avenir-Book,Avenir" font-size="72.0" fill="#000000" transform="matrix(1.00, 0.00, -0.00, -1.00, 267.7, 353.7)">y</text><text xml:space="preserve" font-family="Avenir-Book,Avenir" font-size="72.0" fill="#000000" transform="matrix(1.00, 0.00, -0.00, -1.00, 302.4, 353.7)"> </text><text xml:space="preserve" font-family="Avenir-Book,Avenir" font-size="72.0" fill="#000000" transform="matrix(1.00, 0.00, -0.00, -1.00, 322.4, 353.7)">b</text><text xml:space="preserve" font-family="Avenir-Book,Avenir" font-size="72.0" fill="#000000" transform="matrix(1.00, 0.00, -0.00, -1.00, 366.4, 353.7)">r</text><text xml:space="preserve" font-family="Avenir-Book,Avenir" font-size="72.0" fill="#000000" transform="matrix(1.00, 0.00, -0.00, -1.00, 389.0, 353.7)">o</text><text xml:space="preserve" font-family="Avenir-Book,Avenir" font-size="72.0" fill="#000000" transform="matrix(1.00, 0.00, -0.00, -1.00, 431.7, 353.7)">w</text><text xml:space="preserve" font-family="Avenir-Book,Avenir" font-size="72.0" fill="#000000" transform="matrix(1.00, 0.00, -0.00, -1.00, 483.7, 353.7)">s</text><text xml:space="preserve" font-family="Avenir-Book,Avenir" font-size="72.0" fill="#000000" transform="matrix(1.00, 0.00, -0.00, -1.00, 514.3, 353.7)">e</text><text xml:space="preserve" font-family="Avenir-Book,Avenir" font-size="72.0" fill="#000000" transform="matrix(1.00, 0.00, -0.00, -1.00, 554.4, 353.7)">r</text><text xml:space="preserve" font-family="Avenir-Book,Avenir" font-size="72.0" fill="#000000" transform="matrix(1.00, 0.00, -0.00, -1.00, 571.6, 353.7)">.</text><text xml:space="preserve" font-family="Avenir-Book,Avenir" font-size="72.0" fill="#000000" transform="matrix(1.00, 0.00, -0.00, -1.00, 591.7, 353.7)"> </text><text xml:space="preserve" font-family="Avenir-Book,Avenir" font-size="72.0" fill="#000000" transform="matrix(1.00, 0.00, -0.00, -1.00, 611.7, 353.7)">A</text><text xml:space="preserve" font-family="Avenir-Book,Avenir" font-size="72.0" fill="#000000" transform="matrix(1.00, 0.00, -0.00, -1.00, 661.1, 353.7)">n</text><text xml:space="preserve" font-family="Avenir-Book,Avenir" font-size="72.0" fill="#000000" transform="matrix(1.00, 0.00, -0.00, -1.00, 701.1, 353.7)">y</text><text xml:space="preserve" font-family="Avenir-Book,Avenir" font-size="72.0" fill="#000000" transform="matrix(1.00, 0.00, -0.00, -1.00, 735.8, 353.7)"> </text><text xml:space="preserve" font-family="Avenir-Book,Avenir" font-size="72.0" fill="#000000" transform="matrix(1.00, 0.00, -0.00, -1.00, 755.8, 353.7)">h</text><text xml:space="preserve" font-family="Avenir-Book,Avenir" font-size="72.0" fill="#000000" transform="matrix(1.00, 0.00, -0.00, -1.00, 795.9, 353.7)">o</text><text xml:space="preserve" font-family="Avenir-Book,Avenir" font-size="72.0" fill="#000000" transform="matrix(1.00, 0.00, -0.00, -1.00, 838.6, 353.7)">s</text><text xml:space="preserve" font-family="Avenir-Book,Avenir" font-size="72.0" fill="#000000" transform="matrix(1.00, 0.00, -0.00, -1.00, 869.2, 353.7)">t</text><text xml:space="preserve" font-family="Avenir-Book,Avenir" font-size="72.0" fill="#000000" transform="matrix(1.00, 0.00, -0.00, -1.00, 893.1, 353.7)">.</text><text xml:space="preserve" font-family="Avenir-Book,Avenir" font-size="72.0" fill="#000000" transform="matrix(1.00, 0.00, -0.00, -1.00, 913.1, 353.7)"> </text><text xml:space="preserve" font-family="Avenir-Book,Avenir" font-size="72.0" fill="#000000" transform="matrix(1.00, 0.00, -0.00, -1.00, 933.2, 353.7)">A</text><text xml:space="preserve" font-family="Avenir-Book,Avenir" font-size="72.0" fill="#000000" transform="matrix(1.00, 0.00, -0.00, -1.00, 982.6, 353.7)">n</text><text xml:space="preserve" font-family="Avenir-Book,Avenir" font-size="72.0" fill="#000000" transform="matrix(1.00, 0.00, -0.00, -1.00, 1022.6, 353.7)">y</text><text xml:space="preserve" font-family="Avenir-Book,Avenir" font-size="72.0" fill="#000000" transform="matrix(1.00, 0.00, -0.00, -1.00, 1057.3, 353.7)"> </text><text xml:space="preserve" font-family="Avenir-Book,Avenir" font-size="72.0" fill="#000000" transform="matrix(1.00, 0.00, -0.00, -1.00, 1077.3, 353.7)">O</text><text xml:space="preserve" font-family="Avenir-Book,Avenir" font-size="72.0" fill="#000000" transform="matrix(1.00, 0.00, -0.00, -1.00, 1137.4, 353.7)">S</text><text xml:space="preserve" font-family="Avenir-Book,Avenir" font-size="72.0" fill="#000000" transform="matrix(1.00, 0.00, -0.00, -1.00, 1177.4, 353.7)">.</text><text xml:space="preserve" font-family="Avenir-Book,Avenir" font-size="72.0" fill="#000000" transform="matrix(1.00, 0.00, -0.00, -1.00, 1197.4, 353.7)"> </text><text xml:space="preserve" font-family="Avenir-Book,Avenir" font-size="72.0" fill="#000000" transform="matrix(1.00, 0.00, -0.00, -1.00, 1217.4, 353.7)">O</text><text xml:space="preserve" font-family="Avenir-Book,Avenir" font-size="72.0" fill="#000000" transform="matrix(1.00, 0.00, -0.00, -1.00, 1277.5, 353.7)">p</text><text xml:space="preserve" font-family="Avenir-Book,Avenir" font-size="72.0" fill="#000000" transform="matrix(1.00, 0.00, -0.00, -1.00, 1321.5, 353.7)">e</text><text xml:space="preserve" font-family="Avenir-Book,Avenir" font-size="72.0" fill="#000000" transform="matrix(1.00, 0.00, -0.00, -1.00, 1361.5, 353.7)">n</text><text xml:space="preserve" font-family="Avenir-Book,Avenir" font-size="72.0" fill="#000000" transform="matrix(1.00, 0.00, -0.00, -1.00, 1401.5, 353.7)"> </text><text xml:space="preserve" font-family="Avenir-Book,Avenir" font-size="72.0" fill="#000000" transform="matrix(1.00, 0.00, -0.00, -1.00, 1421.5, 353.7)">S</text><text xml:space="preserve" font-family="Avenir-Book,Avenir" font-size="72.0" fill="#000000" transform="matrix(1.00, 0.00, -0.00, -1.00, 1461.6, 353.7)">o</text><text xml:space="preserve" font-family="Avenir-Book,Avenir" font-size="72.0" fill="#000000" transform="matrix(1.00, 0.00, -0.00, -1.00, 1504.3, 353.7)">u</text><text xml:space="preserve" font-family="Avenir-Book,Avenir" font-size="72.0" fill="#000000" transform="matrix(1.00, 0.00, -0.00, -1.00, 1544.3, 353.7)">r</text><text xml:space="preserve" font-family="Avenir-Book,Avenir" font-size="72.0" fill="#000000" transform="matrix(1.00, 0.00, -0.00, -1.00, 1566.9, 353.7)">c</text><text xml:space="preserve" font-family="Avenir-Book,Avenir" font-size="72.0" fill="#000000" transform="matrix(1.00, 0.00, -0.00, -1.00, 1601.6, 353.7)">e</text><text xml:space="preserve" font-family="Avenir-Book,Avenir" font-size="72.0" fill="#000000" transform="matrix(1.00, 0.00, -0.00, -1.00, 1641.6, 353.7)">.</text><text xml:space="preserve" font-family="Avenir-Book,Avenir" font-size="72.0" fill="#000000" transform="matrix(1.00, 0.00, -0.00, -1.00, 1661.7, 353.7)"> </text><text xml:space="preserve" font-family="Avenir-Black,Avenir" font-weight="bold" font-size="25.0" fill="#4E4E4E" transform="matrix(1.00, 0.00, -0.00, -1.00, 178.2, 282.5)">t</text><text xml:space="preserve" font-family="Avenir-Black,Avenir" font-weight="bold" font-size="25.0" fill="#4E4E4E" transform="matrix(1.00, 0.00, -0.00, -1.00, 188.4, 282.5)">y</text><text xml:space="preserve" font-family="Avenir-Black,Avenir" font-weight="bold" font-size="25.0" fill="#4E4E4E" transform="matrix(1.00, 0.00, -0.00, -1.00, 202.3, 282.5)">p</text><text xml:space="preserve" font-family="Avenir-Black,Avenir" font-weight="bold" font-size="25.0" fill="#4E4E4E" transform="matrix(1.00, 0.00, -0.00, -1.00, 218.1, 282.5)">e</text><text xml:space="preserve" font-family="Avenir-Black,Avenir" font-weight="bold" font-size="25.0" fill="#4E4E4E" transform="matrix(1.00, 0.00, -0.00, -1.00, 232.4, 282.5)">s</text><text xml:space="preserve" font-family="Avenir-Black,Avenir" font-weight="bold" font-size="25.0" fill="#4E4E4E" transform="matrix(1.00, 0.00, -0.00, -1.00, 244.0, 282.5)">c</text><text xml:space="preserve" font-family="Avenir-Black,Avenir" font-weight="bold" font-size="25.0" fill="#4E4E4E" transform="matrix(1.00, 0.00, -0.00, -1.00, 256.0, 282.5)">r</text><text xml:space="preserve" font-family="Avenir-Black,Avenir" font-weight="bold" font-size="25.0" fill="#4E4E4E" transform="matrix(1.00, 0.00, -0.00, -1.00, 266.2, 282.5)">i</text><text xml:space="preserve" font-family="Avenir-Black,Avenir" font-weight="bold" font-size="25.0" fill="#4E4E4E" transform="matrix(1.00, 0.00, -0.00, -1.00, 272.7, 282.5)">p</text><text xml:space="preserve" font-family="Avenir-Black,Avenir" font-weight="bold" font-size="25.0" fill="#4E4E4E" transform="matrix(1.00, 0.00, -0.00, -1.00, 288.5, 282.5)">t</text><text xml:space="preserve" font-family="Avenir-Black,Avenir" font-weight="bold" font-size="25.0" fill="#4E4E4E" transform="matrix(1.00, 0.00, -0.00, -1.00, 298.6, 282.5)">l</text><text xml:space="preserve" font-family="Avenir-Black,Avenir" font-weight="bold" font-size="25.0" fill="#4E4E4E" transform="matrix(1.00, 0.00, -0.00, -1.00, 305.1, 282.5)">a</text><text xml:space="preserve" font-family="Avenir-Black,Avenir" font-weight="bold" font-size="25.0" fill="#4E4E4E" transform="matrix(1.00, 0.00, -0.00, -1.00, 318.6, 282.5)">n</text><text xml:space="preserve" font-family="Avenir-Black,Avenir" font-weight="bold" font-size="25.0" fill="#4E4E4E" transform="matrix(1.00, 0.00, -0.00, -1.00, 332.9, 282.5)">g</text><text xml:space="preserve" font-family="Avenir-Black,Avenir" font-weight="bold" font-size="25.0" fill="#4E4E4E" transform="matrix(1.00, 0.00, -0.00, -1.00, 348.7, 282.5)">.</text><text xml:space="preserve" font-family="Avenir-Black,Avenir" font-weight="bold" font-size="25.0" fill="#4E4E4E" transform="matrix(1.00, 0.00, -0.00, -1.00, 356.1, 282.5)">o</text><text xml:space="preserve" font-family="Avenir-Black,Avenir" font-weight="bold" font-size="25.0" fill="#4E4E4E" transform="matrix(1.00, 0.00, -0.00, -1.00, 371.3, 282.5)">r</text><text xml:space="preserve" font-family="Avenir-Black,Avenir" font-weight="bold" font-size="25.0" fill="#4E4E4E" transform="matrix(1.00, 0.00, -0.00, -1.00, 381.0, 282.5)">g</text><g><clipPath id="clip0x6180008b6320"><path d="M 177.2 279.0 L 396.8 279.0 L 396.8 282.2 L 177.2 282.2 Z M 177.2 279.0 "></path></clipPath><g clip-path="url(#clip0x6180008b6320)"><path d="M 4.0 726.7 L 222.6 726.7 " fill="none" stroke="#4E4E4E" stroke-width="1.25" transform="matrix(1.00, 0.00, 0.00, -1.00, 174.2, 1007.3)"></path></g></g><text xml:space="preserve" font-family="Baskerville,Baskerville" font-size="120.0" fill="#000000" transform="matrix(1.00, 0.00, -0.00, -1.00, 102.0, 755.5)">“</text></g></svg>