<?xml version="1.0" encoding="UTF-8" standalone="no"?><svg xmlns="http://www.w3.org/2000/svg" xmlns:xlink="http://www.w3.org/1999/xlink" clip-rule="evenodd" stroke-miterlimit="10" viewBox="0 0 1920 1080"><desc>SVG generated by Keynote</desc><defs></defs><g transform="matrix(1.00, 0.00, -0.00, -1.00, 0.0, 1080.0)"><path d="M 0.0 1080.0 L 1920.0 1080.0 L 1920.0 0.0 L 0.0 0.0 Z M 0.0 1080.0 " fill="#000000"></path><g opacity="0.60"><g><clipPath id="clip0x600000cb6f20"><path d="M 0.0 1080.0 L 1920.0 1080.0 L 1920.0 0.0 L 0.0 0.0 Z M 0.0 1080.0 "></path></clipPath><g clip-path="url(#clip0x600000cb6f20)"><g><clipPath id="clip0x600000cb7280"><path d="M 0.0 0.0 L 1920.0 0.0 L 1920.0 1080.0 L 0.0 1080.0 Z M 0.0 0.0 "></path></clipPath><g clip-path="url(#clip0x600000cb7280)"><image xlink:href="../../ED31ED7D-80FA-494C-A652-38E55DC2A4CB/assets/01602761F71F70B48958C9234A2EAA18.jpeg" width="1600.00" height="1200.00" transform="matrix(1.20, 0.00, -0.00, -1.20, 0.0, 1260.0)"></image></g></g></g></g></g><text xml:space="preserve" font-family="Avenir-Black,Avenir" font-weight="bold" font-size="79.2" fill="#FEFFFF" transform="matrix(1.00, 0.00, -0.00, -1.00, 101.5, 538.0)">W</text><text xml:space="preserve" font-family="Avenir-Black,Avenir" font-weight="bold" font-size="79.2" fill="#FEFFFF" transform="matrix(1.00, 0.00, -0.00, -1.00, 193.4, 538.0)">H</text><text xml:space="preserve" font-family="Avenir-Black,Avenir" font-weight="bold" font-size="79.2" fill="#FEFFFF" transform="matrix(1.00, 0.00, -0.00, -1.00, 266.2, 538.0)">A</text><text xml:space="preserve" font-family="Avenir-Black,Avenir" font-weight="bold" font-size="79.2" fill="#FEFFFF" transform="matrix(1.00, 0.00, -0.00, -1.00, 330.2, 538.0)">T</text><text xml:space="preserve" font-family="Avenir-Black,Avenir" font-weight="bold" font-size="79.2" fill="#FEFFFF" transform="matrix(1.00, 0.00, -0.00, -1.00, 388.4, 538.0)"> </text><text xml:space="preserve" font-family="Avenir-Black,Avenir" font-weight="bold" font-size="79.2" fill="#FEFFFF" transform="matrix(1.00, 0.00, -0.00, -1.00, 424.5, 538.0)">D</text><text xml:space="preserve" font-family="Avenir-Black,Avenir" font-weight="bold" font-size="79.2" fill="#FEFFFF" transform="matrix(1.00, 0.00, -0.00, -1.00, 497.3, 538.0)">O</text><text xml:space="preserve" font-family="Avenir-Black,Avenir" font-weight="bold" font-size="79.2" fill="#FEFFFF" transform="matrix(1.00, 0.00, -0.00, -1.00, 575.8, 538.0)"> </text><text xml:space="preserve" font-family="Avenir-Black,Avenir" font-weight="bold" font-size="79.2" fill="#FEFFFF" transform="matrix(1.00, 0.00, -0.00, -1.00, 611.9, 538.0)">T</text><text xml:space="preserve" font-family="Avenir-Black,Avenir" font-weight="bold" font-size="79.2" fill="#FEFFFF" transform="matrix(1.00, 0.00, -0.00, -1.00, 670.1, 538.0)">H</text><text xml:space="preserve" font-family="Avenir-Black,Avenir" font-weight="bold" font-size="79.2" fill="#FEFFFF" transform="matrix(1.00, 0.00, -0.00, -1.00, 742.9, 538.0)">E</text><text xml:space="preserve" font-family="Avenir-Black,Avenir" font-weight="bold" font-size="79.2" fill="#FEFFFF" transform="matrix(1.00, 0.00, -0.00, -1.00, 805.4, 538.0)"> </text><text xml:space="preserve" font-family="Avenir-Black,Avenir" font-weight="bold" font-size="79.2" fill="#FEFFFF" transform="matrix(1.00, 0.00, -0.00, -1.00, 841.5, 538.0)">A</text><text xml:space="preserve" font-family="Avenir-Black,Avenir" font-weight="bold" font-size="79.2" fill="#FEFFFF" transform="matrix(1.00, 0.00, -0.00, -1.00, 912.9, 538.0)">N</text><text xml:space="preserve" font-family="Avenir-Black,Avenir" font-weight="bold" font-size="79.2" fill="#FEFFFF" transform="matrix(1.00, 0.00, -0.00, -1.00, 990.1, 538.0)">N</text><text xml:space="preserve" font-family="Avenir-Black,Avenir" font-weight="bold" font-size="79.2" fill="#FEFFFF" transform="matrix(1.00, 0.00, -0.00, -1.00, 1067.3, 538.0)">O</text><text xml:space="preserve" font-family="Avenir-Black,Avenir" font-weight="bold" font-size="79.2" fill="#FEFFFF" transform="matrix(1.00, 0.00, -0.00, -1.00, 1145.9, 538.0)">T</text><text xml:space="preserve" font-family="Avenir-Black,Avenir" font-weight="bold" font-size="79.2" fill="#FEFFFF" transform="matrix(1.00, 0.00, -0.00, -1.00, 1196.8, 538.0)">A</text><text xml:space="preserve" font-family="Avenir-Black,Avenir" font-weight="bold" font-size="79.2" fill="#FEFFFF" transform="matrix(1.00, 0.00, -0.00, -1.00, 1260.8, 538.0)">T</text><text xml:space="preserve" font-family="Avenir-Black,Avenir" font-weight="bold" font-size="79.2" fill="#FEFFFF" transform="matrix(1.00, 0.00, -0.00, -1.00, 1319.0, 538.0)">I</text><text xml:space="preserve" font-family="Avenir-Black,Avenir" font-weight="bold" font-size="79.2" fill="#FEFFFF" transform="matrix(1.00, 0.00, -0.00, -1.00, 1355.1, 538.0)">O</text><text xml:space="preserve" font-family="Avenir-Black,Avenir" font-weight="bold" font-size="79.2" fill="#FEFFFF" transform="matrix(1.00, 0.00, -0.00, -1.00, 1433.6, 538.0)">N</text><text xml:space="preserve" font-family="Avenir-Black,Avenir" font-weight="bold" font-size="79.2" fill="#FEFFFF" transform="matrix(1.00, 0.00, -0.00, -1.00, 1510.9, 538.0)">S</text><text xml:space="preserve" font-family="Avenir-Black,Avenir" font-weight="bold" font-size="79.2" fill="#FEFFFF" transform="matrix(1.00, 0.00, -0.00, -1.00, 1569.0, 538.0)"> </text><text xml:space="preserve" font-family="Avenir-Black,Avenir" font-weight="bold" font-size="79.2" fill="#FEFFFF" transform="matrix(1.00, 0.00, -0.00, -1.00, 1605.1, 538.0)">D</text><text xml:space="preserve" font-family="Avenir-Black,Avenir" font-weight="bold" font-size="79.2" fill="#FEFFFF" transform="matrix(1.00, 0.00, -0.00, -1.00, 1677.9, 538.0)">O</text><text xml:space="preserve" font-family="Avenir-Black,Avenir" font-weight="bold" font-size="79.2" fill="#FEFFFF" transform="matrix(1.00, 0.00, -0.00, -1.00, 1756.5, 538.0)">?</text></g></svg>