<?xml version="1.0" encoding="UTF-8" standalone="no"?><svg xmlns="http://www.w3.org/2000/svg" xmlns:xlink="http://www.w3.org/1999/xlink" clip-rule="evenodd" stroke-miterlimit="10" viewBox="0 0 1920 1080"><desc>SVG generated by Keynote</desc><defs></defs><g transform="matrix(1.00, 0.00, -0.00, -1.00, 0.0, 1080.0)"><path d="M 0.0 1080.0 L 1920.0 1080.0 L 1920.0 0.0 L 0.0 0.0 Z M 0.0 1080.0 " fill="#000000"></path><g opacity="0.60"><g><clipPath id="clip0x600000abcb00"><path d="M 0.0 1080.0 L 1920.0 1080.0 L 1920.0 0.0 L 0.0 0.0 Z M 0.0 1080.0 "></path></clipPath><g clip-path="url(#clip0x600000abcb00)"><g><clipPath id="clip0x600000abcc80"><path d="M 0.0 0.0 L 1920.0 0.0 L 1920.0 1080.0 L 0.0 1080.0 Z M 0.0 0.0 "></path></clipPath><g clip-path="url(#clip0x600000abcc80)"><image xlink:href="6E462BE3E962076307B0146EB9264CB7.jpeg" width="2672.00" height="1781.00" transform="matrix(0.72, 0.00, -0.00, -0.72, 0.0, 1180.0)"></image></g></g></g></g></g><text xml:space="preserve" font-family="Avenir-Black,Avenir" font-weight="bold" font-size="81.7" fill="#FEFFFF" transform="matrix(1.00, 0.00, -0.00, -1.00, 101.0, 882.9)">A</text><text xml:space="preserve" font-family="Avenir-Black,Avenir" font-weight="bold" font-size="81.7" fill="#FEFFFF" transform="matrix(1.00, 0.00, -0.00, -1.00, 174.6, 882.9)">R</text><text xml:space="preserve" font-family="Avenir-Black,Avenir" font-weight="bold" font-size="81.7" fill="#FEFFFF" transform="matrix(1.00, 0.00, -0.00, -1.00, 240.6, 882.9)">R</text><text xml:space="preserve" font-family="Avenir-Black,Avenir" font-weight="bold" font-size="81.7" fill="#FEFFFF" transform="matrix(1.00, 0.00, -0.00, -1.00, 306.6, 882.9)">O</text><text xml:space="preserve" font-family="Avenir-Black,Avenir" font-weight="bold" font-size="81.7" fill="#FEFFFF" transform="matrix(1.00, 0.00, -0.00, -1.00, 387.7, 882.9)">W</text><text xml:space="preserve" font-family="Avenir-Black,Avenir" font-weight="bold" font-size="81.7" fill="#FEFFFF" transform="matrix(1.00, 0.00, -0.00, -1.00, 482.5, 882.9)"> </text><text xml:space="preserve" font-family="Avenir-Black,Avenir" font-weight="bold" font-size="81.7" fill="#FEFFFF" transform="matrix(1.00, 0.00, -0.00, -1.00, 519.7, 882.9)">F</text><text xml:space="preserve" font-family="Avenir-Black,Avenir" font-weight="bold" font-size="81.7" fill="#FEFFFF" transform="matrix(1.00, 0.00, -0.00, -1.00, 581.2, 882.9)">U</text><text xml:space="preserve" font-family="Avenir-Black,Avenir" font-weight="bold" font-size="81.7" fill="#FEFFFF" transform="matrix(1.00, 0.00, -0.00, -1.00, 654.8, 882.9)">N</text><text xml:space="preserve" font-family="Avenir-Black,Avenir" font-weight="bold" font-size="81.7" fill="#FEFFFF" transform="matrix(1.00, 0.00, -0.00, -1.00, 734.5, 882.9)">C</text><text xml:space="preserve" font-family="Avenir-Black,Avenir" font-weight="bold" font-size="81.7" fill="#FEFFFF" transform="matrix(1.00, 0.00, -0.00, -1.00, 803.5, 882.9)">T</text><text xml:space="preserve" font-family="Avenir-Black,Avenir" font-weight="bold" font-size="81.7" fill="#FEFFFF" transform="matrix(1.00, 0.00, -0.00, -1.00, 863.5, 882.9)">I</text><text xml:space="preserve" font-family="Avenir-Black,Avenir" font-weight="bold" font-size="81.7" fill="#FEFFFF" transform="matrix(1.00, 0.00, -0.00, -1.00, 900.8, 882.9)">O</text><text xml:space="preserve" font-family="Avenir-Black,Avenir" font-weight="bold" font-size="81.7" fill="#FEFFFF" transform="matrix(1.00, 0.00, -0.00, -1.00, 981.8, 882.9)">N</text><text xml:space="preserve" font-family="Avenir-Black,Avenir" font-weight="bold" font-size="81.7" fill="#FEFFFF" transform="matrix(1.00, 0.00, -0.00, -1.00, 1061.5, 882.9)"> </text><text xml:space="preserve" font-family="Avenir-Black,Avenir" font-weight="bold" font-size="81.7" fill="#FEFFFF" transform="matrix(1.00, 0.00, -0.00, -1.00, 1098.7, 882.9)">E</text><text xml:space="preserve" font-family="Avenir-Black,Avenir" font-weight="bold" font-size="81.7" fill="#FEFFFF" transform="matrix(1.00, 0.00, -0.00, -1.00, 1163.3, 882.9)">X</text><text xml:space="preserve" font-family="Avenir-Black,Avenir" font-weight="bold" font-size="81.7" fill="#FEFFFF" transform="matrix(1.00, 0.00, -0.00, -1.00, 1235.3, 882.9)">P</text><text xml:space="preserve" font-family="Avenir-Black,Avenir" font-weight="bold" font-size="81.7" fill="#FEFFFF" transform="matrix(1.00, 0.00, -0.00, -1.00, 1299.9, 882.9)">R</text><text xml:space="preserve" font-family="Avenir-Black,Avenir" font-weight="bold" font-size="81.7" fill="#FEFFFF" transform="matrix(1.00, 0.00, -0.00, -1.00, 1365.9, 882.9)">E</text><text xml:space="preserve" font-family="Avenir-Black,Avenir" font-weight="bold" font-size="81.7" fill="#FEFFFF" transform="matrix(1.00, 0.00, -0.00, -1.00, 1430.4, 882.9)">S</text><text xml:space="preserve" font-family="Avenir-Black,Avenir" font-weight="bold" font-size="81.7" fill="#FEFFFF" transform="matrix(1.00, 0.00, -0.00, -1.00, 1490.4, 882.9)">S</text><text xml:space="preserve" font-family="Avenir-Black,Avenir" font-weight="bold" font-size="81.7" fill="#FEFFFF" transform="matrix(1.00, 0.00, -0.00, -1.00, 1550.4, 882.9)">I</text><text xml:space="preserve" font-family="Avenir-Black,Avenir" font-weight="bold" font-size="81.7" fill="#FEFFFF" transform="matrix(1.00, 0.00, -0.00, -1.00, 1587.6, 882.9)">O</text><text xml:space="preserve" font-family="Avenir-Black,Avenir" font-weight="bold" font-size="81.7" fill="#FEFFFF" transform="matrix(1.00, 0.00, -0.00, -1.00, 1668.7, 882.9)">N</text><text xml:space="preserve" font-family="Avenir-Black,Avenir" font-weight="bold" font-size="81.7" fill="#FEFFFF" transform="matrix(1.00, 0.00, -0.00, -1.00, 1748.3, 882.9)">S</text></g></svg>