<?xml version="1.0" encoding="UTF-8" standalone="no"?><svg xmlns="http://www.w3.org/2000/svg" xmlns:xlink="http://www.w3.org/1999/xlink" clip-rule="evenodd" stroke-miterlimit="10" viewBox="0 0 1808 457"><desc>SVG generated by Keynote</desc><defs></defs><g transform="matrix(1.00, 0.00, -0.00, -1.00, 0.0, 457.0)"><image xlink:href="3E07598B5575F3E6BBCD517444DAEF8F.png" width="1806.00" height="453.00" transform="matrix(1.00, 0.00, -0.00, -1.00, 1.5, 454.3)"></image><path d="M 42.0 345.0 L 1767.0 345.0 L 1767.0 112.0 L 42.0 112.0 Z M 41.5 345.0 " fill="#4E4E4E" fill-opacity="0.68"></path><g><clipPath id="clip0x618000aba700"><path d="M 34.2 104.7 L 1773.8 104.7 L 1773.8 352.4 L 34.2 352.4 Z M 34.2 104.7 "></path></clipPath><g clip-path="url(#clip0x618000aba700)"><text xml:space="preserve" font-family="CourierNewPSMT,Courier New" font-size="40.0" fill="#FEFFFF" transform="matrix(1.00, 0.00, -0.00, -1.00, 45.5, 308.1)">f</text><text xml:space="preserve" font-family="CourierNewPSMT,Courier New" font-size="40.0" fill="#FEFFFF" transform="matrix(1.00, 0.00, -0.00, -1.00, 69.5, 308.1)">u</text><text xml:space="preserve" font-family="CourierNewPSMT,Courier New" font-size="40.0" fill="#FEFFFF" transform="matrix(1.00, 0.00, -0.00, -1.00, 93.5, 308.1)">n</text><text xml:space="preserve" font-family="CourierNewPSMT,Courier New" font-size="40.0" fill="#FEFFFF" transform="matrix(1.00, 0.00, -0.00, -1.00, 117.5, 308.1)">c</text><text xml:space="preserve" font-family="CourierNewPSMT,Courier New" font-size="40.0" fill="#FEFFFF" transform="matrix(1.00, 0.00, -0.00, -1.00, 141.5, 308.1)">t</text><text xml:space="preserve" font-family="CourierNewPSMT,Courier New" font-size="40.0" fill="#FEFFFF" transform="matrix(1.00, 0.00, -0.00, -1.00, 165.5, 308.1)">i</text><text xml:space="preserve" font-family="CourierNewPSMT,Courier New" font-size="40.0" fill="#FEFFFF" transform="matrix(1.00, 0.00, -0.00, -1.00, 189.5, 308.1)">o</text><text xml:space="preserve" font-family="CourierNewPSMT,Courier New" font-size="40.0" fill="#FEFFFF" transform="matrix(1.00, 0.00, -0.00, -1.00, 213.6, 308.1)">n</text><text xml:space="preserve" font-family="CourierNewPSMT,Courier New" font-size="40.0" fill="#FEFFFF" transform="matrix(1.00, 0.00, -0.00, -1.00, 237.6, 308.1)"> </text><text xml:space="preserve" font-family="CourierNewPSMT,Courier New" font-size="40.0" fill="#FEFFFF" transform="matrix(1.00, 0.00, -0.00, -1.00, 261.6, 308.1)">o</text><text xml:space="preserve" font-family="CourierNewPSMT,Courier New" font-size="40.0" fill="#FEFFFF" transform="matrix(1.00, 0.00, -0.00, -1.00, 285.6, 308.1)">n</text><text xml:space="preserve" font-family="CourierNewPSMT,Courier New" font-size="40.0" fill="#FEFFFF" transform="matrix(1.00, 0.00, -0.00, -1.00, 309.6, 308.1)">L</text><text xml:space="preserve" font-family="CourierNewPSMT,Courier New" font-size="40.0" fill="#FEFFFF" transform="matrix(1.00, 0.00, -0.00, -1.00, 333.6, 308.1)">o</text><text xml:space="preserve" font-family="CourierNewPSMT,Courier New" font-size="40.0" fill="#FEFFFF" transform="matrix(1.00, 0.00, -0.00, -1.00, 357.6, 308.1)">a</text><text xml:space="preserve" font-family="CourierNewPSMT,Courier New" font-size="40.0" fill="#FEFFFF" transform="matrix(1.00, 0.00, -0.00, -1.00, 381.6, 308.1)">d</text><text xml:space="preserve" font-family="CourierNewPSMT,Courier New" font-size="40.0" fill="#FEFFFF" transform="matrix(1.00, 0.00, -0.00, -1.00, 405.6, 308.1)">e</text><text xml:space="preserve" font-family="CourierNewPSMT,Courier New" font-size="40.0" fill="#FEFFFF" transform="matrix(1.00, 0.00, -0.00, -1.00, 429.6, 308.1)">d</text><text xml:space="preserve" font-family="CourierNewPSMT,Courier New" font-size="40.0" fill="#FEFFFF" transform="matrix(1.00, 0.00, -0.00, -1.00, 453.6, 308.1)">(</text><text xml:space="preserve" font-family="CourierNewPSMT,Courier New" font-size="40.0" fill="#FEFFFF" transform="matrix(1.00, 0.00, -0.00, -1.00, 477.6, 308.1)">)</text><text xml:space="preserve" font-family="CourierNewPSMT,Courier New" font-size="40.0" fill="#FEFFFF" transform="matrix(1.00, 0.00, -0.00, -1.00, 501.7, 308.1)"> </text><text xml:space="preserve" font-family="CourierNewPSMT,Courier New" font-size="40.0" fill="#FEFFFF" transform="matrix(1.00, 0.00, -0.00, -1.00, 525.7, 308.1)">{</text><text xml:space="preserve" font-family="Monaco,Monaco" font-size="40.0" fill="#FEFFFF" transform="matrix(1.00, 0.00, -0.00, -1.00, 549.6, 308.1)"> </text><text xml:space="preserve" font-family="CourierNewPSMT,Courier New" font-size="40.0" fill="#FEFFFF" transform="matrix(1.00, 0.00, -0.00, -1.00, 45.5, 263.1)"> </text><text xml:space="preserve" font-family="CourierNewPSMT,Courier New" font-size="40.0" fill="#FEFFFF" transform="matrix(1.00, 0.00, -0.00, -1.00, 69.5, 263.1)"> </text><text xml:space="preserve" font-family="CourierNewPSMT,Courier New" font-size="40.0" fill="#FEFFFF" transform="matrix(1.00, 0.00, -0.00, -1.00, 93.5, 263.1)">$</text><text xml:space="preserve" font-family="CourierNewPSMT,Courier New" font-size="40.0" fill="#FEFFFF" transform="matrix(1.00, 0.00, -0.00, -1.00, 117.5, 263.1)">t</text><text xml:space="preserve" font-family="CourierNewPSMT,Courier New" font-size="40.0" fill="#FEFFFF" transform="matrix(1.00, 0.00, -0.00, -1.00, 141.5, 263.1)">i</text><text xml:space="preserve" font-family="CourierNewPSMT,Courier New" font-size="40.0" fill="#FEFFFF" transform="matrix(1.00, 0.00, -0.00, -1.00, 165.5, 263.1)">m</text><text xml:space="preserve" font-family="CourierNewPSMT,Courier New" font-size="40.0" fill="#FEFFFF" transform="matrix(1.00, 0.00, -0.00, -1.00, 189.5, 263.1)">e</text><text xml:space="preserve" font-family="CourierNewPSMT,Courier New" font-size="40.0" fill="#FEFFFF" transform="matrix(1.00, 0.00, -0.00, -1.00, 213.6, 263.1)">o</text><text xml:space="preserve" font-family="CourierNewPSMT,Courier New" font-size="40.0" fill="#FEFFFF" transform="matrix(1.00, 0.00, -0.00, -1.00, 237.6, 263.1)">u</text><text xml:space="preserve" font-family="CourierNewPSMT,Courier New" font-size="40.0" fill="#FEFFFF" transform="matrix(1.00, 0.00, -0.00, -1.00, 261.6, 263.1)">t</text><text xml:space="preserve" font-family="CourierNewPSMT,Courier New" font-size="40.0" fill="#FEFFFF" transform="matrix(1.00, 0.00, -0.00, -1.00, 285.6, 263.1)">(</text><text xml:space="preserve" font-family="CourierNewPSMT,Courier New" font-size="40.0" fill="#FEFFFF" transform="matrix(1.00, 0.00, -0.00, -1.00, 309.6, 263.1)">(</text><text xml:space="preserve" font-family="CourierNewPSMT,Courier New" font-size="40.0" fill="#FEFFFF" transform="matrix(1.00, 0.00, -0.00, -1.00, 333.6, 263.1)">)</text><text xml:space="preserve" font-family="CourierNewPSMT,Courier New" font-size="40.0" fill="#FEFFFF" transform="matrix(1.00, 0.00, -0.00, -1.00, 357.6, 263.1)">=</text><text xml:space="preserve" font-family="CourierNewPSMT,Courier New" font-size="40.0" fill="#FEFFFF" transform="matrix(1.00, 0.00, -0.00, -1.00, 381.6, 263.1)">&gt;</text><text xml:space="preserve" font-family="CourierNewPSMT,Courier New" font-size="40.0" fill="#FEFFFF" transform="matrix(1.00, 0.00, -0.00, -1.00, 405.6, 263.1)"> </text><text xml:space="preserve" font-family="CourierNewPSMT,Courier New" font-size="40.0" fill="#FEFFFF" transform="matrix(1.00, 0.00, -0.00, -1.00, 429.6, 263.1)">{</text><text xml:space="preserve" font-family="Monaco,Monaco" font-size="40.0" fill="#FEFFFF" transform="matrix(1.00, 0.00, -0.00, -1.00, 453.6, 263.1)"> </text><text xml:space="preserve" font-family="CourierNewPSMT,Courier New" font-size="40.0" fill="#FEFFFF" transform="matrix(1.00, 0.00, -0.00, -1.00, 45.5, 218.1)"> </text><text xml:space="preserve" font-family="CourierNewPSMT,Courier New" font-size="40.0" fill="#FEFFFF" transform="matrix(1.00, 0.00, -0.00, -1.00, 69.5, 218.1)"> </text><text xml:space="preserve" font-family="CourierNewPSMT,Courier New" font-size="40.0" fill="#FEFFFF" transform="matrix(1.00, 0.00, -0.00, -1.00, 93.5, 218.1)"> </text><text xml:space="preserve" font-family="CourierNewPSMT,Courier New" font-size="40.0" fill="#FEFFFF" transform="matrix(1.00, 0.00, -0.00, -1.00, 117.5, 218.1)"> </text><text xml:space="preserve" font-family="CourierNewPSMT,Courier New" font-size="40.0" fill="#FEFFFF" transform="matrix(1.00, 0.00, -0.00, -1.00, 141.5, 218.1)">t</text><text xml:space="preserve" font-family="CourierNewPSMT,Courier New" font-size="40.0" fill="#FEFFFF" transform="matrix(1.00, 0.00, -0.00, -1.00, 165.5, 218.1)">h</text><text xml:space="preserve" font-family="CourierNewPSMT,Courier New" font-size="40.0" fill="#FEFFFF" transform="matrix(1.00, 0.00, -0.00, -1.00, 189.5, 218.1)">i</text><text xml:space="preserve" font-family="CourierNewPSMT,Courier New" font-size="40.0" fill="#FEFFFF" transform="matrix(1.00, 0.00, -0.00, -1.00, 213.6, 218.1)">s</text><text xml:space="preserve" font-family="CourierNewPSMT,Courier New" font-size="40.0" fill="#FEFFFF" transform="matrix(1.00, 0.00, -0.00, -1.00, 237.6, 218.1)">.</text><text xml:space="preserve" font-family="CourierNewPSMT,Courier New" font-size="40.0" fill="#FEFFFF" transform="matrix(1.00, 0.00, -0.00, -1.00, 261.6, 218.1)">s</text><text xml:space="preserve" font-family="CourierNewPSMT,Courier New" font-size="40.0" fill="#FEFFFF" transform="matrix(1.00, 0.00, -0.00, -1.00, 285.6, 218.1)">h</text><text xml:space="preserve" font-family="CourierNewPSMT,Courier New" font-size="40.0" fill="#FEFFFF" transform="matrix(1.00, 0.00, -0.00, -1.00, 309.6, 218.1)">o</text><text xml:space="preserve" font-family="CourierNewPSMT,Courier New" font-size="40.0" fill="#FEFFFF" transform="matrix(1.00, 0.00, -0.00, -1.00, 333.6, 218.1)">w</text><text xml:space="preserve" font-family="CourierNewPSMT,Courier New" font-size="40.0" fill="#FEFFFF" transform="matrix(1.00, 0.00, -0.00, -1.00, 357.6, 218.1)">M</text><text xml:space="preserve" font-family="CourierNewPSMT,Courier New" font-size="40.0" fill="#FEFFFF" transform="matrix(1.00, 0.00, -0.00, -1.00, 381.6, 218.1)">e</text><text xml:space="preserve" font-family="CourierNewPSMT,Courier New" font-size="40.0" fill="#FEFFFF" transform="matrix(1.00, 0.00, -0.00, -1.00, 405.6, 218.1)">s</text><text xml:space="preserve" font-family="CourierNewPSMT,Courier New" font-size="40.0" fill="#FEFFFF" transform="matrix(1.00, 0.00, -0.00, -1.00, 429.6, 218.1)">s</text><text xml:space="preserve" font-family="CourierNewPSMT,Courier New" font-size="40.0" fill="#FEFFFF" transform="matrix(1.00, 0.00, -0.00, -1.00, 453.6, 218.1)">a</text><text xml:space="preserve" font-family="CourierNewPSMT,Courier New" font-size="40.0" fill="#FEFFFF" transform="matrix(1.00, 0.00, -0.00, -1.00, 477.6, 218.1)">g</text><text xml:space="preserve" font-family="CourierNewPSMT,Courier New" font-size="40.0" fill="#FEFFFF" transform="matrix(1.00, 0.00, -0.00, -1.00, 501.7, 218.1)">e</text><text xml:space="preserve" font-family="CourierNewPSMT,Courier New" font-size="40.0" fill="#FEFFFF" transform="matrix(1.00, 0.00, -0.00, -1.00, 525.7, 218.1)">(</text><text xml:space="preserve" font-family="CourierNewPSMT,Courier New" font-size="40.0" fill="#FEFFFF" transform="matrix(1.00, 0.00, -0.00, -1.00, 549.7, 218.1)">"</text><text xml:space="preserve" font-family="CourierNewPSMT,Courier New" font-size="40.0" fill="#FEFFFF" transform="matrix(1.00, 0.00, -0.00, -1.00, 573.7, 218.1)">T</text><text xml:space="preserve" font-family="CourierNewPSMT,Courier New" font-size="40.0" fill="#FEFFFF" transform="matrix(1.00, 0.00, -0.00, -1.00, 597.7, 218.1)">i</text><text xml:space="preserve" font-family="CourierNewPSMT,Courier New" font-size="40.0" fill="#FEFFFF" transform="matrix(1.00, 0.00, -0.00, -1.00, 621.7, 218.1)">m</text><text xml:space="preserve" font-family="CourierNewPSMT,Courier New" font-size="40.0" fill="#FEFFFF" transform="matrix(1.00, 0.00, -0.00, -1.00, 645.7, 218.1)">e</text><text xml:space="preserve" font-family="CourierNewPSMT,Courier New" font-size="40.0" fill="#FEFFFF" transform="matrix(1.00, 0.00, -0.00, -1.00, 669.7, 218.1)">'</text><text xml:space="preserve" font-family="CourierNewPSMT,Courier New" font-size="40.0" fill="#FEFFFF" transform="matrix(1.00, 0.00, -0.00, -1.00, 693.7, 218.1)">s</text><text xml:space="preserve" font-family="CourierNewPSMT,Courier New" font-size="40.0" fill="#FEFFFF" transform="matrix(1.00, 0.00, -0.00, -1.00, 717.7, 218.1)"> </text><text xml:space="preserve" font-family="CourierNewPSMT,Courier New" font-size="40.0" fill="#FEFFFF" transform="matrix(1.00, 0.00, -0.00, -1.00, 741.7, 218.1)">U</text><text xml:space="preserve" font-family="CourierNewPSMT,Courier New" font-size="40.0" fill="#FEFFFF" transform="matrix(1.00, 0.00, -0.00, -1.00, 765.7, 218.1)">p</text><text xml:space="preserve" font-family="CourierNewPSMT,Courier New" font-size="40.0" fill="#FEFFFF" transform="matrix(1.00, 0.00, -0.00, -1.00, 789.7, 218.1)">!</text><text xml:space="preserve" font-family="CourierNewPSMT,Courier New" font-size="40.0" fill="#FEFFFF" transform="matrix(1.00, 0.00, -0.00, -1.00, 813.8, 218.1)">"</text><text xml:space="preserve" font-family="CourierNewPSMT,Courier New" font-size="40.0" fill="#FEFFFF" transform="matrix(1.00, 0.00, -0.00, -1.00, 837.8, 218.1)">)</text><text xml:space="preserve" font-family="CourierNewPSMT,Courier New" font-size="40.0" fill="#FEFFFF" transform="matrix(1.00, 0.00, -0.00, -1.00, 861.8, 218.1)">;</text><text xml:space="preserve" font-family="Monaco,Monaco" font-size="40.0" fill="#FEFFFF" transform="matrix(1.00, 0.00, -0.00, -1.00, 885.6, 218.1)"> </text><text xml:space="preserve" font-family="CourierNewPSMT,Courier New" font-size="40.0" fill="#FEFFFF" transform="matrix(1.00, 0.00, -0.00, -1.00, 45.5, 173.1)"> </text><text xml:space="preserve" font-family="CourierNewPSMT,Courier New" font-size="40.0" fill="#FEFFFF" transform="matrix(1.00, 0.00, -0.00, -1.00, 69.5, 173.1)"> </text><text xml:space="preserve" font-family="CourierNewPSMT,Courier New" font-size="40.0" fill="#FEFFFF" transform="matrix(1.00, 0.00, -0.00, -1.00, 93.5, 173.1)">}</text><text xml:space="preserve" font-family="CourierNewPSMT,Courier New" font-size="40.0" fill="#FEFFFF" transform="matrix(1.00, 0.00, -0.00, -1.00, 117.5, 173.1)">,</text><text xml:space="preserve" font-family="CourierNewPSMT,Courier New" font-size="40.0" fill="#FEFFFF" transform="matrix(1.00, 0.00, -0.00, -1.00, 141.5, 173.1)"> </text><text xml:space="preserve" font-family="CourierNewPSMT,Courier New" font-size="40.0" fill="#FEFFFF" transform="matrix(1.00, 0.00, -0.00, -1.00, 165.5, 173.1)">1</text><text xml:space="preserve" font-family="CourierNewPSMT,Courier New" font-size="40.0" fill="#FEFFFF" transform="matrix(1.00, 0.00, -0.00, -1.00, 189.5, 173.1)">0</text><text xml:space="preserve" font-family="CourierNewPSMT,Courier New" font-size="40.0" fill="#FEFFFF" transform="matrix(1.00, 0.00, -0.00, -1.00, 213.6, 173.1)">0</text><text xml:space="preserve" font-family="CourierNewPSMT,Courier New" font-size="40.0" fill="#FEFFFF" transform="matrix(1.00, 0.00, -0.00, -1.00, 237.6, 173.1)">0</text><text xml:space="preserve" font-family="CourierNewPSMT,Courier New" font-size="40.0" fill="#FEFFFF" transform="matrix(1.00, 0.00, -0.00, -1.00, 261.6, 173.1)">0</text><text xml:space="preserve" font-family="CourierNewPSMT,Courier New" font-size="40.0" fill="#FEFFFF" transform="matrix(1.00, 0.00, -0.00, -1.00, 285.6, 173.1)">)</text><text xml:space="preserve" font-family="CourierNewPSMT,Courier New" font-size="40.0" fill="#FEFFFF" transform="matrix(1.00, 0.00, -0.00, -1.00, 309.6, 173.1)">;</text><text xml:space="preserve" font-family="Monaco,Monaco" font-size="40.0" fill="#FEFFFF" transform="matrix(1.00, 0.00, -0.00, -1.00, 333.5, 173.1)"> </text><text xml:space="preserve" font-family="CourierNewPSMT,Courier New" font-size="40.0" fill="#FEFFFF" transform="matrix(1.00, 0.00, -0.00, -1.00, 45.5, 128.1)">}</text></g></g></g></svg>