<?xml version="1.0" encoding="UTF-8" standalone="no"?><svg xmlns="http://www.w3.org/2000/svg" xmlns:xlink="http://www.w3.org/1999/xlink" clip-rule="evenodd" stroke-miterlimit="10" viewBox="0 0 1807 530"><desc>SVG generated by Keynote</desc><defs></defs><g transform="matrix(1.00, 0.00, -0.00, -1.00, 0.0, 530.0)"><image xlink:href="../../765C04EB-C185-4995-A01B-9E73E396B734/assets/2FB4E3D75673AAA4903FACC23306E30E.png" width="1805.00" height="525.00" transform="matrix(1.00, 0.00, -0.00, -1.00, 1.0, 526.7)"></image><path d="M 41.0 404.0 L 1766.0 404.0 L 1766.0 126.0 L 41.0 126.0 Z M 41.0 404.0 " fill="#4E4E4E" fill-opacity="0.68"></path><g><clipPath id="clip0x610000ab3680"><path d="M 33.7 118.7 L 1773.3 118.7 L 1773.3 411.3 L 33.7 411.3 Z M 33.7 118.7 "></path></clipPath><g clip-path="url(#clip0x610000ab3680)"><text xml:space="preserve" font-family="CourierNewPSMT,Courier New" font-size="40.0" fill="#FEFFFF" transform="matrix(1.00, 0.00, -0.00, -1.00, 45.0, 367.0)">f</text><text xml:space="preserve" font-family="CourierNewPSMT,Courier New" font-size="40.0" fill="#FEFFFF" transform="matrix(1.00, 0.00, -0.00, -1.00, 69.0, 367.0)">u</text><text xml:space="preserve" font-family="CourierNewPSMT,Courier New" font-size="40.0" fill="#FEFFFF" transform="matrix(1.00, 0.00, -0.00, -1.00, 93.0, 367.0)">n</text><text xml:space="preserve" font-family="CourierNewPSMT,Courier New" font-size="40.0" fill="#FEFFFF" transform="matrix(1.00, 0.00, -0.00, -1.00, 117.0, 367.0)">c</text><text xml:space="preserve" font-family="CourierNewPSMT,Courier New" font-size="40.0" fill="#FEFFFF" transform="matrix(1.00, 0.00, -0.00, -1.00, 141.0, 367.0)">t</text><text xml:space="preserve" font-family="CourierNewPSMT,Courier New" font-size="40.0" fill="#FEFFFF" transform="matrix(1.00, 0.00, -0.00, -1.00, 165.0, 367.0)">i</text><text xml:space="preserve" font-family="CourierNewPSMT,Courier New" font-size="40.0" fill="#FEFFFF" transform="matrix(1.00, 0.00, -0.00, -1.00, 189.0, 367.0)">o</text><text xml:space="preserve" font-family="CourierNewPSMT,Courier New" font-size="40.0" fill="#FEFFFF" transform="matrix(1.00, 0.00, -0.00, -1.00, 213.1, 367.0)">n</text><text xml:space="preserve" font-family="CourierNewPSMT,Courier New" font-size="40.0" fill="#FEFFFF" transform="matrix(1.00, 0.00, -0.00, -1.00, 237.1, 367.0)"> </text><text xml:space="preserve" font-family="CourierNewPSMT,Courier New" font-size="40.0" fill="#FEFFFF" transform="matrix(1.00, 0.00, -0.00, -1.00, 261.1, 367.0)">o</text><text xml:space="preserve" font-family="CourierNewPSMT,Courier New" font-size="40.0" fill="#FEFFFF" transform="matrix(1.00, 0.00, -0.00, -1.00, 285.1, 367.0)">n</text><text xml:space="preserve" font-family="CourierNewPSMT,Courier New" font-size="40.0" fill="#FEFFFF" transform="matrix(1.00, 0.00, -0.00, -1.00, 309.1, 367.0)">L</text><text xml:space="preserve" font-family="CourierNewPSMT,Courier New" font-size="40.0" fill="#FEFFFF" transform="matrix(1.00, 0.00, -0.00, -1.00, 333.1, 367.0)">o</text><text xml:space="preserve" font-family="CourierNewPSMT,Courier New" font-size="40.0" fill="#FEFFFF" transform="matrix(1.00, 0.00, -0.00, -1.00, 357.1, 367.0)">a</text><text xml:space="preserve" font-family="CourierNewPSMT,Courier New" font-size="40.0" fill="#FEFFFF" transform="matrix(1.00, 0.00, -0.00, -1.00, 381.1, 367.0)">d</text><text xml:space="preserve" font-family="CourierNewPSMT,Courier New" font-size="40.0" fill="#FEFFFF" transform="matrix(1.00, 0.00, -0.00, -1.00, 405.1, 367.0)">e</text><text xml:space="preserve" font-family="CourierNewPSMT,Courier New" font-size="40.0" fill="#FEFFFF" transform="matrix(1.00, 0.00, -0.00, -1.00, 429.1, 367.0)">d</text><text xml:space="preserve" font-family="CourierNewPSMT,Courier New" font-size="40.0" fill="#FEFFFF" transform="matrix(1.00, 0.00, -0.00, -1.00, 453.1, 367.0)">(</text><text xml:space="preserve" font-family="CourierNewPSMT,Courier New" font-size="40.0" fill="#FEFFFF" transform="matrix(1.00, 0.00, -0.00, -1.00, 477.1, 367.0)">)</text><text xml:space="preserve" font-family="CourierNewPSMT,Courier New" font-size="40.0" fill="#FEFFFF" transform="matrix(1.00, 0.00, -0.00, -1.00, 501.2, 367.0)"> </text><text xml:space="preserve" font-family="CourierNewPSMT,Courier New" font-size="40.0" fill="#FEFFFF" transform="matrix(1.00, 0.00, -0.00, -1.00, 525.2, 367.0)">{</text><text xml:space="preserve" font-family="Monaco,Monaco" font-size="40.0" fill="#FEFFFF" transform="matrix(1.00, 0.00, -0.00, -1.00, 549.1, 367.0)"> </text><text xml:space="preserve" font-family="CourierNewPSMT,Courier New" font-size="40.0" fill="#FEFFFF" transform="matrix(1.00, 0.00, -0.00, -1.00, 45.0, 322.0)"> </text><text xml:space="preserve" font-family="CourierNewPSMT,Courier New" font-size="40.0" fill="#FEFFFF" transform="matrix(1.00, 0.00, -0.00, -1.00, 69.0, 322.0)"> </text><text xml:space="preserve" font-family="CourierNewPSMT,Courier New" font-size="40.0" fill="#FEFFFF" transform="matrix(1.00, 0.00, -0.00, -1.00, 93.0, 322.0)">v</text><text xml:space="preserve" font-family="CourierNewPSMT,Courier New" font-size="40.0" fill="#FEFFFF" transform="matrix(1.00, 0.00, -0.00, -1.00, 117.0, 322.0)">a</text><text xml:space="preserve" font-family="CourierNewPSMT,Courier New" font-size="40.0" fill="#FEFFFF" transform="matrix(1.00, 0.00, -0.00, -1.00, 141.0, 322.0)">r</text><text xml:space="preserve" font-family="CourierNewPSMT,Courier New" font-size="40.0" fill="#FEFFFF" transform="matrix(1.00, 0.00, -0.00, -1.00, 165.0, 322.0)"> </text><text xml:space="preserve" font-family="CourierNewPSMT,Courier New" font-size="40.0" fill="#FEFFFF" transform="matrix(1.00, 0.00, -0.00, -1.00, 189.0, 322.0)">s</text><text xml:space="preserve" font-family="CourierNewPSMT,Courier New" font-size="40.0" fill="#FEFFFF" transform="matrix(1.00, 0.00, -0.00, -1.00, 213.1, 322.0)">e</text><text xml:space="preserve" font-family="CourierNewPSMT,Courier New" font-size="40.0" fill="#FEFFFF" transform="matrix(1.00, 0.00, -0.00, -1.00, 237.1, 322.0)">l</text><text xml:space="preserve" font-family="CourierNewPSMT,Courier New" font-size="40.0" fill="#FEFFFF" transform="matrix(1.00, 0.00, -0.00, -1.00, 261.1, 322.0)">f</text><text xml:space="preserve" font-family="CourierNewPSMT,Courier New" font-size="40.0" fill="#FEFFFF" transform="matrix(1.00, 0.00, -0.00, -1.00, 285.1, 322.0)"> </text><text xml:space="preserve" font-family="CourierNewPSMT,Courier New" font-size="40.0" fill="#FEFFFF" transform="matrix(1.00, 0.00, -0.00, -1.00, 309.1, 322.0)">=</text><text xml:space="preserve" font-family="CourierNewPSMT,Courier New" font-size="40.0" fill="#FEFFFF" transform="matrix(1.00, 0.00, -0.00, -1.00, 333.1, 322.0)"> </text><text xml:space="preserve" font-family="CourierNewPSMT,Courier New" font-size="40.0" fill="#FEFFFF" transform="matrix(1.00, 0.00, -0.00, -1.00, 357.1, 322.0)">t</text><text xml:space="preserve" font-family="CourierNewPSMT,Courier New" font-size="40.0" fill="#FEFFFF" transform="matrix(1.00, 0.00, -0.00, -1.00, 381.1, 322.0)">h</text><text xml:space="preserve" font-family="CourierNewPSMT,Courier New" font-size="40.0" fill="#FEFFFF" transform="matrix(1.00, 0.00, -0.00, -1.00, 405.1, 322.0)">i</text><text xml:space="preserve" font-family="CourierNewPSMT,Courier New" font-size="40.0" fill="#FEFFFF" transform="matrix(1.00, 0.00, -0.00, -1.00, 429.1, 322.0)">s</text><text xml:space="preserve" font-family="CourierNewPSMT,Courier New" font-size="40.0" fill="#FEFFFF" transform="matrix(1.00, 0.00, -0.00, -1.00, 453.1, 322.0)">;</text><text xml:space="preserve" font-family="Monaco,Monaco" font-size="40.0" fill="#FEFFFF" transform="matrix(1.00, 0.00, -0.00, -1.00, 477.1, 322.0)"> </text><text xml:space="preserve" font-family="CourierNewPSMT,Courier New" font-size="40.0" fill="#FEFFFF" transform="matrix(1.00, 0.00, -0.00, -1.00, 45.0, 277.0)"> </text><text xml:space="preserve" font-family="CourierNewPSMT,Courier New" font-size="40.0" fill="#FEFFFF" transform="matrix(1.00, 0.00, -0.00, -1.00, 69.0, 277.0)"> </text><text xml:space="preserve" font-family="CourierNewPSMT,Courier New" font-size="40.0" fill="#FEFFFF" transform="matrix(1.00, 0.00, -0.00, -1.00, 93.0, 277.0)">$</text><text xml:space="preserve" font-family="CourierNewPSMT,Courier New" font-size="40.0" fill="#FEFFFF" transform="matrix(1.00, 0.00, -0.00, -1.00, 117.0, 277.0)">t</text><text xml:space="preserve" font-family="CourierNewPSMT,Courier New" font-size="40.0" fill="#FEFFFF" transform="matrix(1.00, 0.00, -0.00, -1.00, 141.0, 277.0)">i</text><text xml:space="preserve" font-family="CourierNewPSMT,Courier New" font-size="40.0" fill="#FEFFFF" transform="matrix(1.00, 0.00, -0.00, -1.00, 165.0, 277.0)">m</text><text xml:space="preserve" font-family="CourierNewPSMT,Courier New" font-size="40.0" fill="#FEFFFF" transform="matrix(1.00, 0.00, -0.00, -1.00, 189.0, 277.0)">e</text><text xml:space="preserve" font-family="CourierNewPSMT,Courier New" font-size="40.0" fill="#FEFFFF" transform="matrix(1.00, 0.00, -0.00, -1.00, 213.1, 277.0)">o</text><text xml:space="preserve" font-family="CourierNewPSMT,Courier New" font-size="40.0" fill="#FEFFFF" transform="matrix(1.00, 0.00, -0.00, -1.00, 237.1, 277.0)">u</text><text xml:space="preserve" font-family="CourierNewPSMT,Courier New" font-size="40.0" fill="#FEFFFF" transform="matrix(1.00, 0.00, -0.00, -1.00, 261.1, 277.0)">t</text><text xml:space="preserve" font-family="CourierNewPSMT,Courier New" font-size="40.0" fill="#FEFFFF" transform="matrix(1.00, 0.00, -0.00, -1.00, 285.1, 277.0)">(</text><text xml:space="preserve" font-family="CourierNewPSMT,Courier New" font-size="40.0" fill="#FEFFFF" transform="matrix(1.00, 0.00, -0.00, -1.00, 309.1, 277.0)">f</text><text xml:space="preserve" font-family="CourierNewPSMT,Courier New" font-size="40.0" fill="#FEFFFF" transform="matrix(1.00, 0.00, -0.00, -1.00, 333.1, 277.0)">u</text><text xml:space="preserve" font-family="CourierNewPSMT,Courier New" font-size="40.0" fill="#FEFFFF" transform="matrix(1.00, 0.00, -0.00, -1.00, 357.1, 277.0)">n</text><text xml:space="preserve" font-family="CourierNewPSMT,Courier New" font-size="40.0" fill="#FEFFFF" transform="matrix(1.00, 0.00, -0.00, -1.00, 381.1, 277.0)">c</text><text xml:space="preserve" font-family="CourierNewPSMT,Courier New" font-size="40.0" fill="#FEFFFF" transform="matrix(1.00, 0.00, -0.00, -1.00, 405.1, 277.0)">t</text><text xml:space="preserve" font-family="CourierNewPSMT,Courier New" font-size="40.0" fill="#FEFFFF" transform="matrix(1.00, 0.00, -0.00, -1.00, 429.1, 277.0)">i</text><text xml:space="preserve" font-family="CourierNewPSMT,Courier New" font-size="40.0" fill="#FEFFFF" transform="matrix(1.00, 0.00, -0.00, -1.00, 453.1, 277.0)">o</text><text xml:space="preserve" font-family="CourierNewPSMT,Courier New" font-size="40.0" fill="#FEFFFF" transform="matrix(1.00, 0.00, -0.00, -1.00, 477.1, 277.0)">n</text><text xml:space="preserve" font-family="CourierNewPSMT,Courier New" font-size="40.0" fill="#FEFFFF" transform="matrix(1.00, 0.00, -0.00, -1.00, 501.2, 277.0)">(</text><text xml:space="preserve" font-family="CourierNewPSMT,Courier New" font-size="40.0" fill="#FEFFFF" transform="matrix(1.00, 0.00, -0.00, -1.00, 525.2, 277.0)">)</text><text xml:space="preserve" font-family="CourierNewPSMT,Courier New" font-size="40.0" fill="#FEFFFF" transform="matrix(1.00, 0.00, -0.00, -1.00, 549.2, 277.0)"> </text><text xml:space="preserve" font-family="CourierNewPSMT,Courier New" font-size="40.0" fill="#FEFFFF" transform="matrix(1.00, 0.00, -0.00, -1.00, 573.2, 277.0)">{</text><text xml:space="preserve" font-family="Monaco,Monaco" font-size="40.0" fill="#FEFFFF" transform="matrix(1.00, 0.00, -0.00, -1.00, 597.1, 277.0)"> </text><text xml:space="preserve" font-family="CourierNewPSMT,Courier New" font-size="40.0" fill="#FEFFFF" transform="matrix(1.00, 0.00, -0.00, -1.00, 45.0, 232.0)"> </text><text xml:space="preserve" font-family="CourierNewPSMT,Courier New" font-size="40.0" fill="#FEFFFF" transform="matrix(1.00, 0.00, -0.00, -1.00, 69.0, 232.0)"> </text><text xml:space="preserve" font-family="CourierNewPSMT,Courier New" font-size="40.0" fill="#FEFFFF" transform="matrix(1.00, 0.00, -0.00, -1.00, 93.0, 232.0)"> </text><text xml:space="preserve" font-family="CourierNewPSMT,Courier New" font-size="40.0" fill="#FEFFFF" transform="matrix(1.00, 0.00, -0.00, -1.00, 117.0, 232.0)"> </text><text xml:space="preserve" font-family="CourierNewPSMT,Courier New" font-size="40.0" fill="#FEFFFF" transform="matrix(1.00, 0.00, -0.00, -1.00, 141.0, 232.0)">s</text><text xml:space="preserve" font-family="CourierNewPSMT,Courier New" font-size="40.0" fill="#FEFFFF" transform="matrix(1.00, 0.00, -0.00, -1.00, 165.0, 232.0)">e</text><text xml:space="preserve" font-family="CourierNewPSMT,Courier New" font-size="40.0" fill="#FEFFFF" transform="matrix(1.00, 0.00, -0.00, -1.00, 189.0, 232.0)">l</text><text xml:space="preserve" font-family="CourierNewPSMT,Courier New" font-size="40.0" fill="#FEFFFF" transform="matrix(1.00, 0.00, -0.00, -1.00, 213.1, 232.0)">f</text><text xml:space="preserve" font-family="CourierNewPSMT,Courier New" font-size="40.0" fill="#FEFFFF" transform="matrix(1.00, 0.00, -0.00, -1.00, 237.1, 232.0)">.</text><text xml:space="preserve" font-family="CourierNewPSMT,Courier New" font-size="40.0" fill="#FEFFFF" transform="matrix(1.00, 0.00, -0.00, -1.00, 261.1, 232.0)">s</text><text xml:space="preserve" font-family="CourierNewPSMT,Courier New" font-size="40.0" fill="#FEFFFF" transform="matrix(1.00, 0.00, -0.00, -1.00, 285.1, 232.0)">h</text><text xml:space="preserve" font-family="CourierNewPSMT,Courier New" font-size="40.0" fill="#FEFFFF" transform="matrix(1.00, 0.00, -0.00, -1.00, 309.1, 232.0)">o</text><text xml:space="preserve" font-family="CourierNewPSMT,Courier New" font-size="40.0" fill="#FEFFFF" transform="matrix(1.00, 0.00, -0.00, -1.00, 333.1, 232.0)">w</text><text xml:space="preserve" font-family="CourierNewPSMT,Courier New" font-size="40.0" fill="#FEFFFF" transform="matrix(1.00, 0.00, -0.00, -1.00, 357.1, 232.0)">M</text><text xml:space="preserve" font-family="CourierNewPSMT,Courier New" font-size="40.0" fill="#FEFFFF" transform="matrix(1.00, 0.00, -0.00, -1.00, 381.1, 232.0)">e</text><text xml:space="preserve" font-family="CourierNewPSMT,Courier New" font-size="40.0" fill="#FEFFFF" transform="matrix(1.00, 0.00, -0.00, -1.00, 405.1, 232.0)">s</text><text xml:space="preserve" font-family="CourierNewPSMT,Courier New" font-size="40.0" fill="#FEFFFF" transform="matrix(1.00, 0.00, -0.00, -1.00, 429.1, 232.0)">s</text><text xml:space="preserve" font-family="CourierNewPSMT,Courier New" font-size="40.0" fill="#FEFFFF" transform="matrix(1.00, 0.00, -0.00, -1.00, 453.1, 232.0)">a</text><text xml:space="preserve" font-family="CourierNewPSMT,Courier New" font-size="40.0" fill="#FEFFFF" transform="matrix(1.00, 0.00, -0.00, -1.00, 477.1, 232.0)">g</text><text xml:space="preserve" font-family="CourierNewPSMT,Courier New" font-size="40.0" fill="#FEFFFF" transform="matrix(1.00, 0.00, -0.00, -1.00, 501.2, 232.0)">e</text><text xml:space="preserve" font-family="CourierNewPSMT,Courier New" font-size="40.0" fill="#FEFFFF" transform="matrix(1.00, 0.00, -0.00, -1.00, 525.2, 232.0)">(</text><text xml:space="preserve" font-family="CourierNewPSMT,Courier New" font-size="40.0" fill="#FEFFFF" transform="matrix(1.00, 0.00, -0.00, -1.00, 549.2, 232.0)">"</text><text xml:space="preserve" font-family="CourierNewPSMT,Courier New" font-size="40.0" fill="#FEFFFF" transform="matrix(1.00, 0.00, -0.00, -1.00, 573.2, 232.0)">T</text><text xml:space="preserve" font-family="CourierNewPSMT,Courier New" font-size="40.0" fill="#FEFFFF" transform="matrix(1.00, 0.00, -0.00, -1.00, 597.2, 232.0)">i</text><text xml:space="preserve" font-family="CourierNewPSMT,Courier New" font-size="40.0" fill="#FEFFFF" transform="matrix(1.00, 0.00, -0.00, -1.00, 621.2, 232.0)">m</text><text xml:space="preserve" font-family="CourierNewPSMT,Courier New" font-size="40.0" fill="#FEFFFF" transform="matrix(1.00, 0.00, -0.00, -1.00, 645.2, 232.0)">e</text><text xml:space="preserve" font-family="CourierNewPSMT,Courier New" font-size="40.0" fill="#FEFFFF" transform="matrix(1.00, 0.00, -0.00, -1.00, 669.2, 232.0)">'</text><text xml:space="preserve" font-family="CourierNewPSMT,Courier New" font-size="40.0" fill="#FEFFFF" transform="matrix(1.00, 0.00, -0.00, -1.00, 693.2, 232.0)">s</text><text xml:space="preserve" font-family="CourierNewPSMT,Courier New" font-size="40.0" fill="#FEFFFF" transform="matrix(1.00, 0.00, -0.00, -1.00, 717.2, 232.0)"> </text><text xml:space="preserve" font-family="CourierNewPSMT,Courier New" font-size="40.0" fill="#FEFFFF" transform="matrix(1.00, 0.00, -0.00, -1.00, 741.2, 232.0)">U</text><text xml:space="preserve" font-family="CourierNewPSMT,Courier New" font-size="40.0" fill="#FEFFFF" transform="matrix(1.00, 0.00, -0.00, -1.00, 765.2, 232.0)">p</text><text xml:space="preserve" font-family="CourierNewPSMT,Courier New" font-size="40.0" fill="#FEFFFF" transform="matrix(1.00, 0.00, -0.00, -1.00, 789.2, 232.0)">!</text><text xml:space="preserve" font-family="CourierNewPSMT,Courier New" font-size="40.0" fill="#FEFFFF" transform="matrix(1.00, 0.00, -0.00, -1.00, 813.3, 232.0)">"</text><text xml:space="preserve" font-family="CourierNewPSMT,Courier New" font-size="40.0" fill="#FEFFFF" transform="matrix(1.00, 0.00, -0.00, -1.00, 837.3, 232.0)">)</text><text xml:space="preserve" font-family="CourierNewPSMT,Courier New" font-size="40.0" fill="#FEFFFF" transform="matrix(1.00, 0.00, -0.00, -1.00, 861.3, 232.0)">;</text><text xml:space="preserve" font-family="Monaco,Monaco" font-size="40.0" fill="#FEFFFF" transform="matrix(1.00, 0.00, -0.00, -1.00, 885.1, 232.0)"> </text><text xml:space="preserve" font-family="CourierNewPSMT,Courier New" font-size="40.0" fill="#FEFFFF" transform="matrix(1.00, 0.00, -0.00, -1.00, 45.0, 187.0)"> </text><text xml:space="preserve" font-family="CourierNewPSMT,Courier New" font-size="40.0" fill="#FEFFFF" transform="matrix(1.00, 0.00, -0.00, -1.00, 69.0, 187.0)"> </text><text xml:space="preserve" font-family="CourierNewPSMT,Courier New" font-size="40.0" fill="#FEFFFF" transform="matrix(1.00, 0.00, -0.00, -1.00, 93.0, 187.0)">}</text><text xml:space="preserve" font-family="CourierNewPSMT,Courier New" font-size="40.0" fill="#FEFFFF" transform="matrix(1.00, 0.00, -0.00, -1.00, 117.0, 187.0)">,</text><text xml:space="preserve" font-family="CourierNewPSMT,Courier New" font-size="40.0" fill="#FEFFFF" transform="matrix(1.00, 0.00, -0.00, -1.00, 141.0, 187.0)"> </text><text xml:space="preserve" font-family="CourierNewPSMT,Courier New" font-size="40.0" fill="#FEFFFF" transform="matrix(1.00, 0.00, -0.00, -1.00, 165.0, 187.0)">1</text><text xml:space="preserve" font-family="CourierNewPSMT,Courier New" font-size="40.0" fill="#FEFFFF" transform="matrix(1.00, 0.00, -0.00, -1.00, 189.0, 187.0)">0</text><text xml:space="preserve" font-family="CourierNewPSMT,Courier New" font-size="40.0" fill="#FEFFFF" transform="matrix(1.00, 0.00, -0.00, -1.00, 213.1, 187.0)">0</text><text xml:space="preserve" font-family="CourierNewPSMT,Courier New" font-size="40.0" fill="#FEFFFF" transform="matrix(1.00, 0.00, -0.00, -1.00, 237.1, 187.0)">0</text><text xml:space="preserve" font-family="CourierNewPSMT,Courier New" font-size="40.0" fill="#FEFFFF" transform="matrix(1.00, 0.00, -0.00, -1.00, 261.1, 187.0)">0</text><text xml:space="preserve" font-family="CourierNewPSMT,Courier New" font-size="40.0" fill="#FEFFFF" transform="matrix(1.00, 0.00, -0.00, -1.00, 285.1, 187.0)">)</text><text xml:space="preserve" font-family="CourierNewPSMT,Courier New" font-size="40.0" fill="#FEFFFF" transform="matrix(1.00, 0.00, -0.00, -1.00, 309.1, 187.0)">;</text><text xml:space="preserve" font-family="Monaco,Monaco" font-size="40.0" fill="#FEFFFF" transform="matrix(1.00, 0.00, -0.00, -1.00, 333.0, 187.0)"> </text><text xml:space="preserve" font-family="CourierNewPSMT,Courier New" font-size="40.0" fill="#FEFFFF" transform="matrix(1.00, 0.00, -0.00, -1.00, 45.0, 142.0)">}</text></g></g></g></svg>