<?xml version="1.0" encoding="UTF-8" standalone="no"?><svg xmlns="http://www.w3.org/2000/svg" xmlns:xlink="http://www.w3.org/1999/xlink" clip-rule="evenodd" stroke-miterlimit="10" viewBox="0 0 1694 64"><desc>SVG generated by Keynote</desc><defs></defs><g transform="matrix(1.00, 0.00, -0.00, -1.00, 0.0, 64.0)"><text xml:space="preserve" font-family="Avenir-Black,Avenir" font-weight="bold" font-size="81.7" fill="#FEFFFF" transform="matrix(1.00, 0.00, -0.00, -1.00, 2.0, 2.9)">A</text><text xml:space="preserve" font-family="Avenir-Black,Avenir" font-weight="bold" font-size="81.7" fill="#FEFFFF" transform="matrix(1.00, 0.00, -0.00, -1.00, 75.6, 2.9)">R</text><text xml:space="preserve" font-family="Avenir-Black,Avenir" font-weight="bold" font-size="81.7" fill="#FEFFFF" transform="matrix(1.00, 0.00, -0.00, -1.00, 141.6, 2.9)">R</text><text xml:space="preserve" font-family="Avenir-Black,Avenir" font-weight="bold" font-size="81.7" fill="#FEFFFF" transform="matrix(1.00, 0.00, -0.00, -1.00, 207.6, 2.9)">O</text><text xml:space="preserve" font-family="Avenir-Black,Avenir" font-weight="bold" font-size="81.7" fill="#FEFFFF" transform="matrix(1.00, 0.00, -0.00, -1.00, 288.7, 2.9)">W</text><text xml:space="preserve" font-family="Avenir-Black,Avenir" font-weight="bold" font-size="81.7" fill="#FEFFFF" transform="matrix(1.00, 0.00, -0.00, -1.00, 383.5, 2.9)"> </text><text xml:space="preserve" font-family="Avenir-Black,Avenir" font-weight="bold" font-size="81.7" fill="#FEFFFF" transform="matrix(1.00, 0.00, -0.00, -1.00, 420.7, 2.9)">F</text><text xml:space="preserve" font-family="Avenir-Black,Avenir" font-weight="bold" font-size="81.7" fill="#FEFFFF" transform="matrix(1.00, 0.00, -0.00, -1.00, 482.2, 2.9)">U</text><text xml:space="preserve" font-family="Avenir-Black,Avenir" font-weight="bold" font-size="81.7" fill="#FEFFFF" transform="matrix(1.00, 0.00, -0.00, -1.00, 555.8, 2.9)">N</text><text xml:space="preserve" font-family="Avenir-Black,Avenir" font-weight="bold" font-size="81.7" fill="#FEFFFF" transform="matrix(1.00, 0.00, -0.00, -1.00, 635.5, 2.9)">C</text><text xml:space="preserve" font-family="Avenir-Black,Avenir" font-weight="bold" font-size="81.7" fill="#FEFFFF" transform="matrix(1.00, 0.00, -0.00, -1.00, 704.5, 2.9)">T</text><text xml:space="preserve" font-family="Avenir-Black,Avenir" font-weight="bold" font-size="81.7" fill="#FEFFFF" transform="matrix(1.00, 0.00, -0.00, -1.00, 764.5, 2.9)">I</text><text xml:space="preserve" font-family="Avenir-Black,Avenir" font-weight="bold" font-size="81.7" fill="#FEFFFF" transform="matrix(1.00, 0.00, -0.00, -1.00, 801.8, 2.9)">O</text><text xml:space="preserve" font-family="Avenir-Black,Avenir" font-weight="bold" font-size="81.7" fill="#FEFFFF" transform="matrix(1.00, 0.00, -0.00, -1.00, 882.8, 2.9)">N</text><text xml:space="preserve" font-family="Avenir-Black,Avenir" font-weight="bold" font-size="81.7" fill="#FEFFFF" transform="matrix(1.00, 0.00, -0.00, -1.00, 962.5, 2.9)"> </text><text xml:space="preserve" font-family="Avenir-Black,Avenir" font-weight="bold" font-size="81.7" fill="#FEFFFF" transform="matrix(1.00, 0.00, -0.00, -1.00, 999.7, 2.9)">E</text><text xml:space="preserve" font-family="Avenir-Black,Avenir" font-weight="bold" font-size="81.7" fill="#FEFFFF" transform="matrix(1.00, 0.00, -0.00, -1.00, 1064.3, 2.9)">X</text><text xml:space="preserve" font-family="Avenir-Black,Avenir" font-weight="bold" font-size="81.7" fill="#FEFFFF" transform="matrix(1.00, 0.00, -0.00, -1.00, 1136.3, 2.9)">P</text><text xml:space="preserve" font-family="Avenir-Black,Avenir" font-weight="bold" font-size="81.7" fill="#FEFFFF" transform="matrix(1.00, 0.00, -0.00, -1.00, 1200.9, 2.9)">R</text><text xml:space="preserve" font-family="Avenir-Black,Avenir" font-weight="bold" font-size="81.7" fill="#FEFFFF" transform="matrix(1.00, 0.00, -0.00, -1.00, 1266.9, 2.9)">E</text><text xml:space="preserve" font-family="Avenir-Black,Avenir" font-weight="bold" font-size="81.7" fill="#FEFFFF" transform="matrix(1.00, 0.00, -0.00, -1.00, 1331.4, 2.9)">S</text><text xml:space="preserve" font-family="Avenir-Black,Avenir" font-weight="bold" font-size="81.7" fill="#FEFFFF" transform="matrix(1.00, 0.00, -0.00, -1.00, 1391.4, 2.9)">S</text><text xml:space="preserve" font-family="Avenir-Black,Avenir" font-weight="bold" font-size="81.7" fill="#FEFFFF" transform="matrix(1.00, 0.00, -0.00, -1.00, 1451.4, 2.9)">I</text><text xml:space="preserve" font-family="Avenir-Black,Avenir" font-weight="bold" font-size="81.7" fill="#FEFFFF" transform="matrix(1.00, 0.00, -0.00, -1.00, 1488.6, 2.9)">O</text><text xml:space="preserve" font-family="Avenir-Black,Avenir" font-weight="bold" font-size="81.7" fill="#FEFFFF" transform="matrix(1.00, 0.00, -0.00, -1.00, 1569.7, 2.9)">N</text><text xml:space="preserve" font-family="Avenir-Black,Avenir" font-weight="bold" font-size="81.7" fill="#FEFFFF" transform="matrix(1.00, 0.00, -0.00, -1.00, 1649.3, 2.9)">S</text></g></svg>