<?xml version="1.0" encoding="UTF-8" standalone="no"?><svg xmlns="http://www.w3.org/2000/svg" xmlns:xlink="http://www.w3.org/1999/xlink" clip-rule="evenodd" stroke-miterlimit="10" viewBox="0 0 1920 1080"><desc>SVG generated by Keynote</desc><defs></defs><g transform="matrix(1.00, 0.00, -0.00, -1.00, 0.0, 1080.0)"><path d="M 0.0 1080.0 L 1920.0 1080.0 L 1920.0 0.0 L 0.0 0.0 Z M 0.0 1080.0 " fill="#000000"></path><g opacity="0.60"><g><clipPath id="clip0x6180008b9f20"><path d="M 0.0 1080.0 L 1920.0 1080.0 L 1920.0 0.0 L 0.0 0.0 Z M 0.0 1080.0 "></path></clipPath><g clip-path="url(#clip0x6180008b9f20)"><g><clipPath id="clip0x6180008baca0"><path d="M 0.0 0.0 L 1920.0 0.0 L 1920.0 1080.0 L 0.0 1080.0 Z M 0.0 0.0 "></path></clipPath><g clip-path="url(#clip0x6180008baca0)"><image xlink:href="DCB9BB85BEF69C7BF67578ED1553EF5B.jpeg" width="2294.00" height="1536.00" transform="matrix(0.84, 0.00, -0.00, -0.84, 0.0, 1183.0)"></image></g></g></g></g></g><text xml:space="preserve" font-family="Avenir-Black,Avenir" font-weight="bold" font-size="112.8" fill="#FEFFFF" transform="matrix(1.00, 0.00, -0.00, -1.00, 101.5, 504.3)">T</text><text xml:space="preserve" font-family="Avenir-Black,Avenir" font-weight="bold" font-size="112.8" fill="#FEFFFF" transform="matrix(1.00, 0.00, -0.00, -1.00, 184.3, 504.3)">Y</text><text xml:space="preserve" font-family="Avenir-Black,Avenir" font-weight="bold" font-size="112.8" fill="#FEFFFF" transform="matrix(1.00, 0.00, -0.00, -1.00, 275.4, 504.3)">P</text><text xml:space="preserve" font-family="Avenir-Black,Avenir" font-weight="bold" font-size="112.8" fill="#FEFFFF" transform="matrix(1.00, 0.00, -0.00, -1.00, 364.5, 504.3)">E</text><text xml:space="preserve" font-family="Avenir-Black,Avenir" font-weight="bold" font-size="112.8" fill="#FEFFFF" transform="matrix(1.00, 0.00, -0.00, -1.00, 453.7, 504.3)">S</text></g></svg>