<?xml version="1.0" encoding="UTF-8" standalone="no"?><svg xmlns="http://www.w3.org/2000/svg" xmlns:xlink="http://www.w3.org/1999/xlink" clip-rule="evenodd" stroke-miterlimit="10" viewBox="0 0 1920 1080"><desc>SVG generated by Keynote</desc><defs></defs><g transform="matrix(1.00, 0.00, -0.00, -1.00, 0.0, 1080.0)"><path d="M 0.0 1080.0 L 1920.0 1080.0 L 1920.0 0.0 L 0.0 0.0 Z M 0.0 1080.0 " fill="#000000"></path><g opacity="0.60"><g><clipPath id="clip0x6000006bc5c0"><path d="M 0.0 1080.0 L 1920.0 1080.0 L 1920.0 0.0 L 0.0 0.0 Z M 0.0 1080.0 "></path></clipPath><g clip-path="url(#clip0x6000006bc5c0)"><g><clipPath id="clip0x6000006bbb40"><path d="M 0.0 0.0 L 1920.0 0.0 L 1920.0 1080.0 L 0.0 1080.0 Z M 0.0 0.0 "></path></clipPath><g clip-path="url(#clip0x6000006bbb40)"><image xlink:href="../../C6E3D4F5-542F-4091-B3C5-E05462D4C13F/assets/53F46390A28901724BA06E904584EF77.jpeg" width="2592.00" height="1936.00" transform="matrix(0.74, 0.00, -0.00, -0.74, 0.0, 1257.0)"></image></g></g></g></g></g><image xlink:href="../../C6E3D4F5-542F-4091-B3C5-E05462D4C13F/assets/2BC0DF4843F2199EF59B6B6F6C84BF5C.png" width="1427.00" height="95.00" transform="matrix(1.00, 0.00, -0.00, -1.00, 96.0, 940.0)"></image><text xml:space="preserve" font-family="Avenir-Black,Avenir" font-weight="bold" font-size="112.8" fill="#FEFFFF" transform="matrix(1.00, 0.00, -0.00, -1.00, 101.0, 852.3)">T</text><text xml:space="preserve" font-family="Avenir-Black,Avenir" font-weight="bold" font-size="112.8" fill="#FEFFFF" transform="matrix(1.00, 0.00, -0.00, -1.00, 183.8, 852.3)">Y</text><text xml:space="preserve" font-family="Avenir-Black,Avenir" font-weight="bold" font-size="112.8" fill="#FEFFFF" transform="matrix(1.00, 0.00, -0.00, -1.00, 274.9, 852.3)">P</text><text xml:space="preserve" font-family="Avenir-Black,Avenir" font-weight="bold" font-size="112.8" fill="#FEFFFF" transform="matrix(1.00, 0.00, -0.00, -1.00, 364.0, 852.3)">E</text><text xml:space="preserve" font-family="Avenir-Black,Avenir" font-weight="bold" font-size="112.8" fill="#FEFFFF" transform="matrix(1.00, 0.00, -0.00, -1.00, 453.2, 852.3)"> </text><text xml:space="preserve" font-family="Avenir-Black,Avenir" font-weight="bold" font-size="112.8" fill="#FEFFFF" transform="matrix(1.00, 0.00, -0.00, -1.00, 504.6, 852.3)">A</text><text xml:space="preserve" font-family="Avenir-Black,Avenir" font-weight="bold" font-size="112.8" fill="#FEFFFF" transform="matrix(1.00, 0.00, -0.00, -1.00, 606.2, 852.3)">N</text><text xml:space="preserve" font-family="Avenir-Black,Avenir" font-weight="bold" font-size="112.8" fill="#FEFFFF" transform="matrix(1.00, 0.00, -0.00, -1.00, 716.2, 852.3)">N</text><text xml:space="preserve" font-family="Avenir-Black,Avenir" font-weight="bold" font-size="112.8" fill="#FEFFFF" transform="matrix(1.00, 0.00, -0.00, -1.00, 826.2, 852.3)">O</text><text xml:space="preserve" font-family="Avenir-Black,Avenir" font-weight="bold" font-size="112.8" fill="#FEFFFF" transform="matrix(1.00, 0.00, -0.00, -1.00, 938.1, 852.3)">T</text><text xml:space="preserve" font-family="Avenir-Black,Avenir" font-weight="bold" font-size="112.8" fill="#FEFFFF" transform="matrix(1.00, 0.00, -0.00, -1.00, 1010.5, 852.3)">A</text><text xml:space="preserve" font-family="Avenir-Black,Avenir" font-weight="bold" font-size="112.8" fill="#FEFFFF" transform="matrix(1.00, 0.00, -0.00, -1.00, 1101.8, 852.3)">T</text><text xml:space="preserve" font-family="Avenir-Black,Avenir" font-weight="bold" font-size="112.8" fill="#FEFFFF" transform="matrix(1.00, 0.00, -0.00, -1.00, 1184.6, 852.3)">I</text><text xml:space="preserve" font-family="Avenir-Black,Avenir" font-weight="bold" font-size="112.8" fill="#FEFFFF" transform="matrix(1.00, 0.00, -0.00, -1.00, 1236.0, 852.3)">O</text><text xml:space="preserve" font-family="Avenir-Black,Avenir" font-weight="bold" font-size="112.8" fill="#FEFFFF" transform="matrix(1.00, 0.00, -0.00, -1.00, 1347.9, 852.3)">N</text><text xml:space="preserve" font-family="Avenir-Black,Avenir" font-weight="bold" font-size="112.8" fill="#FEFFFF" transform="matrix(1.00, 0.00, -0.00, -1.00, 1457.9, 852.3)">S</text><image xlink:href="../../C6E3D4F5-542F-4091-B3C5-E05462D4C13F/assets/D1E732372862E4ECAFC6A77A3F877D0B.png" width="1805.00" height="506.00" transform="matrix(1.00, 0.00, -0.00, -1.00, 67.9, 792.1)"></image><path d="M 108.0 673.0 L 1833.0 673.0 L 1833.0 407.0 L 108.0 407.0 Z M 107.9 673.0 " fill="#4E4E4E" fill-opacity="0.68"></path><g><clipPath id="clip0x6080004bc6e0"><path d="M 90.3 389.5 L 1850.4 389.5 L 1850.4 690.5 L 90.3 690.5 Z M 90.3 389.5 "></path></clipPath><g clip-path="url(#clip0x6080004bc6e0)"><text xml:space="preserve" font-family="CourierNewPSMT,Courier New" font-size="76.0" fill="#FEFFFF" transform="matrix(1.00, 0.00, -0.00, -1.00, 111.9, 605.8)">f</text><text xml:space="preserve" font-family="CourierNewPSMT,Courier New" font-size="76.0" fill="#FEFFFF" transform="matrix(1.00, 0.00, -0.00, -1.00, 157.5, 605.8)">u</text><text xml:space="preserve" font-family="CourierNewPSMT,Courier New" font-size="76.0" fill="#FEFFFF" transform="matrix(1.00, 0.00, -0.00, -1.00, 203.1, 605.8)">n</text><text xml:space="preserve" font-family="CourierNewPSMT,Courier New" font-size="76.0" fill="#FEFFFF" transform="matrix(1.00, 0.00, -0.00, -1.00, 248.7, 605.8)">c</text><text xml:space="preserve" font-family="CourierNewPSMT,Courier New" font-size="76.0" fill="#FEFFFF" transform="matrix(1.00, 0.00, -0.00, -1.00, 294.3, 605.8)">t</text><text xml:space="preserve" font-family="CourierNewPSMT,Courier New" font-size="76.0" fill="#FEFFFF" transform="matrix(1.00, 0.00, -0.00, -1.00, 339.9, 605.8)">i</text><text xml:space="preserve" font-family="CourierNewPSMT,Courier New" font-size="76.0" fill="#FEFFFF" transform="matrix(1.00, 0.00, -0.00, -1.00, 385.5, 605.8)">o</text><text xml:space="preserve" font-family="CourierNewPSMT,Courier New" font-size="76.0" fill="#FEFFFF" transform="matrix(1.00, 0.00, -0.00, -1.00, 431.2, 605.8)">n</text><text xml:space="preserve" font-family="CourierNewPSMT,Courier New" font-size="76.0" fill="#FEFFFF" transform="matrix(1.00, 0.00, -0.00, -1.00, 476.8, 605.8)"> </text><text xml:space="preserve" font-family="CourierNewPSMT,Courier New" font-size="76.0" fill="#FEFFFF" transform="matrix(1.00, 0.00, -0.00, -1.00, 522.4, 605.8)">a</text><text xml:space="preserve" font-family="CourierNewPSMT,Courier New" font-size="76.0" fill="#FEFFFF" transform="matrix(1.00, 0.00, -0.00, -1.00, 568.0, 605.8)">d</text><text xml:space="preserve" font-family="CourierNewPSMT,Courier New" font-size="76.0" fill="#FEFFFF" transform="matrix(1.00, 0.00, -0.00, -1.00, 613.6, 605.8)">d</text><text xml:space="preserve" font-family="CourierNewPSMT,Courier New" font-size="76.0" fill="#FEFFFF" transform="matrix(1.00, 0.00, -0.00, -1.00, 659.2, 605.8)">(</text><text xml:space="preserve" font-family="CourierNewPSMT,Courier New" font-size="76.0" fill="#FEFFFF" transform="matrix(1.00, 0.00, -0.00, -1.00, 704.8, 605.8)">a</text><text xml:space="preserve" font-family="CourierNewPSMT,Courier New" font-size="76.0" fill="#FEFFFF" transform="matrix(1.00, 0.00, -0.00, -1.00, 750.5, 605.8)">:</text><text xml:space="preserve" font-family="CourierNewPSMT,Courier New" font-size="76.0" fill="#FEFFFF" transform="matrix(1.00, 0.00, -0.00, -1.00, 796.1, 605.8)"> </text><text xml:space="preserve" font-family="CourierNewPSMT,Courier New" font-size="76.0" fill="#FEFFFF" transform="matrix(1.00, 0.00, -0.00, -1.00, 841.7, 605.8)">n</text><text xml:space="preserve" font-family="CourierNewPSMT,Courier New" font-size="76.0" fill="#FEFFFF" transform="matrix(1.00, 0.00, -0.00, -1.00, 887.3, 605.8)">u</text><text xml:space="preserve" font-family="CourierNewPSMT,Courier New" font-size="76.0" fill="#FEFFFF" transform="matrix(1.00, 0.00, -0.00, -1.00, 932.9, 605.8)">m</text><text xml:space="preserve" font-family="CourierNewPSMT,Courier New" font-size="76.0" fill="#FEFFFF" transform="matrix(1.00, 0.00, -0.00, -1.00, 978.5, 605.8)">b</text><text xml:space="preserve" font-family="CourierNewPSMT,Courier New" font-size="76.0" fill="#FEFFFF" transform="matrix(1.00, 0.00, -0.00, -1.00, 1024.2, 605.8)">e</text><text xml:space="preserve" font-family="CourierNewPSMT,Courier New" font-size="76.0" fill="#FEFFFF" transform="matrix(1.00, 0.00, -0.00, -1.00, 1069.8, 605.8)">r</text><text xml:space="preserve" font-family="CourierNewPSMT,Courier New" font-size="76.0" fill="#FEFFFF" transform="matrix(1.00, 0.00, -0.00, -1.00, 1115.4, 605.8)">,</text><text xml:space="preserve" font-family="CourierNewPSMT,Courier New" font-size="76.0" fill="#FEFFFF" transform="matrix(1.00, 0.00, -0.00, -1.00, 1161.0, 605.8)"> </text><text xml:space="preserve" font-family="CourierNewPSMT,Courier New" font-size="76.0" fill="#FEFFFF" transform="matrix(1.00, 0.00, -0.00, -1.00, 1206.6, 605.8)">b</text><text xml:space="preserve" font-family="CourierNewPSMT,Courier New" font-size="76.0" fill="#FEFFFF" transform="matrix(1.00, 0.00, -0.00, -1.00, 1252.2, 605.8)">:</text><text xml:space="preserve" font-family="CourierNewPSMT,Courier New" font-size="76.0" fill="#FEFFFF" transform="matrix(1.00, 0.00, -0.00, -1.00, 1297.8, 605.8)"> </text><text xml:space="preserve" font-family="CourierNewPSMT,Courier New" font-size="76.0" fill="#FEFFFF" transform="matrix(1.00, 0.00, -0.00, -1.00, 1343.5, 605.8)">n</text><text xml:space="preserve" font-family="CourierNewPSMT,Courier New" font-size="76.0" fill="#FEFFFF" transform="matrix(1.00, 0.00, -0.00, -1.00, 1389.1, 605.8)">u</text><text xml:space="preserve" font-family="CourierNewPSMT,Courier New" font-size="76.0" fill="#FEFFFF" transform="matrix(1.00, 0.00, -0.00, -1.00, 1434.7, 605.8)">m</text><text xml:space="preserve" font-family="CourierNewPSMT,Courier New" font-size="76.0" fill="#FEFFFF" transform="matrix(1.00, 0.00, -0.00, -1.00, 1480.3, 605.8)">b</text><text xml:space="preserve" font-family="CourierNewPSMT,Courier New" font-size="76.0" fill="#FEFFFF" transform="matrix(1.00, 0.00, -0.00, -1.00, 1525.9, 605.8)">e</text><text xml:space="preserve" font-family="CourierNewPSMT,Courier New" font-size="76.0" fill="#FEFFFF" transform="matrix(1.00, 0.00, -0.00, -1.00, 1571.5, 605.8)">r</text><text xml:space="preserve" font-family="CourierNewPSMT,Courier New" font-size="76.0" fill="#FEFFFF" transform="matrix(1.00, 0.00, -0.00, -1.00, 1617.1, 605.8)">)</text><text xml:space="preserve" font-family="CourierNewPSMT,Courier New" font-size="76.0" fill="#FEFFFF" transform="matrix(1.00, 0.00, -0.00, -1.00, 1662.8, 605.8)"> </text><text xml:space="preserve" font-family="CourierNewPSMT,Courier New" font-size="76.0" fill="#FEFFFF" transform="matrix(1.00, 0.00, -0.00, -1.00, 1708.4, 605.8)">{</text><text xml:space="preserve" font-family="Monaco,Monaco" font-size="76.0" fill="#FEFFFF" transform="matrix(1.00, 0.00, -0.00, -1.00, 1753.7, 605.8)"> </text><text xml:space="preserve" font-family="CourierNewPSMT,Courier New" font-size="76.0" fill="#FEFFFF" transform="matrix(1.00, 0.00, -0.00, -1.00, 111.9, 519.8)"> </text><text xml:space="preserve" font-family="CourierNewPSMT,Courier New" font-size="76.0" fill="#FEFFFF" transform="matrix(1.00, 0.00, -0.00, -1.00, 157.5, 519.8)"> </text><text xml:space="preserve" font-family="CourierNewPSMT,Courier New" font-size="76.0" fill="#FEFFFF" transform="matrix(1.00, 0.00, -0.00, -1.00, 203.1, 519.8)">r</text><text xml:space="preserve" font-family="CourierNewPSMT,Courier New" font-size="76.0" fill="#FEFFFF" transform="matrix(1.00, 0.00, -0.00, -1.00, 248.7, 519.8)">e</text><text xml:space="preserve" font-family="CourierNewPSMT,Courier New" font-size="76.0" fill="#FEFFFF" transform="matrix(1.00, 0.00, -0.00, -1.00, 294.3, 519.8)">t</text><text xml:space="preserve" font-family="CourierNewPSMT,Courier New" font-size="76.0" fill="#FEFFFF" transform="matrix(1.00, 0.00, -0.00, -1.00, 339.9, 519.8)">u</text><text xml:space="preserve" font-family="CourierNewPSMT,Courier New" font-size="76.0" fill="#FEFFFF" transform="matrix(1.00, 0.00, -0.00, -1.00, 385.5, 519.8)">r</text><text xml:space="preserve" font-family="CourierNewPSMT,Courier New" font-size="76.0" fill="#FEFFFF" transform="matrix(1.00, 0.00, -0.00, -1.00, 431.2, 519.8)">n</text><text xml:space="preserve" font-family="CourierNewPSMT,Courier New" font-size="76.0" fill="#FEFFFF" transform="matrix(1.00, 0.00, -0.00, -1.00, 476.8, 519.8)"> </text><text xml:space="preserve" font-family="CourierNewPSMT,Courier New" font-size="76.0" fill="#FEFFFF" transform="matrix(1.00, 0.00, -0.00, -1.00, 522.4, 519.8)">a</text><text xml:space="preserve" font-family="CourierNewPSMT,Courier New" font-size="76.0" fill="#FEFFFF" transform="matrix(1.00, 0.00, -0.00, -1.00, 568.0, 519.8)"> </text><text xml:space="preserve" font-family="CourierNewPSMT,Courier New" font-size="76.0" fill="#FEFFFF" transform="matrix(1.00, 0.00, -0.00, -1.00, 613.6, 519.8)">+</text><text xml:space="preserve" font-family="CourierNewPSMT,Courier New" font-size="76.0" fill="#FEFFFF" transform="matrix(1.00, 0.00, -0.00, -1.00, 659.2, 519.8)"> </text><text xml:space="preserve" font-family="CourierNewPSMT,Courier New" font-size="76.0" fill="#FEFFFF" transform="matrix(1.00, 0.00, -0.00, -1.00, 704.8, 519.8)">b</text><text xml:space="preserve" font-family="CourierNewPSMT,Courier New" font-size="76.0" fill="#FEFFFF" transform="matrix(1.00, 0.00, -0.00, -1.00, 750.5, 519.8)">;</text><text xml:space="preserve" font-family="Monaco,Monaco" font-size="76.0" fill="#FEFFFF" transform="matrix(1.00, 0.00, -0.00, -1.00, 796.0, 519.8)"> </text><text xml:space="preserve" font-family="CourierNewPSMT,Courier New" font-size="76.0" fill="#FEFFFF" transform="matrix(1.00, 0.00, -0.00, -1.00, 111.9, 433.8)">}</text></g></g></g></svg>