<?xml version="1.0" encoding="UTF-8" standalone="no"?><svg xmlns="http://www.w3.org/2000/svg" xmlns:xlink="http://www.w3.org/1999/xlink" clip-rule="evenodd" stroke-miterlimit="10" viewBox="0 0 1920 1080"><desc>SVG generated by Keynote</desc><defs></defs><g transform="matrix(1.00, 0.00, -0.00, -1.00, 0.0, 1080.0)"><path d="M 0.0 1080.0 L 1920.0 1080.0 L 1920.0 0.0 L 0.0 0.0 Z M 0.0 1080.0 " fill="#000000"></path><g><clipPath id="clip0x600000cba760"><path d="M 960.0 1080.0 L 1920.0 1080.0 L 1920.0 0.0 L 960.0 0.0 Z M 960.0 1080.0 "></path></clipPath><g clip-path="url(#clip0x600000cba760)"><image xlink:href="../../0E95C702-D498-4C71-9514-F266C2C6DC96/assets/BD7C9D9557F398469607C3BB4C65982F.jpeg" width="1200.00" height="1600.00" transform="matrix(0.80, 0.00, -0.00, -0.80, 960.0, 1180.0)"></image></g></g><text xml:space="preserve" font-family="Avenir-Black,Avenir" font-weight="bold" font-size="62.0" fill="#FEFFFF" transform="matrix(1.00, 0.00, -0.00, -1.00, 102.0, 945.7)">R</text><text xml:space="preserve" font-family="Avenir-Black,Avenir" font-weight="bold" font-size="62.0" fill="#FEFFFF" transform="matrix(1.00, 0.00, -0.00, -1.00, 152.1, 945.7)">E</text><text xml:space="preserve" font-family="Avenir-Black,Avenir" font-weight="bold" font-size="62.0" fill="#FEFFFF" transform="matrix(1.00, 0.00, -0.00, -1.00, 201.1, 945.7)">S</text><text xml:space="preserve" font-family="Avenir-Black,Avenir" font-weight="bold" font-size="62.0" fill="#FEFFFF" transform="matrix(1.00, 0.00, -0.00, -1.00, 246.6, 945.7)">O</text><text xml:space="preserve" font-family="Avenir-Black,Avenir" font-weight="bold" font-size="62.0" fill="#FEFFFF" transform="matrix(1.00, 0.00, -0.00, -1.00, 308.1, 945.7)">U</text><text xml:space="preserve" font-family="Avenir-Black,Avenir" font-weight="bold" font-size="62.0" fill="#FEFFFF" transform="matrix(1.00, 0.00, -0.00, -1.00, 363.9, 945.7)">R</text><text xml:space="preserve" font-family="Avenir-Black,Avenir" font-weight="bold" font-size="62.0" fill="#FEFFFF" transform="matrix(1.00, 0.00, -0.00, -1.00, 414.0, 945.7)">C</text><text xml:space="preserve" font-family="Avenir-Black,Avenir" font-weight="bold" font-size="62.0" fill="#FEFFFF" transform="matrix(1.00, 0.00, -0.00, -1.00, 466.4, 945.7)">E</text><text xml:space="preserve" font-family="Avenir-Black,Avenir" font-weight="bold" font-size="62.0" fill="#FEFFFF" transform="matrix(1.00, 0.00, -0.00, -1.00, 515.4, 945.7)">S</text><text xml:space="preserve" font-family="Avenir-Light,Avenir" font-size="31.8" fill="#646363" transform="matrix(1.00, 0.00, -0.00, -1.00, 102.0, 727.6)">•</text><text xml:space="preserve" font-family="Avenir-Light,Avenir" font-size="35.3" fill="#FEFFFF" transform="matrix(1.00, 0.00, -0.00, -1.00, 138.1, 726.9)">t</text><text xml:space="preserve" font-family="Avenir-Light,Avenir" font-size="35.3" fill="#FEFFFF" transform="matrix(1.00, 0.00, -0.00, -1.00, 149.9, 726.9)">y</text><text xml:space="preserve" font-family="Avenir-Light,Avenir" font-size="35.3" fill="#FEFFFF" transform="matrix(1.00, 0.00, -0.00, -1.00, 166.2, 726.9)">p</text><text xml:space="preserve" font-family="Avenir-Light,Avenir" font-size="35.3" fill="#FEFFFF" transform="matrix(1.00, 0.00, -0.00, -1.00, 187.8, 726.9)">e</text><text xml:space="preserve" font-family="Avenir-Light,Avenir" font-size="35.3" fill="#FEFFFF" transform="matrix(1.00, 0.00, -0.00, -1.00, 207.4, 726.9)">s</text><text xml:space="preserve" font-family="Avenir-Light,Avenir" font-size="35.3" fill="#FEFFFF" transform="matrix(1.00, 0.00, -0.00, -1.00, 222.4, 726.9)">c</text><text xml:space="preserve" font-family="Avenir-Light,Avenir" font-size="35.3" fill="#FEFFFF" transform="matrix(1.00, 0.00, -0.00, -1.00, 239.4, 726.9)">r</text><text xml:space="preserve" font-family="Avenir-Light,Avenir" font-size="35.3" fill="#FEFFFF" transform="matrix(1.00, 0.00, -0.00, -1.00, 251.1, 726.9)">i</text><text xml:space="preserve" font-family="Avenir-Light,Avenir" font-size="35.3" fill="#FEFFFF" transform="matrix(1.00, 0.00, -0.00, -1.00, 259.6, 726.9)">p</text><text xml:space="preserve" font-family="Avenir-Light,Avenir" font-size="35.3" fill="#FEFFFF" transform="matrix(1.00, 0.00, -0.00, -1.00, 281.1, 726.9)">t</text><text xml:space="preserve" font-family="Avenir-Light,Avenir" font-size="35.3" fill="#FEFFFF" transform="matrix(1.00, 0.00, -0.00, -1.00, 292.9, 726.9)">l</text><text xml:space="preserve" font-family="Avenir-Light,Avenir" font-size="35.3" fill="#FEFFFF" transform="matrix(1.00, 0.00, -0.00, -1.00, 301.4, 726.9)">a</text><text xml:space="preserve" font-family="Avenir-Light,Avenir" font-size="35.3" fill="#FEFFFF" transform="matrix(1.00, 0.00, -0.00, -1.00, 319.7, 726.9)">n</text><text xml:space="preserve" font-family="Avenir-Light,Avenir" font-size="35.3" fill="#FEFFFF" transform="matrix(1.00, 0.00, -0.00, -1.00, 339.3, 726.9)">g</text><text xml:space="preserve" font-family="Avenir-Light,Avenir" font-size="35.3" fill="#FEFFFF" transform="matrix(1.00, 0.00, -0.00, -1.00, 360.9, 726.9)">.</text><text xml:space="preserve" font-family="Avenir-Light,Avenir" font-size="35.3" fill="#FEFFFF" transform="matrix(1.00, 0.00, -0.00, -1.00, 370.1, 726.9)">o</text><text xml:space="preserve" font-family="Avenir-Light,Avenir" font-size="35.3" fill="#FEFFFF" transform="matrix(1.00, 0.00, -0.00, -1.00, 391.0, 726.9)">r</text><text xml:space="preserve" font-family="Avenir-Light,Avenir" font-size="35.3" fill="#FEFFFF" transform="matrix(1.00, 0.00, -0.00, -1.00, 402.1, 726.9)">g</text><text xml:space="preserve" font-family="Avenir-Light,Avenir" font-size="35.3" fill="#FEFFFF" transform="matrix(1.00, 0.00, -0.00, -1.00, 423.7, 726.9)"> </text><text xml:space="preserve" font-family="Avenir-Light,Avenir" font-size="31.8" fill="#646363" transform="matrix(1.00, 0.00, -0.00, -1.00, 102.0, 641.8)">•</text><text xml:space="preserve" font-family="Avenir-Light,Avenir" font-size="35.3" fill="#FEFFFF" transform="matrix(1.00, 0.00, -0.00, -1.00, 138.1, 641.1)">d</text><text xml:space="preserve" font-family="Avenir-Light,Avenir" font-size="35.3" fill="#FEFFFF" transform="matrix(1.00, 0.00, -0.00, -1.00, 159.7, 641.1)">e</text><text xml:space="preserve" font-family="Avenir-Light,Avenir" font-size="35.3" fill="#FEFFFF" transform="matrix(1.00, 0.00, -0.00, -1.00, 179.3, 641.1)">f</text><text xml:space="preserve" font-family="Avenir-Light,Avenir" font-size="35.3" fill="#FEFFFF" transform="matrix(1.00, 0.00, -0.00, -1.00, 189.7, 641.1)">i</text><text xml:space="preserve" font-family="Avenir-Light,Avenir" font-size="35.3" fill="#FEFFFF" transform="matrix(1.00, 0.00, -0.00, -1.00, 198.2, 641.1)">n</text><text xml:space="preserve" font-family="Avenir-Light,Avenir" font-size="35.3" fill="#FEFFFF" transform="matrix(1.00, 0.00, -0.00, -1.00, 217.8, 641.1)">i</text><text xml:space="preserve" font-family="Avenir-Light,Avenir" font-size="35.3" fill="#FEFFFF" transform="matrix(1.00, 0.00, -0.00, -1.00, 226.3, 641.1)">t</text><text xml:space="preserve" font-family="Avenir-Light,Avenir" font-size="35.3" fill="#FEFFFF" transform="matrix(1.00, 0.00, -0.00, -1.00, 238.0, 641.1)">e</text><text xml:space="preserve" font-family="Avenir-Light,Avenir" font-size="35.3" fill="#FEFFFF" transform="matrix(1.00, 0.00, -0.00, -1.00, 257.6, 641.1)">l</text><text xml:space="preserve" font-family="Avenir-Light,Avenir" font-size="35.3" fill="#FEFFFF" transform="matrix(1.00, 0.00, -0.00, -1.00, 266.1, 641.1)">y</text><text xml:space="preserve" font-family="Avenir-Light,Avenir" font-size="35.3" fill="#FEFFFF" transform="matrix(1.00, 0.00, -0.00, -1.00, 282.5, 641.1)">t</text><text xml:space="preserve" font-family="Avenir-Light,Avenir" font-size="35.3" fill="#FEFFFF" transform="matrix(1.00, 0.00, -0.00, -1.00, 294.2, 641.1)">y</text><text xml:space="preserve" font-family="Avenir-Light,Avenir" font-size="35.3" fill="#FEFFFF" transform="matrix(1.00, 0.00, -0.00, -1.00, 310.5, 641.1)">p</text><text xml:space="preserve" font-family="Avenir-Light,Avenir" font-size="35.3" fill="#FEFFFF" transform="matrix(1.00, 0.00, -0.00, -1.00, 332.1, 641.1)">e</text><text xml:space="preserve" font-family="Avenir-Light,Avenir" font-size="35.3" fill="#FEFFFF" transform="matrix(1.00, 0.00, -0.00, -1.00, 351.7, 641.1)">d</text><text xml:space="preserve" font-family="Avenir-Light,Avenir" font-size="35.3" fill="#FEFFFF" transform="matrix(1.00, 0.00, -0.00, -1.00, 373.3, 641.1)">.</text><text xml:space="preserve" font-family="Avenir-Light,Avenir" font-size="35.3" fill="#FEFFFF" transform="matrix(1.00, 0.00, -0.00, -1.00, 382.4, 641.1)">o</text><text xml:space="preserve" font-family="Avenir-Light,Avenir" font-size="35.3" fill="#FEFFFF" transform="matrix(1.00, 0.00, -0.00, -1.00, 403.4, 641.1)">r</text><text xml:space="preserve" font-family="Avenir-Light,Avenir" font-size="35.3" fill="#FEFFFF" transform="matrix(1.00, 0.00, -0.00, -1.00, 414.5, 641.1)">g</text><text xml:space="preserve" font-family="Avenir-Light,Avenir" font-size="35.3" fill="#FEFFFF" transform="matrix(1.00, 0.00, -0.00, -1.00, 436.1, 641.1)"> </text><text xml:space="preserve" font-family="Avenir-Light,Avenir" font-size="31.8" fill="#646363" transform="matrix(1.00, 0.00, -0.00, -1.00, 102.0, 556.0)">•</text><text xml:space="preserve" font-family="Avenir-Light,Avenir" font-size="35.3" fill="#FEFFFF" transform="matrix(1.00, 0.00, -0.00, -1.00, 138.1, 555.3)">T</text><text xml:space="preserve" font-family="Avenir-Light,Avenir" font-size="35.3" fill="#FEFFFF" transform="matrix(1.00, 0.00, -0.00, -1.00, 154.5, 555.3)">o</text><text xml:space="preserve" font-family="Avenir-Light,Avenir" font-size="35.3" fill="#FEFFFF" transform="matrix(1.00, 0.00, -0.00, -1.00, 175.4, 555.3)">D</text><text xml:space="preserve" font-family="Avenir-Light,Avenir" font-size="35.3" fill="#FEFFFF" transform="matrix(1.00, 0.00, -0.00, -1.00, 201.6, 555.3)">o</text><text xml:space="preserve" font-family="Avenir-Light,Avenir" font-size="35.3" fill="#FEFFFF" transform="matrix(1.00, 0.00, -0.00, -1.00, 222.5, 555.3)"> </text><text xml:space="preserve" font-family="Avenir-Light,Avenir" font-size="35.3" fill="#FEFFFF" transform="matrix(1.00, 0.00, -0.00, -1.00, 231.7, 555.3)">M</text><text xml:space="preserve" font-family="Avenir-Light,Avenir" font-size="35.3" fill="#FEFFFF" transform="matrix(1.00, 0.00, -0.00, -1.00, 263.0, 555.3)">V</text><text xml:space="preserve" font-family="Avenir-Light,Avenir" font-size="35.3" fill="#FEFFFF" transform="matrix(1.00, 0.00, -0.00, -1.00, 284.0, 555.3)">C</text><text xml:space="preserve" font-family="Avenir-Light,Avenir" font-size="35.3" fill="#FEFFFF" transform="matrix(1.00, 0.00, -0.00, -1.00, 308.8, 555.3)"> </text><text xml:space="preserve" font-family="Avenir-Light,Avenir" font-size="35.3" fill="#FEFFFF" transform="matrix(1.00, 0.00, -0.00, -1.00, 318.0, 555.3)">A</text><text xml:space="preserve" font-family="Avenir-Light,Avenir" font-size="35.3" fill="#FEFFFF" transform="matrix(1.00, 0.00, -0.00, -1.00, 342.1, 555.3)">n</text><text xml:space="preserve" font-family="Avenir-Light,Avenir" font-size="35.3" fill="#FEFFFF" transform="matrix(1.00, 0.00, -0.00, -1.00, 361.8, 555.3)">g</text><text xml:space="preserve" font-family="Avenir-Light,Avenir" font-size="35.3" fill="#FEFFFF" transform="matrix(1.00, 0.00, -0.00, -1.00, 383.3, 555.3)">u</text><text xml:space="preserve" font-family="Avenir-Light,Avenir" font-size="35.3" fill="#FEFFFF" transform="matrix(1.00, 0.00, -0.00, -1.00, 402.9, 555.3)">l</text><text xml:space="preserve" font-family="Avenir-Light,Avenir" font-size="35.3" fill="#FEFFFF" transform="matrix(1.00, 0.00, -0.00, -1.00, 411.4, 555.3)">a</text><text xml:space="preserve" font-family="Avenir-Light,Avenir" font-size="35.3" fill="#FEFFFF" transform="matrix(1.00, 0.00, -0.00, -1.00, 429.7, 555.3)">r</text><text xml:space="preserve" font-family="Avenir-Light,Avenir" font-size="35.3" fill="#FEFFFF" transform="matrix(1.00, 0.00, -0.00, -1.00, 441.5, 555.3)"> </text><text xml:space="preserve" font-family="Avenir-Light,Avenir" font-size="35.3" fill="#FEFFFF" transform="matrix(1.00, 0.00, -0.00, -1.00, 450.6, 555.3)">&amp;</text><text xml:space="preserve" font-family="Avenir-Light,Avenir" font-size="35.3" fill="#FEFFFF" transform="matrix(1.00, 0.00, -0.00, -1.00, 475.5, 555.3)"> </text><text xml:space="preserve" font-family="Avenir-Light,Avenir" font-size="35.3" fill="#FEFFFF" transform="matrix(1.00, 0.00, -0.00, -1.00, 484.6, 555.3)">T</text><text xml:space="preserve" font-family="Avenir-Light,Avenir" font-size="35.3" fill="#FEFFFF" transform="matrix(1.00, 0.00, -0.00, -1.00, 501.0, 555.3)">y</text><text xml:space="preserve" font-family="Avenir-Light,Avenir" font-size="35.3" fill="#FEFFFF" transform="matrix(1.00, 0.00, -0.00, -1.00, 517.3, 555.3)">p</text><text xml:space="preserve" font-family="Avenir-Light,Avenir" font-size="35.3" fill="#FEFFFF" transform="matrix(1.00, 0.00, -0.00, -1.00, 538.9, 555.3)">e</text><text xml:space="preserve" font-family="Avenir-Light,Avenir" font-size="35.3" fill="#FEFFFF" transform="matrix(1.00, 0.00, -0.00, -1.00, 558.5, 555.3)">s</text><text xml:space="preserve" font-family="Avenir-Light,Avenir" font-size="35.3" fill="#FEFFFF" transform="matrix(1.00, 0.00, -0.00, -1.00, 573.5, 555.3)">c</text><text xml:space="preserve" font-family="Avenir-Light,Avenir" font-size="35.3" fill="#FEFFFF" transform="matrix(1.00, 0.00, -0.00, -1.00, 590.5, 555.3)">r</text><text xml:space="preserve" font-family="Avenir-Light,Avenir" font-size="35.3" fill="#FEFFFF" transform="matrix(1.00, 0.00, -0.00, -1.00, 602.2, 555.3)">i</text><text xml:space="preserve" font-family="Avenir-Light,Avenir" font-size="35.3" fill="#FEFFFF" transform="matrix(1.00, 0.00, -0.00, -1.00, 610.7, 555.3)">p</text><text xml:space="preserve" font-family="Avenir-Light,Avenir" font-size="35.3" fill="#FEFFFF" transform="matrix(1.00, 0.00, -0.00, -1.00, 632.3, 555.3)">t</text><text xml:space="preserve" font-family="Avenir-Light,Avenir" font-size="35.3" fill="#FEFFFF" transform="matrix(1.00, 0.00, -0.00, -1.00, 644.0, 555.3)"> </text><text xml:space="preserve" font-family="Avenir-Light,Avenir" font-size="35.3" fill="#FEFFFF" transform="matrix(1.00, 0.00, -0.00, -1.00, 653.2, 555.3)">E</text><text xml:space="preserve" font-family="Avenir-Light,Avenir" font-size="35.3" fill="#FEFFFF" transform="matrix(1.00, 0.00, -0.00, -1.00, 674.1, 555.3)">x</text><text xml:space="preserve" font-family="Avenir-Light,Avenir" font-size="35.3" fill="#FEFFFF" transform="matrix(1.00, 0.00, -0.00, -1.00, 691.1, 555.3)">a</text><text xml:space="preserve" font-family="Avenir-Light,Avenir" font-size="35.3" fill="#FEFFFF" transform="matrix(1.00, 0.00, -0.00, -1.00, 709.4, 555.3)">m</text><text xml:space="preserve" font-family="Avenir-Light,Avenir" font-size="35.3" fill="#FEFFFF" transform="matrix(1.00, 0.00, -0.00, -1.00, 739.4, 555.3)">p</text><text xml:space="preserve" font-family="Avenir-Light,Avenir" font-size="35.3" fill="#FEFFFF" transform="matrix(1.00, 0.00, -0.00, -1.00, 761.0, 555.3)">l</text><text xml:space="preserve" font-family="Avenir-Light,Avenir" font-size="35.3" fill="#FEFFFF" transform="matrix(1.00, 0.00, -0.00, -1.00, 769.5, 555.3)">e</text><text xml:space="preserve" font-family="Avenir-Light,Avenir" font-size="35.3" fill="#FEFFFF" transform="matrix(1.00, 0.00, -0.00, -1.00, 789.1, 555.3)"> </text><text xml:space="preserve" font-family="Avenir-Light,Avenir" font-size="31.8" fill="#646363" transform="matrix(1.00, 0.00, -0.00, -1.00, 102.0, 470.2)">•</text><text xml:space="preserve" font-family="Avenir-Light,Avenir" font-size="35.3" fill="#FEFFFF" transform="matrix(1.00, 0.00, -0.00, -1.00, 138.1, 469.5)">A</text><text xml:space="preserve" font-family="Avenir-Light,Avenir" font-size="35.3" fill="#FEFFFF" transform="matrix(1.00, 0.00, -0.00, -1.00, 162.3, 469.5)">n</text><text xml:space="preserve" font-family="Avenir-Light,Avenir" font-size="35.3" fill="#FEFFFF" transform="matrix(1.00, 0.00, -0.00, -1.00, 181.9, 469.5)">g</text><text xml:space="preserve" font-family="Avenir-Light,Avenir" font-size="35.3" fill="#FEFFFF" transform="matrix(1.00, 0.00, -0.00, -1.00, 203.5, 469.5)">u</text><text xml:space="preserve" font-family="Avenir-Light,Avenir" font-size="35.3" fill="#FEFFFF" transform="matrix(1.00, 0.00, -0.00, -1.00, 223.1, 469.5)">l</text><text xml:space="preserve" font-family="Avenir-Light,Avenir" font-size="35.3" fill="#FEFFFF" transform="matrix(1.00, 0.00, -0.00, -1.00, 231.5, 469.5)">a</text><text xml:space="preserve" font-family="Avenir-Light,Avenir" font-size="35.3" fill="#FEFFFF" transform="matrix(1.00, 0.00, -0.00, -1.00, 249.9, 469.5)">r</text><text xml:space="preserve" font-family="Avenir-Light,Avenir" font-size="35.3" fill="#FEFFFF" transform="matrix(1.00, 0.00, -0.00, -1.00, 261.6, 469.5)">2</text><text xml:space="preserve" font-family="Avenir-Light,Avenir" font-size="35.3" fill="#FEFFFF" transform="matrix(1.00, 0.00, -0.00, -1.00, 279.9, 469.5)"> </text><text xml:space="preserve" font-family="Avenir-Light,Avenir" font-size="35.3" fill="#FEFFFF" transform="matrix(1.00, 0.00, -0.00, -1.00, 289.1, 469.5)">S</text><text xml:space="preserve" font-family="Avenir-Light,Avenir" font-size="35.3" fill="#FEFFFF" transform="matrix(1.00, 0.00, -0.00, -1.00, 308.7, 469.5)">e</text><text xml:space="preserve" font-family="Avenir-Light,Avenir" font-size="35.3" fill="#FEFFFF" transform="matrix(1.00, 0.00, -0.00, -1.00, 328.3, 469.5)">e</text><text xml:space="preserve" font-family="Avenir-Light,Avenir" font-size="35.3" fill="#FEFFFF" transform="matrix(1.00, 0.00, -0.00, -1.00, 348.0, 469.5)">d</text><text xml:space="preserve" font-family="Avenir-Light,Avenir" font-size="35.3" fill="#FEFFFF" transform="matrix(1.00, 0.00, -0.00, -1.00, 369.5, 469.5)"> </text><text xml:space="preserve" font-family="Avenir-Light,Avenir" font-size="35.3" fill="#FEFFFF" transform="matrix(1.00, 0.00, -0.00, -1.00, 378.7, 469.5)">P</text><text xml:space="preserve" font-family="Avenir-Light,Avenir" font-size="35.3" fill="#FEFFFF" transform="matrix(1.00, 0.00, -0.00, -1.00, 398.9, 469.5)">r</text><text xml:space="preserve" font-family="Avenir-Light,Avenir" font-size="35.3" fill="#FEFFFF" transform="matrix(1.00, 0.00, -0.00, -1.00, 410.1, 469.5)">o</text><text xml:space="preserve" font-family="Avenir-Light,Avenir" font-size="35.3" fill="#FEFFFF" transform="matrix(1.00, 0.00, -0.00, -1.00, 431.0, 469.5)">j</text><text xml:space="preserve" font-family="Avenir-Light,Avenir" font-size="35.3" fill="#FEFFFF" transform="matrix(1.00, 0.00, -0.00, -1.00, 439.5, 469.5)">e</text><text xml:space="preserve" font-family="Avenir-Light,Avenir" font-size="35.3" fill="#FEFFFF" transform="matrix(1.00, 0.00, -0.00, -1.00, 459.1, 469.5)">c</text><text xml:space="preserve" font-family="Avenir-Light,Avenir" font-size="35.3" fill="#FEFFFF" transform="matrix(1.00, 0.00, -0.00, -1.00, 476.1, 469.5)">t</text><text xml:space="preserve" font-family="Avenir-Light,Avenir" font-size="35.3" fill="#FEFFFF" transform="matrix(1.00, 0.00, -0.00, -1.00, 487.8, 469.5)"> </text><text xml:space="preserve" font-family="Avenir-Light,Avenir" font-size="31.8" fill="#646363" transform="matrix(1.00, 0.00, -0.00, -1.00, 102.0, 384.4)">•</text><text xml:space="preserve" font-family="Avenir-Light,Avenir" font-size="35.3" fill="#FEFFFF" transform="matrix(1.00, 0.00, -0.00, -1.00, 138.1, 383.7)">W</text><text xml:space="preserve" font-family="Avenir-Light,Avenir" font-size="35.3" fill="#FEFFFF" transform="matrix(1.00, 0.00, -0.00, -1.00, 170.1, 383.7)">a</text><text xml:space="preserve" font-family="Avenir-Light,Avenir" font-size="35.3" fill="#FEFFFF" transform="matrix(1.00, 0.00, -0.00, -1.00, 188.4, 383.7)">t</text><text xml:space="preserve" font-family="Avenir-Light,Avenir" font-size="35.3" fill="#FEFFFF" transform="matrix(1.00, 0.00, -0.00, -1.00, 200.2, 383.7)">c</text><text xml:space="preserve" font-family="Avenir-Light,Avenir" font-size="35.3" fill="#FEFFFF" transform="matrix(1.00, 0.00, -0.00, -1.00, 217.1, 383.7)">h</text><text xml:space="preserve" font-family="Avenir-Light,Avenir" font-size="35.3" fill="#FEFFFF" transform="matrix(1.00, 0.00, -0.00, -1.00, 236.8, 383.7)"> </text><text xml:space="preserve" font-family="Avenir-Light,Avenir" font-size="35.3" fill="#FEFFFF" transform="matrix(1.00, 0.00, -0.00, -1.00, 245.9, 383.7)">A</text><text xml:space="preserve" font-family="Avenir-Light,Avenir" font-size="35.3" fill="#FEFFFF" transform="matrix(1.00, 0.00, -0.00, -1.00, 270.1, 383.7)">n</text><text xml:space="preserve" font-family="Avenir-Light,Avenir" font-size="35.3" fill="#FEFFFF" transform="matrix(1.00, 0.00, -0.00, -1.00, 289.7, 383.7)">d</text><text xml:space="preserve" font-family="Avenir-Light,Avenir" font-size="35.3" fill="#FEFFFF" transform="matrix(1.00, 0.00, -0.00, -1.00, 311.3, 383.7)">e</text><text xml:space="preserve" font-family="Avenir-Light,Avenir" font-size="35.3" fill="#FEFFFF" transform="matrix(1.00, 0.00, -0.00, -1.00, 330.9, 383.7)">r</text><text xml:space="preserve" font-family="Avenir-Light,Avenir" font-size="35.3" fill="#FEFFFF" transform="matrix(1.00, 0.00, -0.00, -1.00, 342.6, 383.7)">s</text><text xml:space="preserve" font-family="Avenir-Light,Avenir" font-size="35.3" fill="#FEFFFF" transform="matrix(1.00, 0.00, -0.00, -1.00, 357.7, 383.7)"> </text><text xml:space="preserve" font-family="Avenir-Light,Avenir" font-size="35.3" fill="#FEFFFF" transform="matrix(1.00, 0.00, -0.00, -1.00, 366.8, 383.7)">i</text><text xml:space="preserve" font-family="Avenir-Light,Avenir" font-size="35.3" fill="#FEFFFF" transform="matrix(1.00, 0.00, -0.00, -1.00, 375.3, 383.7)">n</text><text xml:space="preserve" font-family="Avenir-Light,Avenir" font-size="35.3" fill="#FEFFFF" transform="matrix(1.00, 0.00, -0.00, -1.00, 394.9, 383.7)">t</text><text xml:space="preserve" font-family="Avenir-Light,Avenir" font-size="35.3" fill="#FEFFFF" transform="matrix(1.00, 0.00, -0.00, -1.00, 406.7, 383.7)">r</text><text xml:space="preserve" font-family="Avenir-Light,Avenir" font-size="35.3" fill="#FEFFFF" transform="matrix(1.00, 0.00, -0.00, -1.00, 417.8, 383.7)">o</text><text xml:space="preserve" font-family="Avenir-Light,Avenir" font-size="35.3" fill="#FEFFFF" transform="matrix(1.00, 0.00, -0.00, -1.00, 438.7, 383.7)">d</text><text xml:space="preserve" font-family="Avenir-Light,Avenir" font-size="35.3" fill="#FEFFFF" transform="matrix(1.00, 0.00, -0.00, -1.00, 460.3, 383.7)">u</text><text xml:space="preserve" font-family="Avenir-Light,Avenir" font-size="35.3" fill="#FEFFFF" transform="matrix(1.00, 0.00, -0.00, -1.00, 479.9, 383.7)">c</text><text xml:space="preserve" font-family="Avenir-Light,Avenir" font-size="35.3" fill="#FEFFFF" transform="matrix(1.00, 0.00, -0.00, -1.00, 496.9, 383.7)">e</text><text xml:space="preserve" font-family="Avenir-Light,Avenir" font-size="35.3" fill="#FEFFFF" transform="matrix(1.00, 0.00, -0.00, -1.00, 516.5, 383.7)"> </text><text xml:space="preserve" font-family="Avenir-Light,Avenir" font-size="35.3" fill="#FEFFFF" transform="matrix(1.00, 0.00, -0.00, -1.00, 525.7, 383.7)">T</text><text xml:space="preserve" font-family="Avenir-Light,Avenir" font-size="35.3" fill="#FEFFFF" transform="matrix(1.00, 0.00, -0.00, -1.00, 542.0, 383.7)">y</text><text xml:space="preserve" font-family="Avenir-Light,Avenir" font-size="35.3" fill="#FEFFFF" transform="matrix(1.00, 0.00, -0.00, -1.00, 558.3, 383.7)">p</text><text xml:space="preserve" font-family="Avenir-Light,Avenir" font-size="35.3" fill="#FEFFFF" transform="matrix(1.00, 0.00, -0.00, -1.00, 579.9, 383.7)">e</text><text xml:space="preserve" font-family="Avenir-Light,Avenir" font-size="35.3" fill="#FEFFFF" transform="matrix(1.00, 0.00, -0.00, -1.00, 599.5, 383.7)">S</text><text xml:space="preserve" font-family="Avenir-Light,Avenir" font-size="35.3" fill="#FEFFFF" transform="matrix(1.00, 0.00, -0.00, -1.00, 619.1, 383.7)">c</text><text xml:space="preserve" font-family="Avenir-Light,Avenir" font-size="35.3" fill="#FEFFFF" transform="matrix(1.00, 0.00, -0.00, -1.00, 636.1, 383.7)">r</text><text xml:space="preserve" font-family="Avenir-Light,Avenir" font-size="35.3" fill="#FEFFFF" transform="matrix(1.00, 0.00, -0.00, -1.00, 647.8, 383.7)">i</text><text xml:space="preserve" font-family="Avenir-Light,Avenir" font-size="35.3" fill="#FEFFFF" transform="matrix(1.00, 0.00, -0.00, -1.00, 656.3, 383.7)">p</text><text xml:space="preserve" font-family="Avenir-Light,Avenir" font-size="35.3" fill="#FEFFFF" transform="matrix(1.00, 0.00, -0.00, -1.00, 677.9, 383.7)">t</text><text xml:space="preserve" font-family="Avenir-Light,Avenir" font-size="35.3" fill="#FEFFFF" transform="matrix(1.00, 0.00, -0.00, -1.00, 689.6, 383.7)"> </text><text xml:space="preserve" font-family="Avenir-Light,Avenir" font-size="35.3" fill="#FEFFFF" transform="matrix(1.00, 0.00, -0.00, -1.00, 698.8, 383.7)">i</text><text xml:space="preserve" font-family="Avenir-Light,Avenir" font-size="35.3" fill="#FEFFFF" transform="matrix(1.00, 0.00, -0.00, -1.00, 707.3, 383.7)">n</text><text xml:space="preserve" font-family="Avenir-Light,Avenir" font-size="35.3" fill="#FEFFFF" transform="matrix(1.00, 0.00, -0.00, -1.00, 726.9, 383.7)"> </text><text xml:space="preserve" font-family="Avenir-Light,Avenir" font-size="35.3" fill="#FEFFFF" transform="matrix(1.00, 0.00, -0.00, -1.00, 736.0, 383.7)">t</text><text xml:space="preserve" font-family="Avenir-Light,Avenir" font-size="35.3" fill="#FEFFFF" transform="matrix(1.00, 0.00, -0.00, -1.00, 747.8, 383.7)">h</text><text xml:space="preserve" font-family="Avenir-Light,Avenir" font-size="35.3" fill="#FEFFFF" transform="matrix(1.00, 0.00, -0.00, -1.00, 767.4, 383.7)">e</text><text xml:space="preserve" font-family="Avenir-Light,Avenir" font-size="35.3" fill="#FEFFFF" transform="matrix(1.00, 0.00, -0.00, -1.00, 787.1, 383.7)"> </text><text xml:space="preserve" font-family="Avenir-Light,Avenir" font-size="35.3" fill="#FEFFFF" transform="matrix(1.00, 0.00, -0.00, -1.00, 138.1, 335.7)">C</text><text xml:space="preserve" font-family="Avenir-Light,Avenir" font-size="35.3" fill="#FEFFFF" transform="matrix(1.00, 0.00, -0.00, -1.00, 163.0, 335.7)">h</text><text xml:space="preserve" font-family="Avenir-Light,Avenir" font-size="35.3" fill="#FEFFFF" transform="matrix(1.00, 0.00, -0.00, -1.00, 182.6, 335.7)">a</text><text xml:space="preserve" font-family="Avenir-Light,Avenir" font-size="35.3" fill="#FEFFFF" transform="matrix(1.00, 0.00, -0.00, -1.00, 200.9, 335.7)">n</text><text xml:space="preserve" font-family="Avenir-Light,Avenir" font-size="35.3" fill="#FEFFFF" transform="matrix(1.00, 0.00, -0.00, -1.00, 220.5, 335.7)">n</text><text xml:space="preserve" font-family="Avenir-Light,Avenir" font-size="35.3" fill="#FEFFFF" transform="matrix(1.00, 0.00, -0.00, -1.00, 240.1, 335.7)">e</text><text xml:space="preserve" font-family="Avenir-Light,Avenir" font-size="35.3" fill="#FEFFFF" transform="matrix(1.00, 0.00, -0.00, -1.00, 259.7, 335.7)">l</text><text xml:space="preserve" font-family="Avenir-Light,Avenir" font-size="35.3" fill="#FEFFFF" transform="matrix(1.00, 0.00, -0.00, -1.00, 268.2, 335.7)"> </text><text xml:space="preserve" font-family="Avenir-Light,Avenir" font-size="35.3" fill="#FEFFFF" transform="matrix(1.00, 0.00, -0.00, -1.00, 277.4, 335.7)">9</text><text xml:space="preserve" font-family="Avenir-Light,Avenir" font-size="35.3" fill="#FEFFFF" transform="matrix(1.00, 0.00, -0.00, -1.00, 295.7, 335.7)"> </text><text xml:space="preserve" font-family="Avenir-Light,Avenir" font-size="35.3" fill="#FEFFFF" transform="matrix(1.00, 0.00, -0.00, -1.00, 304.9, 335.7)">v</text><text xml:space="preserve" font-family="Avenir-Light,Avenir" font-size="35.3" fill="#FEFFFF" transform="matrix(1.00, 0.00, -0.00, -1.00, 321.2, 335.7)">i</text><text xml:space="preserve" font-family="Avenir-Light,Avenir" font-size="35.3" fill="#FEFFFF" transform="matrix(1.00, 0.00, -0.00, -1.00, 329.7, 335.7)">d</text><text xml:space="preserve" font-family="Avenir-Light,Avenir" font-size="35.3" fill="#FEFFFF" transform="matrix(1.00, 0.00, -0.00, -1.00, 351.2, 335.7)">e</text><text xml:space="preserve" font-family="Avenir-Light,Avenir" font-size="35.3" fill="#FEFFFF" transform="matrix(1.00, 0.00, -0.00, -1.00, 370.9, 335.7)">o</text><text xml:space="preserve" font-family="Avenir-Light,Avenir" font-size="35.3" fill="#FEFFFF" transform="matrix(1.00, 0.00, -0.00, -1.00, 391.8, 335.7)">s</text><text xml:space="preserve" font-family="Avenir-Light,Avenir" font-size="35.3" fill="#FEFFFF" transform="matrix(1.00, 0.00, -0.00, -1.00, 406.8, 335.7)"> </text><text xml:space="preserve" font-family="Avenir-Light,Avenir" font-size="31.8" fill="#646363" transform="matrix(1.00, 0.00, -0.00, -1.00, 102.0, 250.6)">•</text><text xml:space="preserve" font-family="Avenir-Light,Avenir" font-size="35.3" fill="#FEFFFF" transform="matrix(1.00, 0.00, -0.00, -1.00, 138.1, 249.9)">R</text><text xml:space="preserve" font-family="Avenir-Light,Avenir" font-size="35.3" fill="#FEFFFF" transform="matrix(1.00, 0.00, -0.00, -1.00, 159.0, 249.9)">e</text><text xml:space="preserve" font-family="Avenir-Light,Avenir" font-size="35.3" fill="#FEFFFF" transform="matrix(1.00, 0.00, -0.00, -1.00, 178.7, 249.9)">a</text><text xml:space="preserve" font-family="Avenir-Light,Avenir" font-size="35.3" fill="#FEFFFF" transform="matrix(1.00, 0.00, -0.00, -1.00, 197.0, 249.9)">d</text><text xml:space="preserve" font-family="Avenir-Light,Avenir" font-size="35.3" fill="#FEFFFF" transform="matrix(1.00, 0.00, -0.00, -1.00, 218.5, 249.9)"> </text><text xml:space="preserve" font-family="Avenir-Light,Avenir" font-size="35.3" fill="#FEFFFF" transform="matrix(1.00, 0.00, -0.00, -1.00, 227.7, 249.9)">t</text><text xml:space="preserve" font-family="Avenir-Light,Avenir" font-size="35.3" fill="#FEFFFF" transform="matrix(1.00, 0.00, -0.00, -1.00, 239.5, 249.9)">h</text><text xml:space="preserve" font-family="Avenir-Light,Avenir" font-size="35.3" fill="#FEFFFF" transform="matrix(1.00, 0.00, -0.00, -1.00, 259.1, 249.9)">e</text><text xml:space="preserve" font-family="Avenir-Light,Avenir" font-size="35.3" fill="#FEFFFF" transform="matrix(1.00, 0.00, -0.00, -1.00, 278.7, 249.9)"> </text><text xml:space="preserve" font-family="Avenir-Light,Avenir" font-size="35.3" fill="#FEFFFF" transform="matrix(1.00, 0.00, -0.00, -1.00, 287.9, 249.9)">s</text><text xml:space="preserve" font-family="Avenir-Light,Avenir" font-size="35.3" fill="#FEFFFF" transform="matrix(1.00, 0.00, -0.00, -1.00, 302.9, 249.9)">p</text><text xml:space="preserve" font-family="Avenir-Light,Avenir" font-size="35.3" fill="#FEFFFF" transform="matrix(1.00, 0.00, -0.00, -1.00, 324.5, 249.9)">e</text><text xml:space="preserve" font-family="Avenir-Light,Avenir" font-size="35.3" fill="#FEFFFF" transform="matrix(1.00, 0.00, -0.00, -1.00, 344.1, 249.9)">c</text><text xml:space="preserve" font-family="Avenir-Light,Avenir" font-size="35.3" fill="#FEFFFF" transform="matrix(1.00, 0.00, -0.00, -1.00, 361.1, 249.9)">i</text><text xml:space="preserve" font-family="Avenir-Light,Avenir" font-size="35.3" fill="#FEFFFF" transform="matrix(1.00, 0.00, -0.00, -1.00, 369.5, 249.9)">f</text><text xml:space="preserve" font-family="Avenir-Light,Avenir" font-size="35.3" fill="#FEFFFF" transform="matrix(1.00, 0.00, -0.00, -1.00, 380.0, 249.9)">i</text><text xml:space="preserve" font-family="Avenir-Light,Avenir" font-size="35.3" fill="#FEFFFF" transform="matrix(1.00, 0.00, -0.00, -1.00, 388.4, 249.9)">c</text><text xml:space="preserve" font-family="Avenir-Light,Avenir" font-size="35.3" fill="#FEFFFF" transform="matrix(1.00, 0.00, -0.00, -1.00, 405.4, 249.9)">a</text><text xml:space="preserve" font-family="Avenir-Light,Avenir" font-size="35.3" fill="#FEFFFF" transform="matrix(1.00, 0.00, -0.00, -1.00, 423.7, 249.9)">t</text><text xml:space="preserve" font-family="Avenir-Light,Avenir" font-size="35.3" fill="#FEFFFF" transform="matrix(1.00, 0.00, -0.00, -1.00, 435.5, 249.9)">i</text><text xml:space="preserve" font-family="Avenir-Light,Avenir" font-size="35.3" fill="#FEFFFF" transform="matrix(1.00, 0.00, -0.00, -1.00, 444.0, 249.9)">o</text><text xml:space="preserve" font-family="Avenir-Light,Avenir" font-size="35.3" fill="#FEFFFF" transform="matrix(1.00, 0.00, -0.00, -1.00, 464.9, 249.9)">n</text><text xml:space="preserve" font-family="Avenir-Light,Avenir" font-size="35.3" fill="#FEFFFF" transform="matrix(1.00, 0.00, -0.00, -1.00, 484.5, 249.9)">.</text><text xml:space="preserve" font-family="Avenir-Light,Avenir" font-size="35.3" fill="#FEFFFF" transform="matrix(1.00, 0.00, -0.00, -1.00, 493.7, 249.9)"> </text><text xml:space="preserve" font-family="Avenir-Light,Avenir" font-size="31.8" fill="#646363" transform="matrix(1.00, 0.00, -0.00, -1.00, 102.0, 164.8)">•</text><text xml:space="preserve" font-family="Avenir-Light,Avenir" font-size="35.3" fill="#FEFFFF" transform="matrix(1.00, 0.00, -0.00, -1.00, 138.1, 164.1)">h</text><text xml:space="preserve" font-family="Avenir-Light,Avenir" font-size="35.3" fill="#FEFFFF" transform="matrix(1.00, 0.00, -0.00, -1.00, 157.7, 164.1)">t</text><text xml:space="preserve" font-family="Avenir-Light,Avenir" font-size="35.3" fill="#FEFFFF" transform="matrix(1.00, 0.00, -0.00, -1.00, 169.5, 164.1)">t</text><text xml:space="preserve" font-family="Avenir-Light,Avenir" font-size="35.3" fill="#FEFFFF" transform="matrix(1.00, 0.00, -0.00, -1.00, 181.3, 164.1)">p</text><text xml:space="preserve" font-family="Avenir-Light,Avenir" font-size="35.3" fill="#FEFFFF" transform="matrix(1.00, 0.00, -0.00, -1.00, 202.8, 164.1)">:</text><text xml:space="preserve" font-family="Avenir-Light,Avenir" font-size="35.3" fill="#FEFFFF" transform="matrix(1.00, 0.00, -0.00, -1.00, 212.0, 164.1)">/</text><text xml:space="preserve" font-family="Avenir-Light,Avenir" font-size="35.3" fill="#FEFFFF" transform="matrix(1.00, 0.00, -0.00, -1.00, 225.0, 164.1)">/</text><text xml:space="preserve" font-family="Avenir-Light,Avenir" font-size="35.3" fill="#FEFFFF" transform="matrix(1.00, 0.00, -0.00, -1.00, 238.1, 164.1)">a</text><text xml:space="preserve" font-family="Avenir-Light,Avenir" font-size="35.3" fill="#FEFFFF" transform="matrix(1.00, 0.00, -0.00, -1.00, 256.4, 164.1)">w</text><text xml:space="preserve" font-family="Avenir-Light,Avenir" font-size="35.3" fill="#FEFFFF" transform="matrix(1.00, 0.00, -0.00, -1.00, 281.3, 164.1)">k</text><text xml:space="preserve" font-family="Avenir-Light,Avenir" font-size="35.3" fill="#FEFFFF" transform="matrix(1.00, 0.00, -0.00, -1.00, 298.2, 164.1)">.</text><text xml:space="preserve" font-family="Avenir-Light,Avenir" font-size="35.3" fill="#FEFFFF" transform="matrix(1.00, 0.00, -0.00, -1.00, 307.4, 164.1)">g</text><text xml:space="preserve" font-family="Avenir-Light,Avenir" font-size="35.3" fill="#FEFFFF" transform="matrix(1.00, 0.00, -0.00, -1.00, 328.9, 164.1)">i</text><text xml:space="preserve" font-family="Avenir-Light,Avenir" font-size="35.3" fill="#FEFFFF" transform="matrix(1.00, 0.00, -0.00, -1.00, 337.4, 164.1)">t</text><text xml:space="preserve" font-family="Avenir-Light,Avenir" font-size="35.3" fill="#FEFFFF" transform="matrix(1.00, 0.00, -0.00, -1.00, 349.2, 164.1)">h</text><text xml:space="preserve" font-family="Avenir-Light,Avenir" font-size="35.3" fill="#FEFFFF" transform="matrix(1.00, 0.00, -0.00, -1.00, 368.8, 164.1)">u</text><text xml:space="preserve" font-family="Avenir-Light,Avenir" font-size="35.3" fill="#FEFFFF" transform="matrix(1.00, 0.00, -0.00, -1.00, 388.4, 164.1)">b</text><text xml:space="preserve" font-family="Avenir-Light,Avenir" font-size="35.3" fill="#FEFFFF" transform="matrix(1.00, 0.00, -0.00, -1.00, 410.0, 164.1)">.</text><text xml:space="preserve" font-family="Avenir-Light,Avenir" font-size="35.3" fill="#FEFFFF" transform="matrix(1.00, 0.00, -0.00, -1.00, 419.2, 164.1)">i</text><text xml:space="preserve" font-family="Avenir-Light,Avenir" font-size="35.3" fill="#FEFFFF" transform="matrix(1.00, 0.00, -0.00, -1.00, 427.6, 164.1)">o</text><text xml:space="preserve" font-family="Avenir-Light,Avenir" font-size="35.3" fill="#FEFFFF" transform="matrix(1.00, 0.00, -0.00, -1.00, 448.6, 164.1)">/</text><text xml:space="preserve" font-family="Avenir-Light,Avenir" font-size="35.3" fill="#FEFFFF" transform="matrix(1.00, 0.00, -0.00, -1.00, 461.6, 164.1)">t</text><text xml:space="preserve" font-family="Avenir-Light,Avenir" font-size="35.3" fill="#FEFFFF" transform="matrix(1.00, 0.00, -0.00, -1.00, 473.4, 164.1)">y</text><text xml:space="preserve" font-family="Avenir-Light,Avenir" font-size="35.3" fill="#FEFFFF" transform="matrix(1.00, 0.00, -0.00, -1.00, 489.7, 164.1)">p</text><text xml:space="preserve" font-family="Avenir-Light,Avenir" font-size="35.3" fill="#FEFFFF" transform="matrix(1.00, 0.00, -0.00, -1.00, 511.3, 164.1)">e</text><text xml:space="preserve" font-family="Avenir-Light,Avenir" font-size="35.3" fill="#FEFFFF" transform="matrix(1.00, 0.00, -0.00, -1.00, 530.9, 164.1)">s</text><text xml:space="preserve" font-family="Avenir-Light,Avenir" font-size="35.3" fill="#FEFFFF" transform="matrix(1.00, 0.00, -0.00, -1.00, 545.9, 164.1)">c</text><text xml:space="preserve" font-family="Avenir-Light,Avenir" font-size="35.3" fill="#FEFFFF" transform="matrix(1.00, 0.00, -0.00, -1.00, 562.9, 164.1)">r</text><text xml:space="preserve" font-family="Avenir-Light,Avenir" font-size="35.3" fill="#FEFFFF" transform="matrix(1.00, 0.00, -0.00, -1.00, 574.6, 164.1)">i</text><text xml:space="preserve" font-family="Avenir-Light,Avenir" font-size="35.3" fill="#FEFFFF" transform="matrix(1.00, 0.00, -0.00, -1.00, 583.1, 164.1)">p</text><text xml:space="preserve" font-family="Avenir-Light,Avenir" font-size="35.3" fill="#FEFFFF" transform="matrix(1.00, 0.00, -0.00, -1.00, 604.7, 164.1)">t</text><text xml:space="preserve" font-family="Avenir-Light,Avenir" font-size="35.3" fill="#FEFFFF" transform="matrix(1.00, 0.00, -0.00, -1.00, 616.4, 164.1)">-</text><text xml:space="preserve" font-family="Avenir-Light,Avenir" font-size="35.3" fill="#FEFFFF" transform="matrix(1.00, 0.00, -0.00, -1.00, 628.2, 164.1)">i</text><text xml:space="preserve" font-family="Avenir-Light,Avenir" font-size="35.3" fill="#FEFFFF" transform="matrix(1.00, 0.00, -0.00, -1.00, 636.6, 164.1)">n</text><text xml:space="preserve" font-family="Avenir-Light,Avenir" font-size="35.3" fill="#FEFFFF" transform="matrix(1.00, 0.00, -0.00, -1.00, 656.2, 164.1)">t</text><text xml:space="preserve" font-family="Avenir-Light,Avenir" font-size="35.3" fill="#FEFFFF" transform="matrix(1.00, 0.00, -0.00, -1.00, 668.0, 164.1)">r</text><text xml:space="preserve" font-family="Avenir-Light,Avenir" font-size="35.3" fill="#FEFFFF" transform="matrix(1.00, 0.00, -0.00, -1.00, 679.1, 164.1)">o</text><text xml:space="preserve" font-family="Avenir-Light,Avenir" font-size="35.3" fill="#FEFFFF" transform="matrix(1.00, 0.00, -0.00, -1.00, 700.1, 164.1)">-</text><g><clipPath id="clip0x610000cb35c0"><path d="M 137.1 159.6 L 711.8 159.6 L 711.8 163.3 L 137.1 163.3 Z M 137.1 159.6 "></path></clipPath><g clip-path="url(#clip0x610000cb35c0)"><path d="M 40.1 606.5 L 613.8 606.5 " fill="none" stroke="#FEFFFF" stroke-width="1.76" transform="matrix(1.00, 0.00, 0.00, -1.00, 98.0, 768.0)"></path></g></g><text xml:space="preserve" font-family="Avenir-Light,Avenir" font-size="35.3" fill="#FEFFFF" transform="matrix(1.00, 0.00, -0.00, -1.00, 138.1, 116.1)">p</text><text xml:space="preserve" font-family="Avenir-Light,Avenir" font-size="35.3" fill="#FEFFFF" transform="matrix(1.00, 0.00, -0.00, -1.00, 159.7, 116.1)">r</text><text xml:space="preserve" font-family="Avenir-Light,Avenir" font-size="35.3" fill="#FEFFFF" transform="matrix(1.00, 0.00, -0.00, -1.00, 170.8, 116.1)">e</text><text xml:space="preserve" font-family="Avenir-Light,Avenir" font-size="35.3" fill="#FEFFFF" transform="matrix(1.00, 0.00, -0.00, -1.00, 190.4, 116.1)">s</text><text xml:space="preserve" font-family="Avenir-Light,Avenir" font-size="35.3" fill="#FEFFFF" transform="matrix(1.00, 0.00, -0.00, -1.00, 205.4, 116.1)">e</text><text xml:space="preserve" font-family="Avenir-Light,Avenir" font-size="35.3" fill="#FEFFFF" transform="matrix(1.00, 0.00, -0.00, -1.00, 225.0, 116.1)">n</text><text xml:space="preserve" font-family="Avenir-Light,Avenir" font-size="35.3" fill="#FEFFFF" transform="matrix(1.00, 0.00, -0.00, -1.00, 244.7, 116.1)">t</text><text xml:space="preserve" font-family="Avenir-Light,Avenir" font-size="35.3" fill="#FEFFFF" transform="matrix(1.00, 0.00, -0.00, -1.00, 256.4, 116.1)">a</text><text xml:space="preserve" font-family="Avenir-Light,Avenir" font-size="35.3" fill="#FEFFFF" transform="matrix(1.00, 0.00, -0.00, -1.00, 274.7, 116.1)">t</text><text xml:space="preserve" font-family="Avenir-Light,Avenir" font-size="35.3" fill="#FEFFFF" transform="matrix(1.00, 0.00, -0.00, -1.00, 286.5, 116.1)">i</text><text xml:space="preserve" font-family="Avenir-Light,Avenir" font-size="35.3" fill="#FEFFFF" transform="matrix(1.00, 0.00, -0.00, -1.00, 295.0, 116.1)">o</text><text xml:space="preserve" font-family="Avenir-Light,Avenir" font-size="35.3" fill="#FEFFFF" transform="matrix(1.00, 0.00, -0.00, -1.00, 315.9, 116.1)">n</text><text xml:space="preserve" font-family="Avenir-Light,Avenir" font-size="35.3" fill="#FEFFFF" transform="matrix(1.00, 0.00, -0.00, -1.00, 335.5, 116.1)">/</text><text xml:space="preserve" font-family="Avenir-Light,Avenir" font-size="35.3" fill="#FEFFFF" transform="matrix(1.00, 0.00, -0.00, -1.00, 348.6, 116.1)">p</text><text xml:space="preserve" font-family="Avenir-Light,Avenir" font-size="35.3" fill="#FEFFFF" transform="matrix(1.00, 0.00, -0.00, -1.00, 370.2, 116.1)">r</text><text xml:space="preserve" font-family="Avenir-Light,Avenir" font-size="35.3" fill="#FEFFFF" transform="matrix(1.00, 0.00, -0.00, -1.00, 381.3, 116.1)">e</text><text xml:space="preserve" font-family="Avenir-Light,Avenir" font-size="35.3" fill="#FEFFFF" transform="matrix(1.00, 0.00, -0.00, -1.00, 400.9, 116.1)">s</text><text xml:space="preserve" font-family="Avenir-Light,Avenir" font-size="35.3" fill="#FEFFFF" transform="matrix(1.00, 0.00, -0.00, -1.00, 415.9, 116.1)">e</text><text xml:space="preserve" font-family="Avenir-Light,Avenir" font-size="35.3" fill="#FEFFFF" transform="matrix(1.00, 0.00, -0.00, -1.00, 435.5, 116.1)">n</text><text xml:space="preserve" font-family="Avenir-Light,Avenir" font-size="35.3" fill="#FEFFFF" transform="matrix(1.00, 0.00, -0.00, -1.00, 455.1, 116.1)">t</text><text xml:space="preserve" font-family="Avenir-Light,Avenir" font-size="35.3" fill="#FEFFFF" transform="matrix(1.00, 0.00, -0.00, -1.00, 466.9, 116.1)">a</text><text xml:space="preserve" font-family="Avenir-Light,Avenir" font-size="35.3" fill="#FEFFFF" transform="matrix(1.00, 0.00, -0.00, -1.00, 485.2, 116.1)">t</text><text xml:space="preserve" font-family="Avenir-Light,Avenir" font-size="35.3" fill="#FEFFFF" transform="matrix(1.00, 0.00, -0.00, -1.00, 497.0, 116.1)">i</text><text xml:space="preserve" font-family="Avenir-Light,Avenir" font-size="35.3" fill="#FEFFFF" transform="matrix(1.00, 0.00, -0.00, -1.00, 505.5, 116.1)">o</text><text xml:space="preserve" font-family="Avenir-Light,Avenir" font-size="35.3" fill="#FEFFFF" transform="matrix(1.00, 0.00, -0.00, -1.00, 526.4, 116.1)">n</text><text xml:space="preserve" font-family="Avenir-Light,Avenir" font-size="35.3" fill="#FEFFFF" transform="matrix(1.00, 0.00, -0.00, -1.00, 546.0, 116.1)">.</text><text xml:space="preserve" font-family="Avenir-Light,Avenir" font-size="35.3" fill="#FEFFFF" transform="matrix(1.00, 0.00, -0.00, -1.00, 555.2, 116.1)">h</text><text xml:space="preserve" font-family="Avenir-Light,Avenir" font-size="35.3" fill="#FEFFFF" transform="matrix(1.00, 0.00, -0.00, -1.00, 574.8, 116.1)">t</text><text xml:space="preserve" font-family="Avenir-Light,Avenir" font-size="35.3" fill="#FEFFFF" transform="matrix(1.00, 0.00, -0.00, -1.00, 586.6, 116.1)">m</text><text xml:space="preserve" font-family="Avenir-Light,Avenir" font-size="35.3" fill="#FEFFFF" transform="matrix(1.00, 0.00, -0.00, -1.00, 616.6, 116.1)">l</text><g><clipPath id="clip0x610000cb43a0"><path d="M 137.1 111.6 L 625.1 111.6 L 625.1 115.3 L 137.1 115.3 Z M 137.1 111.6 "></path></clipPath><g clip-path="url(#clip0x610000cb43a0)"><path d="M 40.1 654.5 L 527.1 654.5 " fill="none" stroke="#FEFFFF" stroke-width="1.76" transform="matrix(1.00, 0.00, 0.00, -1.00, 98.0, 768.0)"></path></g></g></g></svg>