<?xml version="1.0" encoding="UTF-8" standalone="no"?><svg xmlns="http://www.w3.org/2000/svg" xmlns:xlink="http://www.w3.org/1999/xlink" clip-rule="evenodd" stroke-miterlimit="10" viewBox="0 0 1920 1080"><desc>SVG generated by Keynote</desc><defs></defs><g transform="matrix(1.00, 0.00, -0.00, -1.00, 0.0, 1080.0)"><path d="M 0.0 1080.0 L 1920.0 1080.0 L 1920.0 0.0 L 0.0 0.0 Z M 0.0 1080.0 " fill="#000000"></path><g opacity="0.60"><g><clipPath id="clip0x610000cb5360"><path d="M 0.0 1080.0 L 1920.0 1080.0 L 1920.0 0.0 L 0.0 0.0 Z M 0.0 1080.0 "></path></clipPath><g clip-path="url(#clip0x610000cb5360)"><g><clipPath id="clip0x610000cb4ca0"><path d="M 0.0 0.0 L 1920.0 0.0 L 1920.0 1080.0 L 0.0 1080.0 Z M 0.0 0.0 "></path></clipPath><g clip-path="url(#clip0x610000cb4ca0)"><image xlink:href="../../DB324D4C-7D60-4CD9-AC6D-2877F6050754/assets/30D565ADB74C3F272E666B28534E19D3.jpeg" width="2288.00" height="1520.00" transform="matrix(0.84, 0.00, -0.00, -0.84, 0.0, 1178.0)"></image></g></g></g></g></g><text xml:space="preserve" font-family="Avenir-Black,Avenir" font-weight="bold" font-size="112.8" fill="#FEFFFF" transform="matrix(1.00, 0.00, -0.00, -1.00, 101.5, 504.3)">Q</text><text xml:space="preserve" font-family="Avenir-Black,Avenir" font-weight="bold" font-size="112.8" fill="#FEFFFF" transform="matrix(1.00, 0.00, -0.00, -1.00, 215.7, 504.3)">U</text><text xml:space="preserve" font-family="Avenir-Black,Avenir" font-weight="bold" font-size="112.8" fill="#FEFFFF" transform="matrix(1.00, 0.00, -0.00, -1.00, 317.3, 504.3)">E</text><text xml:space="preserve" font-family="Avenir-Black,Avenir" font-weight="bold" font-size="112.8" fill="#FEFFFF" transform="matrix(1.00, 0.00, -0.00, -1.00, 406.4, 504.3)">S</text><text xml:space="preserve" font-family="Avenir-Black,Avenir" font-weight="bold" font-size="112.8" fill="#FEFFFF" transform="matrix(1.00, 0.00, -0.00, -1.00, 489.2, 504.3)">T</text><text xml:space="preserve" font-family="Avenir-Black,Avenir" font-weight="bold" font-size="112.8" fill="#FEFFFF" transform="matrix(1.00, 0.00, -0.00, -1.00, 572.0, 504.3)">I</text><text xml:space="preserve" font-family="Avenir-Black,Avenir" font-weight="bold" font-size="112.8" fill="#FEFFFF" transform="matrix(1.00, 0.00, -0.00, -1.00, 623.4, 504.3)">O</text><text xml:space="preserve" font-family="Avenir-Black,Avenir" font-weight="bold" font-size="112.8" fill="#FEFFFF" transform="matrix(1.00, 0.00, -0.00, -1.00, 735.3, 504.3)">N</text><text xml:space="preserve" font-family="Avenir-Black,Avenir" font-weight="bold" font-size="112.8" fill="#FEFFFF" transform="matrix(1.00, 0.00, -0.00, -1.00, 845.3, 504.3)">S</text><text xml:space="preserve" font-family="Avenir-Black,Avenir" font-weight="bold" font-size="112.8" fill="#FEFFFF" transform="matrix(1.00, 0.00, -0.00, -1.00, 928.1, 504.3)">…</text><text xml:space="preserve" font-family="Avenir-Black,Avenir" font-weight="bold" font-size="112.8" fill="#FEFFFF" transform="matrix(1.00, 0.00, -0.00, -1.00, 1058.9, 504.3)">?</text></g></svg>