<?xml version="1.0" encoding="UTF-8" standalone="no"?><svg xmlns="http://www.w3.org/2000/svg" xmlns:xlink="http://www.w3.org/1999/xlink" clip-rule="evenodd" stroke-miterlimit="10" viewBox="0 0 1920 1080"><desc>SVG generated by Keynote</desc><defs></defs><g transform="matrix(1.00, 0.00, -0.00, -1.00, 0.0, 1080.0)"><path d="M 0.0 1080.0 L 1920.0 1080.0 L 1920.0 0.0 L 0.0 0.0 Z M 0.0 1080.0 " fill="#000000"></path><g opacity="0.60"><g><clipPath id="clip0x6080008a0420"><path d="M 0.0 1080.0 L 1920.0 1080.0 L 1920.0 0.0 L 0.0 0.0 Z M 0.0 1080.0 "></path></clipPath><g clip-path="url(#clip0x6080008a0420)"><g><clipPath id="clip0x6080008a0600"><path d="M 0.0 0.0 L 1920.0 0.0 L 1920.0 1080.0 L 0.0 1080.0 Z M 0.0 0.0 "></path></clipPath><g clip-path="url(#clip0x6080008a0600)"><image xlink:href="../../F87C7C7C-CDCF-491D-9791-4C47FEB39F57/assets/1C9DBBE278C2E189E552201868EF83D0.jpeg" width="2816.00" height="2112.00" transform="matrix(0.68, 0.00, -0.00, -0.68, 0.0, 1260.0)"></image></g></g></g></g></g><text xml:space="preserve" font-family="Avenir-Black,Avenir" font-weight="bold" font-size="112.8" fill="#FEFFFF" transform="matrix(1.00, 0.00, -0.00, -1.00, 101.5, 504.3)">S</text><text xml:space="preserve" font-family="Avenir-Black,Avenir" font-weight="bold" font-size="112.8" fill="#FEFFFF" transform="matrix(1.00, 0.00, -0.00, -1.00, 184.3, 504.3)">O</text><text xml:space="preserve" font-family="Avenir-Black,Avenir" font-weight="bold" font-size="112.8" fill="#FEFFFF" transform="matrix(1.00, 0.00, -0.00, -1.00, 296.2, 504.3)">U</text><text xml:space="preserve" font-family="Avenir-Black,Avenir" font-weight="bold" font-size="112.8" fill="#FEFFFF" transform="matrix(1.00, 0.00, -0.00, -1.00, 397.8, 504.3)">R</text><text xml:space="preserve" font-family="Avenir-Black,Avenir" font-weight="bold" font-size="112.8" fill="#FEFFFF" transform="matrix(1.00, 0.00, -0.00, -1.00, 489.0, 504.3)">C</text><text xml:space="preserve" font-family="Avenir-Black,Avenir" font-weight="bold" font-size="112.8" fill="#FEFFFF" transform="matrix(1.00, 0.00, -0.00, -1.00, 584.3, 504.3)">E</text><text xml:space="preserve" font-family="Avenir-Black,Avenir" font-weight="bold" font-size="112.8" fill="#FEFFFF" transform="matrix(1.00, 0.00, -0.00, -1.00, 673.4, 504.3)"> </text><text xml:space="preserve" font-family="Avenir-Black,Avenir" font-weight="bold" font-size="112.8" fill="#FEFFFF" transform="matrix(1.00, 0.00, -0.00, -1.00, 724.8, 504.3)">M</text><text xml:space="preserve" font-family="Avenir-Black,Avenir" font-weight="bold" font-size="112.8" fill="#FEFFFF" transform="matrix(1.00, 0.00, -0.00, -1.00, 849.4, 504.3)">A</text><text xml:space="preserve" font-family="Avenir-Black,Avenir" font-weight="bold" font-size="112.8" fill="#FEFFFF" transform="matrix(1.00, 0.00, -0.00, -1.00, 951.0, 504.3)">P</text><text xml:space="preserve" font-family="Avenir-Black,Avenir" font-weight="bold" font-size="112.8" fill="#FEFFFF" transform="matrix(1.00, 0.00, -0.00, -1.00, 1040.1, 504.3)"> </text><text xml:space="preserve" font-family="Avenir-Black,Avenir" font-weight="bold" font-size="112.8" fill="#FEFFFF" transform="matrix(1.00, 0.00, -0.00, -1.00, 1091.5, 504.3)">S</text><text xml:space="preserve" font-family="Avenir-Black,Avenir" font-weight="bold" font-size="112.8" fill="#FEFFFF" transform="matrix(1.00, 0.00, -0.00, -1.00, 1174.3, 504.3)">U</text><text xml:space="preserve" font-family="Avenir-Black,Avenir" font-weight="bold" font-size="112.8" fill="#FEFFFF" transform="matrix(1.00, 0.00, -0.00, -1.00, 1276.0, 504.3)">P</text><text xml:space="preserve" font-family="Avenir-Black,Avenir" font-weight="bold" font-size="112.8" fill="#FEFFFF" transform="matrix(1.00, 0.00, -0.00, -1.00, 1365.1, 504.3)">P</text><text xml:space="preserve" font-family="Avenir-Black,Avenir" font-weight="bold" font-size="112.8" fill="#FEFFFF" transform="matrix(1.00, 0.00, -0.00, -1.00, 1454.2, 504.3)">O</text><text xml:space="preserve" font-family="Avenir-Black,Avenir" font-weight="bold" font-size="112.8" fill="#FEFFFF" transform="matrix(1.00, 0.00, -0.00, -1.00, 1566.1, 504.3)">R</text><text xml:space="preserve" font-family="Avenir-Black,Avenir" font-weight="bold" font-size="112.8" fill="#FEFFFF" transform="matrix(1.00, 0.00, -0.00, -1.00, 1655.2, 504.3)">T</text></g></svg>