<?xml version="1.0" encoding="UTF-8" standalone="no"?><svg xmlns="http://www.w3.org/2000/svg" xmlns:xlink="http://www.w3.org/1999/xlink" clip-rule="evenodd" stroke-miterlimit="10" viewBox="0 0 1920 1080"><desc>SVG generated by Keynote</desc><defs></defs><g transform="matrix(1.00, 0.00, -0.00, -1.00, 0.0, 1080.0)"><path d="M 0.0 1080.0 L 1920.0 1080.0 L 1920.0 0.0 L 0.0 0.0 Z M 0.0 1080.0 " fill="#000000"></path><g opacity="0.59"><g><clipPath id="clip0x6100006bef60"><path d="M 0.0 1080.0 L 1920.0 1080.0 L 1920.0 0.0 L 0.0 0.0 Z M 0.0 1080.0 "></path></clipPath><g clip-path="url(#clip0x6100006bef60)"><g><clipPath id="clip0x6100006bf0e0"><path d="M 0.0 0.0 L 1920.0 0.0 L 1920.0 1080.0 L 0.0 1080.0 Z M 0.0 0.0 "></path></clipPath><g clip-path="url(#clip0x6100006bf0e0)"><image xlink:href="../../60A19D96-3842-4A90-A39A-E65C763093D7/assets/66D5FDC50FE6D294AC6A9291B73BC778.jpeg" width="1900.00" height="1267.00" transform="matrix(1.01, 0.00, -0.00, -1.01, 0.0, 1180.0)"></image></g></g></g></g></g><text xml:space="preserve" font-family="Avenir-Black,Avenir" font-weight="bold" font-size="86.0" fill="#FEFFFF" transform="matrix(1.00, 0.00, -0.00, -1.00, 99.8, 879.5)">C</text><text xml:space="preserve" font-family="Avenir-Black,Avenir" font-weight="bold" font-size="86.0" fill="#FEFFFF" transform="matrix(1.00, 0.00, -0.00, -1.00, 172.4, 879.5)">L</text><text xml:space="preserve" font-family="Avenir-Black,Avenir" font-weight="bold" font-size="86.0" fill="#FEFFFF" transform="matrix(1.00, 0.00, -0.00, -1.00, 232.4, 879.5)">A</text><text xml:space="preserve" font-family="Avenir-Black,Avenir" font-weight="bold" font-size="86.0" fill="#FEFFFF" transform="matrix(1.00, 0.00, -0.00, -1.00, 309.9, 879.5)">S</text><text xml:space="preserve" font-family="Avenir-Black,Avenir" font-weight="bold" font-size="86.0" fill="#FEFFFF" transform="matrix(1.00, 0.00, -0.00, -1.00, 373.0, 879.5)">S</text><text xml:space="preserve" font-family="Avenir-Black,Avenir" font-weight="bold" font-size="86.0" fill="#FEFFFF" transform="matrix(1.00, 0.00, -0.00, -1.00, 436.1, 879.5)">E</text><text xml:space="preserve" font-family="Avenir-Black,Avenir" font-weight="bold" font-size="86.0" fill="#FEFFFF" transform="matrix(1.00, 0.00, -0.00, -1.00, 504.1, 879.5)">S</text><image xlink:href="876A4911C587B4FC9F787F546C234F7E.png" width="1805.00" height="917.00" transform="matrix(1.00, 0.00, -0.00, -1.00, 57.5, 997.7)"></image><path d="M 98.0 801.0 L 1823.0 801.0 L 1823.0 278.0 L 98.0 278.0 Z M 97.5 801.5 " fill="#4E4E4E" fill-opacity="0.68"></path><g><clipPath id="clip0x6080006a31e0"><path d="M 87.3 268.3 L 1832.7 268.3 L 1832.7 811.7 L 87.3 811.7 Z M 87.3 268.3 "></path></clipPath><g clip-path="url(#clip0x6080006a31e0)"><text xml:space="preserve" font-family="CourierNewPSMT,Courier New" font-size="50.0" fill="#FEFFFF" transform="matrix(1.00, 0.00, -0.00, -1.00, 101.5, 755.5)">v</text><text xml:space="preserve" font-family="CourierNewPSMT,Courier New" font-size="50.0" fill="#FEFFFF" transform="matrix(1.00, 0.00, -0.00, -1.00, 131.5, 755.5)">a</text><text xml:space="preserve" font-family="CourierNewPSMT,Courier New" font-size="50.0" fill="#FEFFFF" transform="matrix(1.00, 0.00, -0.00, -1.00, 161.5, 755.5)">r</text><text xml:space="preserve" font-family="CourierNewPSMT,Courier New" font-size="50.0" fill="#FEFFFF" transform="matrix(1.00, 0.00, -0.00, -1.00, 191.5, 755.5)"> </text><text xml:space="preserve" font-family="CourierNewPSMT,Courier New" font-size="50.0" fill="#FEFFFF" transform="matrix(1.00, 0.00, -0.00, -1.00, 221.5, 755.5)">T</text><text xml:space="preserve" font-family="CourierNewPSMT,Courier New" font-size="50.0" fill="#FEFFFF" transform="matrix(1.00, 0.00, -0.00, -1.00, 251.5, 755.5)">o</text><text xml:space="preserve" font-family="CourierNewPSMT,Courier New" font-size="50.0" fill="#FEFFFF" transform="matrix(1.00, 0.00, -0.00, -1.00, 281.6, 755.5)">d</text><text xml:space="preserve" font-family="CourierNewPSMT,Courier New" font-size="50.0" fill="#FEFFFF" transform="matrix(1.00, 0.00, -0.00, -1.00, 311.6, 755.5)">o</text><text xml:space="preserve" font-family="CourierNewPSMT,Courier New" font-size="50.0" fill="#FEFFFF" transform="matrix(1.00, 0.00, -0.00, -1.00, 341.6, 755.5)">I</text><text xml:space="preserve" font-family="CourierNewPSMT,Courier New" font-size="50.0" fill="#FEFFFF" transform="matrix(1.00, 0.00, -0.00, -1.00, 371.6, 755.5)">t</text><text xml:space="preserve" font-family="CourierNewPSMT,Courier New" font-size="50.0" fill="#FEFFFF" transform="matrix(1.00, 0.00, -0.00, -1.00, 401.6, 755.5)">e</text><text xml:space="preserve" font-family="CourierNewPSMT,Courier New" font-size="50.0" fill="#FEFFFF" transform="matrix(1.00, 0.00, -0.00, -1.00, 431.6, 755.5)">m</text><text xml:space="preserve" font-family="CourierNewPSMT,Courier New" font-size="50.0" fill="#FEFFFF" transform="matrix(1.00, 0.00, -0.00, -1.00, 461.6, 755.5)"> </text><text xml:space="preserve" font-family="CourierNewPSMT,Courier New" font-size="50.0" fill="#FEFFFF" transform="matrix(1.00, 0.00, -0.00, -1.00, 491.6, 755.5)">=</text><text xml:space="preserve" font-family="CourierNewPSMT,Courier New" font-size="50.0" fill="#FEFFFF" transform="matrix(1.00, 0.00, -0.00, -1.00, 521.6, 755.5)"> </text><text xml:space="preserve" font-family="CourierNewPSMT,Courier New" font-size="50.0" fill="#FEFFFF" transform="matrix(1.00, 0.00, -0.00, -1.00, 551.6, 755.5)">(</text><text xml:space="preserve" font-family="CourierNewPSMT,Courier New" font-size="50.0" fill="#FEFFFF" transform="matrix(1.00, 0.00, -0.00, -1.00, 581.7, 755.5)">f</text><text xml:space="preserve" font-family="CourierNewPSMT,Courier New" font-size="50.0" fill="#FEFFFF" transform="matrix(1.00, 0.00, -0.00, -1.00, 611.7, 755.5)">u</text><text xml:space="preserve" font-family="CourierNewPSMT,Courier New" font-size="50.0" fill="#FEFFFF" transform="matrix(1.00, 0.00, -0.00, -1.00, 641.7, 755.5)">n</text><text xml:space="preserve" font-family="CourierNewPSMT,Courier New" font-size="50.0" fill="#FEFFFF" transform="matrix(1.00, 0.00, -0.00, -1.00, 671.7, 755.5)">c</text><text xml:space="preserve" font-family="CourierNewPSMT,Courier New" font-size="50.0" fill="#FEFFFF" transform="matrix(1.00, 0.00, -0.00, -1.00, 701.7, 755.5)">t</text><text xml:space="preserve" font-family="CourierNewPSMT,Courier New" font-size="50.0" fill="#FEFFFF" transform="matrix(1.00, 0.00, -0.00, -1.00, 731.7, 755.5)">i</text><text xml:space="preserve" font-family="CourierNewPSMT,Courier New" font-size="50.0" fill="#FEFFFF" transform="matrix(1.00, 0.00, -0.00, -1.00, 761.7, 755.5)">o</text><text xml:space="preserve" font-family="CourierNewPSMT,Courier New" font-size="50.0" fill="#FEFFFF" transform="matrix(1.00, 0.00, -0.00, -1.00, 791.7, 755.5)">n</text><text xml:space="preserve" font-family="CourierNewPSMT,Courier New" font-size="50.0" fill="#FEFFFF" transform="matrix(1.00, 0.00, -0.00, -1.00, 821.7, 755.5)"> </text><text xml:space="preserve" font-family="CourierNewPSMT,Courier New" font-size="50.0" fill="#FEFFFF" transform="matrix(1.00, 0.00, -0.00, -1.00, 851.7, 755.5)">(</text><text xml:space="preserve" font-family="CourierNewPSMT,Courier New" font-size="50.0" fill="#FEFFFF" transform="matrix(1.00, 0.00, -0.00, -1.00, 881.8, 755.5)">)</text><text xml:space="preserve" font-family="CourierNewPSMT,Courier New" font-size="50.0" fill="#FEFFFF" transform="matrix(1.00, 0.00, -0.00, -1.00, 911.8, 755.5)"> </text><text xml:space="preserve" font-family="CourierNewPSMT,Courier New" font-size="50.0" fill="#FEFFFF" transform="matrix(1.00, 0.00, -0.00, -1.00, 941.8, 755.5)">{</text><text xml:space="preserve" font-family="Monaco,Monaco" font-size="50.0" fill="#FEFFFF" transform="matrix(1.00, 0.00, -0.00, -1.00, 971.6, 755.5)"> </text><text xml:space="preserve" font-family="CourierNewPSMT,Courier New" font-size="50.0" fill="#FEFFFF" transform="matrix(1.00, 0.00, -0.00, -1.00, 101.5, 698.5)"> </text><text xml:space="preserve" font-family="CourierNewPSMT,Courier New" font-size="50.0" fill="#FEFFFF" transform="matrix(1.00, 0.00, -0.00, -1.00, 131.5, 698.5)"> </text><text xml:space="preserve" font-family="CourierNewPSMT,Courier New" font-size="50.0" fill="#FEFFFF" transform="matrix(1.00, 0.00, -0.00, -1.00, 161.5, 698.5)">f</text><text xml:space="preserve" font-family="CourierNewPSMT,Courier New" font-size="50.0" fill="#FEFFFF" transform="matrix(1.00, 0.00, -0.00, -1.00, 191.5, 698.5)">u</text><text xml:space="preserve" font-family="CourierNewPSMT,Courier New" font-size="50.0" fill="#FEFFFF" transform="matrix(1.00, 0.00, -0.00, -1.00, 221.5, 698.5)">n</text><text xml:space="preserve" font-family="CourierNewPSMT,Courier New" font-size="50.0" fill="#FEFFFF" transform="matrix(1.00, 0.00, -0.00, -1.00, 251.5, 698.5)">c</text><text xml:space="preserve" font-family="CourierNewPSMT,Courier New" font-size="50.0" fill="#FEFFFF" transform="matrix(1.00, 0.00, -0.00, -1.00, 281.6, 698.5)">t</text><text xml:space="preserve" font-family="CourierNewPSMT,Courier New" font-size="50.0" fill="#FEFFFF" transform="matrix(1.00, 0.00, -0.00, -1.00, 311.6, 698.5)">i</text><text xml:space="preserve" font-family="CourierNewPSMT,Courier New" font-size="50.0" fill="#FEFFFF" transform="matrix(1.00, 0.00, -0.00, -1.00, 341.6, 698.5)">o</text><text xml:space="preserve" font-family="CourierNewPSMT,Courier New" font-size="50.0" fill="#FEFFFF" transform="matrix(1.00, 0.00, -0.00, -1.00, 371.6, 698.5)">n</text><text xml:space="preserve" font-family="CourierNewPSMT,Courier New" font-size="50.0" fill="#FEFFFF" transform="matrix(1.00, 0.00, -0.00, -1.00, 401.6, 698.5)"> </text><text xml:space="preserve" font-family="CourierNewPSMT,Courier New" font-size="50.0" fill="#FEFFFF" transform="matrix(1.00, 0.00, -0.00, -1.00, 431.6, 698.5)">T</text><text xml:space="preserve" font-family="CourierNewPSMT,Courier New" font-size="50.0" fill="#FEFFFF" transform="matrix(1.00, 0.00, -0.00, -1.00, 461.6, 698.5)">o</text><text xml:space="preserve" font-family="CourierNewPSMT,Courier New" font-size="50.0" fill="#FEFFFF" transform="matrix(1.00, 0.00, -0.00, -1.00, 491.6, 698.5)">d</text><text xml:space="preserve" font-family="CourierNewPSMT,Courier New" font-size="50.0" fill="#FEFFFF" transform="matrix(1.00, 0.00, -0.00, -1.00, 521.6, 698.5)">o</text><text xml:space="preserve" font-family="CourierNewPSMT,Courier New" font-size="50.0" fill="#FEFFFF" transform="matrix(1.00, 0.00, -0.00, -1.00, 551.6, 698.5)">I</text><text xml:space="preserve" font-family="CourierNewPSMT,Courier New" font-size="50.0" fill="#FEFFFF" transform="matrix(1.00, 0.00, -0.00, -1.00, 581.7, 698.5)">t</text><text xml:space="preserve" font-family="CourierNewPSMT,Courier New" font-size="50.0" fill="#FEFFFF" transform="matrix(1.00, 0.00, -0.00, -1.00, 611.7, 698.5)">e</text><text xml:space="preserve" font-family="CourierNewPSMT,Courier New" font-size="50.0" fill="#FEFFFF" transform="matrix(1.00, 0.00, -0.00, -1.00, 641.7, 698.5)">m</text><text xml:space="preserve" font-family="CourierNewPSMT,Courier New" font-size="50.0" fill="#FEFFFF" transform="matrix(1.00, 0.00, -0.00, -1.00, 671.7, 698.5)">(</text><text xml:space="preserve" font-family="CourierNewPSMT,Courier New" font-size="50.0" fill="#FEFFFF" transform="matrix(1.00, 0.00, -0.00, -1.00, 701.7, 698.5)">t</text><text xml:space="preserve" font-family="CourierNewPSMT,Courier New" font-size="50.0" fill="#FEFFFF" transform="matrix(1.00, 0.00, -0.00, -1.00, 731.7, 698.5)">i</text><text xml:space="preserve" font-family="CourierNewPSMT,Courier New" font-size="50.0" fill="#FEFFFF" transform="matrix(1.00, 0.00, -0.00, -1.00, 761.7, 698.5)">t</text><text xml:space="preserve" font-family="CourierNewPSMT,Courier New" font-size="50.0" fill="#FEFFFF" transform="matrix(1.00, 0.00, -0.00, -1.00, 791.7, 698.5)">l</text><text xml:space="preserve" font-family="CourierNewPSMT,Courier New" font-size="50.0" fill="#FEFFFF" transform="matrix(1.00, 0.00, -0.00, -1.00, 821.7, 698.5)">e</text><text xml:space="preserve" font-family="CourierNewPSMT,Courier New" font-size="50.0" fill="#FEFFFF" transform="matrix(1.00, 0.00, -0.00, -1.00, 851.7, 698.5)">,</text><text xml:space="preserve" font-family="CourierNewPSMT,Courier New" font-size="50.0" fill="#FEFFFF" transform="matrix(1.00, 0.00, -0.00, -1.00, 881.8, 698.5)"> </text><text xml:space="preserve" font-family="CourierNewPSMT,Courier New" font-size="50.0" fill="#FEFFFF" transform="matrix(1.00, 0.00, -0.00, -1.00, 911.8, 698.5)">c</text><text xml:space="preserve" font-family="CourierNewPSMT,Courier New" font-size="50.0" fill="#FEFFFF" transform="matrix(1.00, 0.00, -0.00, -1.00, 941.8, 698.5)">o</text><text xml:space="preserve" font-family="CourierNewPSMT,Courier New" font-size="50.0" fill="#FEFFFF" transform="matrix(1.00, 0.00, -0.00, -1.00, 971.8, 698.5)">m</text><text xml:space="preserve" font-family="CourierNewPSMT,Courier New" font-size="50.0" fill="#FEFFFF" transform="matrix(1.00, 0.00, -0.00, -1.00, 1001.8, 698.5)">p</text><text xml:space="preserve" font-family="CourierNewPSMT,Courier New" font-size="50.0" fill="#FEFFFF" transform="matrix(1.00, 0.00, -0.00, -1.00, 1031.8, 698.5)">l</text><text xml:space="preserve" font-family="CourierNewPSMT,Courier New" font-size="50.0" fill="#FEFFFF" transform="matrix(1.00, 0.00, -0.00, -1.00, 1061.8, 698.5)">e</text><text xml:space="preserve" font-family="CourierNewPSMT,Courier New" font-size="50.0" fill="#FEFFFF" transform="matrix(1.00, 0.00, -0.00, -1.00, 1091.8, 698.5)">t</text><text xml:space="preserve" font-family="CourierNewPSMT,Courier New" font-size="50.0" fill="#FEFFFF" transform="matrix(1.00, 0.00, -0.00, -1.00, 1121.8, 698.5)">e</text><text xml:space="preserve" font-family="CourierNewPSMT,Courier New" font-size="50.0" fill="#FEFFFF" transform="matrix(1.00, 0.00, -0.00, -1.00, 1151.8, 698.5)">d</text><text xml:space="preserve" font-family="CourierNewPSMT,Courier New" font-size="50.0" fill="#FEFFFF" transform="matrix(1.00, 0.00, -0.00, -1.00, 1181.9, 698.5)">)</text><text xml:space="preserve" font-family="CourierNewPSMT,Courier New" font-size="50.0" fill="#FEFFFF" transform="matrix(1.00, 0.00, -0.00, -1.00, 1211.9, 698.5)"> </text><text xml:space="preserve" font-family="CourierNewPSMT,Courier New" font-size="50.0" fill="#FEFFFF" transform="matrix(1.00, 0.00, -0.00, -1.00, 1241.9, 698.5)">{</text><text xml:space="preserve" font-family="Monaco,Monaco" font-size="50.0" fill="#FEFFFF" transform="matrix(1.00, 0.00, -0.00, -1.00, 1271.7, 698.5)"> </text><text xml:space="preserve" font-family="CourierNewPSMT,Courier New" font-size="50.0" fill="#FEFFFF" transform="matrix(1.00, 0.00, -0.00, -1.00, 101.5, 641.5)"> </text><text xml:space="preserve" font-family="CourierNewPSMT,Courier New" font-size="50.0" fill="#FEFFFF" transform="matrix(1.00, 0.00, -0.00, -1.00, 131.5, 641.5)"> </text><text xml:space="preserve" font-family="CourierNewPSMT,Courier New" font-size="50.0" fill="#FEFFFF" transform="matrix(1.00, 0.00, -0.00, -1.00, 161.5, 641.5)"> </text><text xml:space="preserve" font-family="CourierNewPSMT,Courier New" font-size="50.0" fill="#FEFFFF" transform="matrix(1.00, 0.00, -0.00, -1.00, 191.5, 641.5)"> </text><text xml:space="preserve" font-family="CourierNewPSMT,Courier New" font-size="50.0" fill="#FEFFFF" transform="matrix(1.00, 0.00, -0.00, -1.00, 221.5, 641.5)">t</text><text xml:space="preserve" font-family="CourierNewPSMT,Courier New" font-size="50.0" fill="#FEFFFF" transform="matrix(1.00, 0.00, -0.00, -1.00, 251.5, 641.5)">h</text><text xml:space="preserve" font-family="CourierNewPSMT,Courier New" font-size="50.0" fill="#FEFFFF" transform="matrix(1.00, 0.00, -0.00, -1.00, 281.6, 641.5)">i</text><text xml:space="preserve" font-family="CourierNewPSMT,Courier New" font-size="50.0" fill="#FEFFFF" transform="matrix(1.00, 0.00, -0.00, -1.00, 311.6, 641.5)">s</text><text xml:space="preserve" font-family="CourierNewPSMT,Courier New" font-size="50.0" fill="#FEFFFF" transform="matrix(1.00, 0.00, -0.00, -1.00, 341.6, 641.5)">.</text><text xml:space="preserve" font-family="CourierNewPSMT,Courier New" font-size="50.0" fill="#FEFFFF" transform="matrix(1.00, 0.00, -0.00, -1.00, 371.6, 641.5)">t</text><text xml:space="preserve" font-family="CourierNewPSMT,Courier New" font-size="50.0" fill="#FEFFFF" transform="matrix(1.00, 0.00, -0.00, -1.00, 401.6, 641.5)">i</text><text xml:space="preserve" font-family="CourierNewPSMT,Courier New" font-size="50.0" fill="#FEFFFF" transform="matrix(1.00, 0.00, -0.00, -1.00, 431.6, 641.5)">t</text><text xml:space="preserve" font-family="CourierNewPSMT,Courier New" font-size="50.0" fill="#FEFFFF" transform="matrix(1.00, 0.00, -0.00, -1.00, 461.6, 641.5)">l</text><text xml:space="preserve" font-family="CourierNewPSMT,Courier New" font-size="50.0" fill="#FEFFFF" transform="matrix(1.00, 0.00, -0.00, -1.00, 491.6, 641.5)">e</text><text xml:space="preserve" font-family="CourierNewPSMT,Courier New" font-size="50.0" fill="#FEFFFF" transform="matrix(1.00, 0.00, -0.00, -1.00, 521.6, 641.5)"> </text><text xml:space="preserve" font-family="CourierNewPSMT,Courier New" font-size="50.0" fill="#FEFFFF" transform="matrix(1.00, 0.00, -0.00, -1.00, 551.6, 641.5)">=</text><text xml:space="preserve" font-family="CourierNewPSMT,Courier New" font-size="50.0" fill="#FEFFFF" transform="matrix(1.00, 0.00, -0.00, -1.00, 581.7, 641.5)"> </text><text xml:space="preserve" font-family="CourierNewPSMT,Courier New" font-size="50.0" fill="#FEFFFF" transform="matrix(1.00, 0.00, -0.00, -1.00, 611.7, 641.5)">t</text><text xml:space="preserve" font-family="CourierNewPSMT,Courier New" font-size="50.0" fill="#FEFFFF" transform="matrix(1.00, 0.00, -0.00, -1.00, 641.7, 641.5)">i</text><text xml:space="preserve" font-family="CourierNewPSMT,Courier New" font-size="50.0" fill="#FEFFFF" transform="matrix(1.00, 0.00, -0.00, -1.00, 671.7, 641.5)">t</text><text xml:space="preserve" font-family="CourierNewPSMT,Courier New" font-size="50.0" fill="#FEFFFF" transform="matrix(1.00, 0.00, -0.00, -1.00, 701.7, 641.5)">l</text><text xml:space="preserve" font-family="CourierNewPSMT,Courier New" font-size="50.0" fill="#FEFFFF" transform="matrix(1.00, 0.00, -0.00, -1.00, 731.7, 641.5)">e</text><text xml:space="preserve" font-family="CourierNewPSMT,Courier New" font-size="50.0" fill="#FEFFFF" transform="matrix(1.00, 0.00, -0.00, -1.00, 761.7, 641.5)">;</text><text xml:space="preserve" font-family="Monaco,Monaco" font-size="50.0" fill="#FEFFFF" transform="matrix(1.00, 0.00, -0.00, -1.00, 791.6, 641.5)"> </text><text xml:space="preserve" font-family="CourierNewPSMT,Courier New" font-size="50.0" fill="#FEFFFF" transform="matrix(1.00, 0.00, -0.00, -1.00, 101.5, 584.5)"> </text><text xml:space="preserve" font-family="CourierNewPSMT,Courier New" font-size="50.0" fill="#FEFFFF" transform="matrix(1.00, 0.00, -0.00, -1.00, 131.5, 584.5)"> </text><text xml:space="preserve" font-family="CourierNewPSMT,Courier New" font-size="50.0" fill="#FEFFFF" transform="matrix(1.00, 0.00, -0.00, -1.00, 161.5, 584.5)"> </text><text xml:space="preserve" font-family="CourierNewPSMT,Courier New" font-size="50.0" fill="#FEFFFF" transform="matrix(1.00, 0.00, -0.00, -1.00, 191.5, 584.5)"> </text><text xml:space="preserve" font-family="CourierNewPSMT,Courier New" font-size="50.0" fill="#FEFFFF" transform="matrix(1.00, 0.00, -0.00, -1.00, 221.5, 584.5)">t</text><text xml:space="preserve" font-family="CourierNewPSMT,Courier New" font-size="50.0" fill="#FEFFFF" transform="matrix(1.00, 0.00, -0.00, -1.00, 251.5, 584.5)">h</text><text xml:space="preserve" font-family="CourierNewPSMT,Courier New" font-size="50.0" fill="#FEFFFF" transform="matrix(1.00, 0.00, -0.00, -1.00, 281.6, 584.5)">i</text><text xml:space="preserve" font-family="CourierNewPSMT,Courier New" font-size="50.0" fill="#FEFFFF" transform="matrix(1.00, 0.00, -0.00, -1.00, 311.6, 584.5)">s</text><text xml:space="preserve" font-family="CourierNewPSMT,Courier New" font-size="50.0" fill="#FEFFFF" transform="matrix(1.00, 0.00, -0.00, -1.00, 341.6, 584.5)">.</text><text xml:space="preserve" font-family="CourierNewPSMT,Courier New" font-size="50.0" fill="#FEFFFF" transform="matrix(1.00, 0.00, -0.00, -1.00, 371.6, 584.5)">c</text><text xml:space="preserve" font-family="CourierNewPSMT,Courier New" font-size="50.0" fill="#FEFFFF" transform="matrix(1.00, 0.00, -0.00, -1.00, 401.6, 584.5)">o</text><text xml:space="preserve" font-family="CourierNewPSMT,Courier New" font-size="50.0" fill="#FEFFFF" transform="matrix(1.00, 0.00, -0.00, -1.00, 431.6, 584.5)">m</text><text xml:space="preserve" font-family="CourierNewPSMT,Courier New" font-size="50.0" fill="#FEFFFF" transform="matrix(1.00, 0.00, -0.00, -1.00, 461.6, 584.5)">p</text><text xml:space="preserve" font-family="CourierNewPSMT,Courier New" font-size="50.0" fill="#FEFFFF" transform="matrix(1.00, 0.00, -0.00, -1.00, 491.6, 584.5)">l</text><text xml:space="preserve" font-family="CourierNewPSMT,Courier New" font-size="50.0" fill="#FEFFFF" transform="matrix(1.00, 0.00, -0.00, -1.00, 521.6, 584.5)">e</text><text xml:space="preserve" font-family="CourierNewPSMT,Courier New" font-size="50.0" fill="#FEFFFF" transform="matrix(1.00, 0.00, -0.00, -1.00, 551.6, 584.5)">t</text><text xml:space="preserve" font-family="CourierNewPSMT,Courier New" font-size="50.0" fill="#FEFFFF" transform="matrix(1.00, 0.00, -0.00, -1.00, 581.7, 584.5)">e</text><text xml:space="preserve" font-family="CourierNewPSMT,Courier New" font-size="50.0" fill="#FEFFFF" transform="matrix(1.00, 0.00, -0.00, -1.00, 611.7, 584.5)">d</text><text xml:space="preserve" font-family="CourierNewPSMT,Courier New" font-size="50.0" fill="#FEFFFF" transform="matrix(1.00, 0.00, -0.00, -1.00, 641.7, 584.5)"> </text><text xml:space="preserve" font-family="CourierNewPSMT,Courier New" font-size="50.0" fill="#FEFFFF" transform="matrix(1.00, 0.00, -0.00, -1.00, 671.7, 584.5)">=</text><text xml:space="preserve" font-family="CourierNewPSMT,Courier New" font-size="50.0" fill="#FEFFFF" transform="matrix(1.00, 0.00, -0.00, -1.00, 701.7, 584.5)"> </text><text xml:space="preserve" font-family="CourierNewPSMT,Courier New" font-size="50.0" fill="#FEFFFF" transform="matrix(1.00, 0.00, -0.00, -1.00, 731.7, 584.5)">c</text><text xml:space="preserve" font-family="CourierNewPSMT,Courier New" font-size="50.0" fill="#FEFFFF" transform="matrix(1.00, 0.00, -0.00, -1.00, 761.7, 584.5)">o</text><text xml:space="preserve" font-family="CourierNewPSMT,Courier New" font-size="50.0" fill="#FEFFFF" transform="matrix(1.00, 0.00, -0.00, -1.00, 791.7, 584.5)">m</text><text xml:space="preserve" font-family="CourierNewPSMT,Courier New" font-size="50.0" fill="#FEFFFF" transform="matrix(1.00, 0.00, -0.00, -1.00, 821.7, 584.5)">p</text><text xml:space="preserve" font-family="CourierNewPSMT,Courier New" font-size="50.0" fill="#FEFFFF" transform="matrix(1.00, 0.00, -0.00, -1.00, 851.7, 584.5)">l</text><text xml:space="preserve" font-family="CourierNewPSMT,Courier New" font-size="50.0" fill="#FEFFFF" transform="matrix(1.00, 0.00, -0.00, -1.00, 881.8, 584.5)">e</text><text xml:space="preserve" font-family="CourierNewPSMT,Courier New" font-size="50.0" fill="#FEFFFF" transform="matrix(1.00, 0.00, -0.00, -1.00, 911.8, 584.5)">t</text><text xml:space="preserve" font-family="CourierNewPSMT,Courier New" font-size="50.0" fill="#FEFFFF" transform="matrix(1.00, 0.00, -0.00, -1.00, 941.8, 584.5)">e</text><text xml:space="preserve" font-family="CourierNewPSMT,Courier New" font-size="50.0" fill="#FEFFFF" transform="matrix(1.00, 0.00, -0.00, -1.00, 971.8, 584.5)">d</text><text xml:space="preserve" font-family="CourierNewPSMT,Courier New" font-size="50.0" fill="#FEFFFF" transform="matrix(1.00, 0.00, -0.00, -1.00, 1001.8, 584.5)">;</text><text xml:space="preserve" font-family="Monaco,Monaco" font-size="50.0" fill="#FEFFFF" transform="matrix(1.00, 0.00, -0.00, -1.00, 1031.7, 584.5)"> </text><text xml:space="preserve" font-family="CourierNewPSMT,Courier New" font-size="50.0" fill="#FEFFFF" transform="matrix(1.00, 0.00, -0.00, -1.00, 101.5, 527.5)"> </text><text xml:space="preserve" font-family="CourierNewPSMT,Courier New" font-size="50.0" fill="#FEFFFF" transform="matrix(1.00, 0.00, -0.00, -1.00, 131.5, 527.5)"> </text><text xml:space="preserve" font-family="CourierNewPSMT,Courier New" font-size="50.0" fill="#FEFFFF" transform="matrix(1.00, 0.00, -0.00, -1.00, 161.5, 527.5)">}</text><text xml:space="preserve" font-family="Monaco,Monaco" font-size="50.0" fill="#FEFFFF" transform="matrix(1.00, 0.00, -0.00, -1.00, 191.5, 527.5)"> </text><text xml:space="preserve" font-family="CourierNewPSMT,Courier New" font-size="50.0" fill="#FEFFFF" transform="matrix(1.00, 0.00, -0.00, -1.00, 101.5, 470.5)"> </text><text xml:space="preserve" font-family="CourierNewPSMT,Courier New" font-size="50.0" fill="#FEFFFF" transform="matrix(1.00, 0.00, -0.00, -1.00, 131.5, 470.5)"> </text><text xml:space="preserve" font-family="CourierNewPSMT,Courier New" font-size="50.0" fill="#FEFFFF" transform="matrix(1.00, 0.00, -0.00, -1.00, 161.5, 470.5)">r</text><text xml:space="preserve" font-family="CourierNewPSMT,Courier New" font-size="50.0" fill="#FEFFFF" transform="matrix(1.00, 0.00, -0.00, -1.00, 191.5, 470.5)">e</text><text xml:space="preserve" font-family="CourierNewPSMT,Courier New" font-size="50.0" fill="#FEFFFF" transform="matrix(1.00, 0.00, -0.00, -1.00, 221.5, 470.5)">t</text><text xml:space="preserve" font-family="CourierNewPSMT,Courier New" font-size="50.0" fill="#FEFFFF" transform="matrix(1.00, 0.00, -0.00, -1.00, 251.5, 470.5)">u</text><text xml:space="preserve" font-family="CourierNewPSMT,Courier New" font-size="50.0" fill="#FEFFFF" transform="matrix(1.00, 0.00, -0.00, -1.00, 281.6, 470.5)">r</text><text xml:space="preserve" font-family="CourierNewPSMT,Courier New" font-size="50.0" fill="#FEFFFF" transform="matrix(1.00, 0.00, -0.00, -1.00, 311.6, 470.5)">n</text><text xml:space="preserve" font-family="CourierNewPSMT,Courier New" font-size="50.0" fill="#FEFFFF" transform="matrix(1.00, 0.00, -0.00, -1.00, 341.6, 470.5)"> </text><text xml:space="preserve" font-family="CourierNewPSMT,Courier New" font-size="50.0" fill="#FEFFFF" transform="matrix(1.00, 0.00, -0.00, -1.00, 371.6, 470.5)">T</text><text xml:space="preserve" font-family="CourierNewPSMT,Courier New" font-size="50.0" fill="#FEFFFF" transform="matrix(1.00, 0.00, -0.00, -1.00, 401.6, 470.5)">o</text><text xml:space="preserve" font-family="CourierNewPSMT,Courier New" font-size="50.0" fill="#FEFFFF" transform="matrix(1.00, 0.00, -0.00, -1.00, 431.6, 470.5)">d</text><text xml:space="preserve" font-family="CourierNewPSMT,Courier New" font-size="50.0" fill="#FEFFFF" transform="matrix(1.00, 0.00, -0.00, -1.00, 461.6, 470.5)">o</text><text xml:space="preserve" font-family="CourierNewPSMT,Courier New" font-size="50.0" fill="#FEFFFF" transform="matrix(1.00, 0.00, -0.00, -1.00, 491.6, 470.5)">I</text><text xml:space="preserve" font-family="CourierNewPSMT,Courier New" font-size="50.0" fill="#FEFFFF" transform="matrix(1.00, 0.00, -0.00, -1.00, 521.6, 470.5)">t</text><text xml:space="preserve" font-family="CourierNewPSMT,Courier New" font-size="50.0" fill="#FEFFFF" transform="matrix(1.00, 0.00, -0.00, -1.00, 551.6, 470.5)">e</text><text xml:space="preserve" font-family="CourierNewPSMT,Courier New" font-size="50.0" fill="#FEFFFF" transform="matrix(1.00, 0.00, -0.00, -1.00, 581.7, 470.5)">m</text><text xml:space="preserve" font-family="CourierNewPSMT,Courier New" font-size="50.0" fill="#FEFFFF" transform="matrix(1.00, 0.00, -0.00, -1.00, 611.7, 470.5)">;</text><text xml:space="preserve" font-family="Monaco,Monaco" font-size="50.0" fill="#FEFFFF" transform="matrix(1.00, 0.00, -0.00, -1.00, 641.6, 470.5)"> </text><text xml:space="preserve" font-family="CourierNewPSMT,Courier New" font-size="50.0" fill="#FEFFFF" transform="matrix(1.00, 0.00, -0.00, -1.00, 101.5, 413.5)">}</text><text xml:space="preserve" font-family="CourierNewPSMT,Courier New" font-size="50.0" fill="#FEFFFF" transform="matrix(1.00, 0.00, -0.00, -1.00, 131.5, 413.5)">)</text><text xml:space="preserve" font-family="CourierNewPSMT,Courier New" font-size="50.0" fill="#FEFFFF" transform="matrix(1.00, 0.00, -0.00, -1.00, 161.5, 413.5)">(</text><text xml:space="preserve" font-family="CourierNewPSMT,Courier New" font-size="50.0" fill="#FEFFFF" transform="matrix(1.00, 0.00, -0.00, -1.00, 191.5, 413.5)">)</text><text xml:space="preserve" font-family="CourierNewPSMT,Courier New" font-size="50.0" fill="#FEFFFF" transform="matrix(1.00, 0.00, -0.00, -1.00, 221.5, 413.5)">;</text><text xml:space="preserve" font-family="CourierNewPSMT,Courier New" font-size="50.0" fill="#FEFFFF" transform="matrix(1.00, 0.00, -0.00, -1.00, 251.5, 413.5)"> </text><text xml:space="preserve" font-family="CourierNewPSMT,Courier New" font-size="50.0" fill="#FEFFFF" transform="matrix(1.00, 0.00, -0.00, -1.00, 101.5, 297.5)">e</text><text xml:space="preserve" font-family="CourierNewPSMT,Courier New" font-size="50.0" fill="#FEFFFF" transform="matrix(1.00, 0.00, -0.00, -1.00, 131.5, 297.5)">x</text><text xml:space="preserve" font-family="CourierNewPSMT,Courier New" font-size="50.0" fill="#FEFFFF" transform="matrix(1.00, 0.00, -0.00, -1.00, 161.5, 297.5)">p</text><text xml:space="preserve" font-family="CourierNewPSMT,Courier New" font-size="50.0" fill="#FEFFFF" transform="matrix(1.00, 0.00, -0.00, -1.00, 191.5, 297.5)">o</text><text xml:space="preserve" font-family="CourierNewPSMT,Courier New" font-size="50.0" fill="#FEFFFF" transform="matrix(1.00, 0.00, -0.00, -1.00, 221.5, 297.5)">r</text><text xml:space="preserve" font-family="CourierNewPSMT,Courier New" font-size="50.0" fill="#FEFFFF" transform="matrix(1.00, 0.00, -0.00, -1.00, 251.5, 297.5)">t</text><text xml:space="preserve" font-family="CourierNewPSMT,Courier New" font-size="50.0" fill="#FEFFFF" transform="matrix(1.00, 0.00, -0.00, -1.00, 281.6, 297.5)">s</text><text xml:space="preserve" font-family="CourierNewPSMT,Courier New" font-size="50.0" fill="#FEFFFF" transform="matrix(1.00, 0.00, -0.00, -1.00, 311.6, 297.5)">.</text><text xml:space="preserve" font-family="CourierNewPSMT,Courier New" font-size="50.0" fill="#FEFFFF" transform="matrix(1.00, 0.00, -0.00, -1.00, 341.6, 297.5)">T</text><text xml:space="preserve" font-family="CourierNewPSMT,Courier New" font-size="50.0" fill="#FEFFFF" transform="matrix(1.00, 0.00, -0.00, -1.00, 371.6, 297.5)">o</text><text xml:space="preserve" font-family="CourierNewPSMT,Courier New" font-size="50.0" fill="#FEFFFF" transform="matrix(1.00, 0.00, -0.00, -1.00, 401.6, 297.5)">d</text><text xml:space="preserve" font-family="CourierNewPSMT,Courier New" font-size="50.0" fill="#FEFFFF" transform="matrix(1.00, 0.00, -0.00, -1.00, 431.6, 297.5)">o</text><text xml:space="preserve" font-family="CourierNewPSMT,Courier New" font-size="50.0" fill="#FEFFFF" transform="matrix(1.00, 0.00, -0.00, -1.00, 461.6, 297.5)">I</text><text xml:space="preserve" font-family="CourierNewPSMT,Courier New" font-size="50.0" fill="#FEFFFF" transform="matrix(1.00, 0.00, -0.00, -1.00, 491.6, 297.5)">t</text><text xml:space="preserve" font-family="CourierNewPSMT,Courier New" font-size="50.0" fill="#FEFFFF" transform="matrix(1.00, 0.00, -0.00, -1.00, 521.6, 297.5)">e</text><text xml:space="preserve" font-family="CourierNewPSMT,Courier New" font-size="50.0" fill="#FEFFFF" transform="matrix(1.00, 0.00, -0.00, -1.00, 551.6, 297.5)">m</text><text xml:space="preserve" font-family="CourierNewPSMT,Courier New" font-size="50.0" fill="#FEFFFF" transform="matrix(1.00, 0.00, -0.00, -1.00, 581.7, 297.5)"> </text><text xml:space="preserve" font-family="CourierNewPSMT,Courier New" font-size="50.0" fill="#FEFFFF" transform="matrix(1.00, 0.00, -0.00, -1.00, 611.7, 297.5)">=</text><text xml:space="preserve" font-family="CourierNewPSMT,Courier New" font-size="50.0" fill="#FEFFFF" transform="matrix(1.00, 0.00, -0.00, -1.00, 641.7, 297.5)"> </text><text xml:space="preserve" font-family="CourierNewPSMT,Courier New" font-size="50.0" fill="#FEFFFF" transform="matrix(1.00, 0.00, -0.00, -1.00, 671.7, 297.5)">T</text><text xml:space="preserve" font-family="CourierNewPSMT,Courier New" font-size="50.0" fill="#FEFFFF" transform="matrix(1.00, 0.00, -0.00, -1.00, 701.7, 297.5)">o</text><text xml:space="preserve" font-family="CourierNewPSMT,Courier New" font-size="50.0" fill="#FEFFFF" transform="matrix(1.00, 0.00, -0.00, -1.00, 731.7, 297.5)">d</text><text xml:space="preserve" font-family="CourierNewPSMT,Courier New" font-size="50.0" fill="#FEFFFF" transform="matrix(1.00, 0.00, -0.00, -1.00, 761.7, 297.5)">o</text><text xml:space="preserve" font-family="CourierNewPSMT,Courier New" font-size="50.0" fill="#FEFFFF" transform="matrix(1.00, 0.00, -0.00, -1.00, 791.7, 297.5)">I</text><text xml:space="preserve" font-family="CourierNewPSMT,Courier New" font-size="50.0" fill="#FEFFFF" transform="matrix(1.00, 0.00, -0.00, -1.00, 821.7, 297.5)">t</text><text xml:space="preserve" font-family="CourierNewPSMT,Courier New" font-size="50.0" fill="#FEFFFF" transform="matrix(1.00, 0.00, -0.00, -1.00, 851.7, 297.5)">e</text><text xml:space="preserve" font-family="CourierNewPSMT,Courier New" font-size="50.0" fill="#FEFFFF" transform="matrix(1.00, 0.00, -0.00, -1.00, 881.8, 297.5)">m</text><text xml:space="preserve" font-family="CourierNewPSMT,Courier New" font-size="50.0" fill="#FEFFFF" transform="matrix(1.00, 0.00, -0.00, -1.00, 911.8, 297.5)">;</text></g></g></g></svg>