<?xml version="1.0" encoding="UTF-8" standalone="no"?><svg xmlns="http://www.w3.org/2000/svg" xmlns:xlink="http://www.w3.org/1999/xlink" clip-rule="evenodd" stroke-miterlimit="10" viewBox="0 0 1920 1080"><desc>SVG generated by Keynote</desc><defs></defs><g transform="matrix(1.00, 0.00, -0.00, -1.00, 0.0, 1080.0)"><g><clipPath id="clip0x6000006b7220"><path d="M 0.0 1080.0 L 1920.0 1080.0 L 1920.0 0.0 L 0.0 0.0 Z M 0.0 1080.0 "></path></clipPath><g clip-path="url(#clip0x6000006b7220)"><image xlink:href="29E758BB51AF39F3B7E53EDFDEAF7546.png" width="1840.00" height="1117.00" transform="matrix(1.04, 0.00, -0.00, -1.04, 0.0, 1122.8)"></image></g></g><text xml:space="preserve" font-family="Avenir-Book,Avenir" font-size="72.0" fill="#000000" transform="matrix(1.00, 0.00, -0.00, -1.00, 178.2, 727.6)">S</text><text xml:space="preserve" font-family="Avenir-Book,Avenir" font-size="72.0" fill="#000000" transform="matrix(1.00, 0.00, -0.00, -1.00, 218.3, 727.6)">t</text><text xml:space="preserve" font-family="Avenir-Book,Avenir" font-size="72.0" fill="#000000" transform="matrix(1.00, 0.00, -0.00, -1.00, 242.2, 727.6)">a</text><text xml:space="preserve" font-family="Avenir-Book,Avenir" font-size="72.0" fill="#000000" transform="matrix(1.00, 0.00, -0.00, -1.00, 279.5, 727.6)">t</text><text xml:space="preserve" font-family="Avenir-Book,Avenir" font-size="72.0" fill="#000000" transform="matrix(1.00, 0.00, -0.00, -1.00, 303.4, 727.6)">i</text><text xml:space="preserve" font-family="Avenir-Book,Avenir" font-size="72.0" fill="#000000" transform="matrix(1.00, 0.00, -0.00, -1.00, 320.7, 727.6)">c</text><text xml:space="preserve" font-family="Avenir-Book,Avenir" font-size="72.0" fill="#000000" transform="matrix(1.00, 0.00, -0.00, -1.00, 355.4, 727.6)"> </text><text xml:space="preserve" font-family="Avenir-Book,Avenir" font-size="72.0" fill="#000000" transform="matrix(1.00, 0.00, -0.00, -1.00, 375.4, 727.6)">t</text><text xml:space="preserve" font-family="Avenir-Book,Avenir" font-size="72.0" fill="#000000" transform="matrix(1.00, 0.00, -0.00, -1.00, 399.4, 727.6)">y</text><text xml:space="preserve" font-family="Avenir-Book,Avenir" font-size="72.0" fill="#000000" transform="matrix(1.00, 0.00, -0.00, -1.00, 434.1, 727.6)">p</text><text xml:space="preserve" font-family="Avenir-Book,Avenir" font-size="72.0" fill="#000000" transform="matrix(1.00, 0.00, -0.00, -1.00, 478.0, 727.6)">i</text><text xml:space="preserve" font-family="Avenir-Book,Avenir" font-size="72.0" fill="#000000" transform="matrix(1.00, 0.00, -0.00, -1.00, 495.3, 727.6)">n</text><text xml:space="preserve" font-family="Avenir-Book,Avenir" font-size="72.0" fill="#000000" transform="matrix(1.00, 0.00, -0.00, -1.00, 535.4, 727.6)">g</text><text xml:space="preserve" font-family="Avenir-Book,Avenir" font-size="72.0" fill="#000000" transform="matrix(1.00, 0.00, -0.00, -1.00, 579.4, 727.6)"> </text><text xml:space="preserve" font-family="Avenir-Book,Avenir" font-size="72.0" fill="#000000" transform="matrix(1.00, 0.00, -0.00, -1.00, 599.4, 727.6)">d</text><text xml:space="preserve" font-family="Avenir-Book,Avenir" font-size="72.0" fill="#000000" transform="matrix(1.00, 0.00, -0.00, -1.00, 643.4, 727.6)">o</text><text xml:space="preserve" font-family="Avenir-Book,Avenir" font-size="72.0" fill="#000000" transform="matrix(1.00, 0.00, -0.00, -1.00, 686.1, 727.6)">e</text><text xml:space="preserve" font-family="Avenir-Book,Avenir" font-size="72.0" fill="#000000" transform="matrix(1.00, 0.00, -0.00, -1.00, 726.1, 727.6)">s</text><text xml:space="preserve" font-family="Avenir-Book,Avenir" font-size="72.0" fill="#000000" transform="matrix(1.00, 0.00, -0.00, -1.00, 756.8, 727.6)"> </text><text xml:space="preserve" font-family="Avenir-Book,Avenir" font-size="72.0" fill="#000000" transform="matrix(1.00, 0.00, -0.00, -1.00, 776.8, 727.6)">c</text><text xml:space="preserve" font-family="Avenir-Book,Avenir" font-size="72.0" fill="#000000" transform="matrix(1.00, 0.00, -0.00, -1.00, 811.5, 727.6)">o</text><text xml:space="preserve" font-family="Avenir-Book,Avenir" font-size="72.0" fill="#000000" transform="matrix(1.00, 0.00, -0.00, -1.00, 854.2, 727.6)">n</text><text xml:space="preserve" font-family="Avenir-Book,Avenir" font-size="72.0" fill="#000000" transform="matrix(1.00, 0.00, -0.00, -1.00, 894.2, 727.6)">f</text><text xml:space="preserve" font-family="Avenir-Book,Avenir" font-size="72.0" fill="#000000" transform="matrix(1.00, 0.00, -0.00, -1.00, 915.5, 727.6)">e</text><text xml:space="preserve" font-family="Avenir-Book,Avenir" font-size="72.0" fill="#000000" transform="matrix(1.00, 0.00, -0.00, -1.00, 955.6, 727.6)">r</text><text xml:space="preserve" font-family="Avenir-Book,Avenir" font-size="72.0" fill="#000000" transform="matrix(1.00, 0.00, -0.00, -1.00, 979.5, 727.6)"> </text><text xml:space="preserve" font-family="Avenir-Book,Avenir" font-size="72.0" fill="#000000" transform="matrix(1.00, 0.00, -0.00, -1.00, 999.5, 727.6)">s</text><text xml:space="preserve" font-family="Avenir-Book,Avenir" font-size="72.0" fill="#000000" transform="matrix(1.00, 0.00, -0.00, -1.00, 1030.1, 727.6)">o</text><text xml:space="preserve" font-family="Avenir-Book,Avenir" font-size="72.0" fill="#000000" transform="matrix(1.00, 0.00, -0.00, -1.00, 1072.8, 727.6)">m</text><text xml:space="preserve" font-family="Avenir-Book,Avenir" font-size="72.0" fill="#000000" transform="matrix(1.00, 0.00, -0.00, -1.00, 1134.2, 727.6)">e</text><text xml:space="preserve" font-family="Avenir-Book,Avenir" font-size="72.0" fill="#000000" transform="matrix(1.00, 0.00, -0.00, -1.00, 1174.2, 727.6)"> </text><text xml:space="preserve" font-family="Avenir-Book,Avenir" font-size="72.0" fill="#000000" transform="matrix(1.00, 0.00, -0.00, -1.00, 1194.2, 727.6)">v</text><text xml:space="preserve" font-family="Avenir-Book,Avenir" font-size="72.0" fill="#000000" transform="matrix(1.00, 0.00, -0.00, -1.00, 1228.9, 727.6)">e</text><text xml:space="preserve" font-family="Avenir-Book,Avenir" font-size="72.0" fill="#000000" transform="matrix(1.00, 0.00, -0.00, -1.00, 1269.0, 727.6)">r</text><text xml:space="preserve" font-family="Avenir-Book,Avenir" font-size="72.0" fill="#000000" transform="matrix(1.00, 0.00, -0.00, -1.00, 1292.9, 727.6)">y</text><text xml:space="preserve" font-family="Avenir-Book,Avenir" font-size="72.0" fill="#000000" transform="matrix(1.00, 0.00, -0.00, -1.00, 1327.6, 727.6)"> </text><text xml:space="preserve" font-family="Avenir-Book,Avenir" font-size="72.0" fill="#000000" transform="matrix(1.00, 0.00, -0.00, -1.00, 1347.6, 727.6)">r</text><text xml:space="preserve" font-family="Avenir-Book,Avenir" font-size="72.0" fill="#000000" transform="matrix(1.00, 0.00, -0.00, -1.00, 1370.2, 727.6)">e</text><text xml:space="preserve" font-family="Avenir-Book,Avenir" font-size="72.0" fill="#000000" transform="matrix(1.00, 0.00, -0.00, -1.00, 1410.2, 727.6)">l</text><text xml:space="preserve" font-family="Avenir-Book,Avenir" font-size="72.0" fill="#000000" transform="matrix(1.00, 0.00, -0.00, -1.00, 1427.5, 727.6)">e</text><text xml:space="preserve" font-family="Avenir-Book,Avenir" font-size="72.0" fill="#000000" transform="matrix(1.00, 0.00, -0.00, -1.00, 1467.5, 727.6)">v</text><text xml:space="preserve" font-family="Avenir-Book,Avenir" font-size="72.0" fill="#000000" transform="matrix(1.00, 0.00, -0.00, -1.00, 1502.2, 727.6)">a</text><text xml:space="preserve" font-family="Avenir-Book,Avenir" font-size="72.0" fill="#000000" transform="matrix(1.00, 0.00, -0.00, -1.00, 1539.6, 727.6)">n</text><text xml:space="preserve" font-family="Avenir-Book,Avenir" font-size="72.0" fill="#000000" transform="matrix(1.00, 0.00, -0.00, -1.00, 1579.6, 727.6)">t</text><text xml:space="preserve" font-family="Avenir-Book,Avenir" font-size="72.0" fill="#000000" transform="matrix(1.00, 0.00, -0.00, -1.00, 1603.6, 727.6)"> </text><text xml:space="preserve" font-family="Avenir-Book,Avenir" font-size="72.0" fill="#000000" transform="matrix(1.00, 0.00, -0.00, -1.00, 1623.6, 727.6)">v</text><text xml:space="preserve" font-family="Avenir-Book,Avenir" font-size="72.0" fill="#000000" transform="matrix(1.00, 0.00, -0.00, -1.00, 1658.3, 727.6)">a</text><text xml:space="preserve" font-family="Avenir-Book,Avenir" font-size="72.0" fill="#000000" transform="matrix(1.00, 0.00, -0.00, -1.00, 1695.6, 727.6)">l</text><text xml:space="preserve" font-family="Avenir-Book,Avenir" font-size="72.0" fill="#000000" transform="matrix(1.00, 0.00, -0.00, -1.00, 1712.9, 727.6)">u</text><text xml:space="preserve" font-family="Avenir-Book,Avenir" font-size="72.0" fill="#000000" transform="matrix(1.00, 0.00, -0.00, -1.00, 1753.0, 727.6)">e</text><text xml:space="preserve" font-family="Avenir-Book,Avenir" font-size="72.0" fill="#000000" transform="matrix(1.00, 0.00, -0.00, -1.00, 1793.0, 727.6)">.</text><text xml:space="preserve" font-family="Avenir-Book,Avenir" font-size="72.0" fill="#000000" transform="matrix(1.00, 0.00, -0.00, -1.00, 1813.0, 727.6)"> </text><text xml:space="preserve" font-family="Avenir-Book,Avenir" font-size="72.0" fill="#000000" transform="matrix(1.00, 0.00, -0.00, -1.00, 178.2, 609.6)">T</text><text xml:space="preserve" font-family="Avenir-Book,Avenir" font-size="72.0" fill="#000000" transform="matrix(1.00, 0.00, -0.00, -1.00, 211.6, 609.6)">y</text><text xml:space="preserve" font-family="Avenir-Book,Avenir" font-size="72.0" fill="#000000" transform="matrix(1.00, 0.00, -0.00, -1.00, 246.3, 609.6)">p</text><text xml:space="preserve" font-family="Avenir-Book,Avenir" font-size="72.0" fill="#000000" transform="matrix(1.00, 0.00, -0.00, -1.00, 290.3, 609.6)">i</text><text xml:space="preserve" font-family="Avenir-Book,Avenir" font-size="72.0" fill="#000000" transform="matrix(1.00, 0.00, -0.00, -1.00, 307.6, 609.6)">c</text><text xml:space="preserve" font-family="Avenir-Book,Avenir" font-size="72.0" fill="#000000" transform="matrix(1.00, 0.00, -0.00, -1.00, 342.3, 609.6)">a</text><text xml:space="preserve" font-family="Avenir-Book,Avenir" font-size="72.0" fill="#000000" transform="matrix(1.00, 0.00, -0.00, -1.00, 379.6, 609.6)">l</text><text xml:space="preserve" font-family="Avenir-Book,Avenir" font-size="72.0" fill="#000000" transform="matrix(1.00, 0.00, -0.00, -1.00, 396.9, 609.6)">l</text><text xml:space="preserve" font-family="Avenir-Book,Avenir" font-size="72.0" fill="#000000" transform="matrix(1.00, 0.00, -0.00, -1.00, 414.2, 609.6)">y</text><text xml:space="preserve" font-family="Avenir-Book,Avenir" font-size="72.0" fill="#000000" transform="matrix(1.00, 0.00, -0.00, -1.00, 448.9, 609.6)"> </text><text xml:space="preserve" font-family="Avenir-Book,Avenir" font-size="72.0" fill="#000000" transform="matrix(1.00, 0.00, -0.00, -1.00, 468.9, 609.6)">i</text><text xml:space="preserve" font-family="Avenir-Book,Avenir" font-size="72.0" fill="#000000" transform="matrix(1.00, 0.00, -0.00, -1.00, 486.2, 609.6)">t</text><text xml:space="preserve" font-family="Avenir-Book,Avenir" font-size="72.0" fill="#000000" transform="matrix(1.00, 0.00, -0.00, -1.00, 510.1, 609.6)"> </text><text xml:space="preserve" font-family="Avenir-Book,Avenir" font-size="72.0" fill="#000000" transform="matrix(1.00, 0.00, -0.00, -1.00, 530.1, 609.6)">d</text><text xml:space="preserve" font-family="Avenir-Book,Avenir" font-size="72.0" fill="#000000" transform="matrix(1.00, 0.00, -0.00, -1.00, 574.1, 609.6)">o</text><text xml:space="preserve" font-family="Avenir-Book,Avenir" font-size="72.0" fill="#000000" transform="matrix(1.00, 0.00, -0.00, -1.00, 616.8, 609.6)">e</text><text xml:space="preserve" font-family="Avenir-Book,Avenir" font-size="72.0" fill="#000000" transform="matrix(1.00, 0.00, -0.00, -1.00, 656.8, 609.6)">s</text><text xml:space="preserve" font-family="Avenir-Book,Avenir" font-size="72.0" fill="#000000" transform="matrix(1.00, 0.00, -0.00, -1.00, 687.5, 609.6)"> </text><text xml:space="preserve" font-family="Avenir-Book,Avenir" font-size="72.0" fill="#000000" transform="matrix(1.00, 0.00, -0.00, -1.00, 707.5, 609.6)">s</text><text xml:space="preserve" font-family="Avenir-Book,Avenir" font-size="72.0" fill="#000000" transform="matrix(1.00, 0.00, -0.00, -1.00, 738.2, 609.6)">o</text><text xml:space="preserve" font-family="Avenir-Book,Avenir" font-size="72.0" fill="#000000" transform="matrix(1.00, 0.00, -0.00, -1.00, 780.9, 609.6)"> </text><text xml:space="preserve" font-family="Avenir-Book,Avenir" font-size="72.0" fill="#000000" transform="matrix(1.00, 0.00, -0.00, -1.00, 800.9, 609.6)">a</text><text xml:space="preserve" font-family="Avenir-Book,Avenir" font-size="72.0" fill="#000000" transform="matrix(1.00, 0.00, -0.00, -1.00, 838.3, 609.6)">t</text><text xml:space="preserve" font-family="Avenir-Book,Avenir" font-size="72.0" fill="#000000" transform="matrix(1.00, 0.00, -0.00, -1.00, 862.2, 609.6)"> </text><text xml:space="preserve" font-family="Avenir-Book,Avenir" font-size="72.0" fill="#000000" transform="matrix(1.00, 0.00, -0.00, -1.00, 882.2, 609.6)">t</text><text xml:space="preserve" font-family="Avenir-Book,Avenir" font-size="72.0" fill="#000000" transform="matrix(1.00, 0.00, -0.00, -1.00, 906.1, 609.6)">h</text><text xml:space="preserve" font-family="Avenir-Book,Avenir" font-size="72.0" fill="#000000" transform="matrix(1.00, 0.00, -0.00, -1.00, 946.1, 609.6)">e</text><text xml:space="preserve" font-family="Avenir-Book,Avenir" font-size="72.0" fill="#000000" transform="matrix(1.00, 0.00, -0.00, -1.00, 986.2, 609.6)"> </text><text xml:space="preserve" font-family="Avenir-Book,Avenir" font-size="72.0" fill="#000000" transform="matrix(1.00, 0.00, -0.00, -1.00, 1006.2, 609.6)">c</text><text xml:space="preserve" font-family="Avenir-Book,Avenir" font-size="72.0" fill="#000000" transform="matrix(1.00, 0.00, -0.00, -1.00, 1040.9, 609.6)">o</text><text xml:space="preserve" font-family="Avenir-Book,Avenir" font-size="72.0" fill="#000000" transform="matrix(1.00, 0.00, -0.00, -1.00, 1083.6, 609.6)">s</text><text xml:space="preserve" font-family="Avenir-Book,Avenir" font-size="72.0" fill="#000000" transform="matrix(1.00, 0.00, -0.00, -1.00, 1114.2, 609.6)">t</text><text xml:space="preserve" font-family="Avenir-Book,Avenir" font-size="72.0" fill="#000000" transform="matrix(1.00, 0.00, -0.00, -1.00, 1138.1, 609.6)"> </text><text xml:space="preserve" font-family="Avenir-Book,Avenir" font-size="72.0" fill="#000000" transform="matrix(1.00, 0.00, -0.00, -1.00, 1158.2, 609.6)">o</text><text xml:space="preserve" font-family="Avenir-Book,Avenir" font-size="72.0" fill="#000000" transform="matrix(1.00, 0.00, -0.00, -1.00, 1200.9, 609.6)">f</text><text xml:space="preserve" font-family="Avenir-Book,Avenir" font-size="72.0" fill="#000000" transform="matrix(1.00, 0.00, -0.00, -1.00, 1222.2, 609.6)"> </text><text xml:space="preserve" font-family="Avenir-Book,Avenir" font-size="72.0" fill="#000000" transform="matrix(1.00, 0.00, -0.00, -1.00, 1242.2, 609.6)">f</text><text xml:space="preserve" font-family="Avenir-Book,Avenir" font-size="72.0" fill="#000000" transform="matrix(1.00, 0.00, -0.00, -1.00, 1263.5, 609.6)">l</text><text xml:space="preserve" font-family="Avenir-Book,Avenir" font-size="72.0" fill="#000000" transform="matrix(1.00, 0.00, -0.00, -1.00, 1280.8, 609.6)">e</text><text xml:space="preserve" font-family="Avenir-Book,Avenir" font-size="72.0" fill="#000000" transform="matrix(1.00, 0.00, -0.00, -1.00, 1320.8, 609.6)">x</text><text xml:space="preserve" font-family="Avenir-Book,Avenir" font-size="72.0" fill="#000000" transform="matrix(1.00, 0.00, -0.00, -1.00, 1355.5, 609.6)">i</text><text xml:space="preserve" font-family="Avenir-Book,Avenir" font-size="72.0" fill="#000000" transform="matrix(1.00, 0.00, -0.00, -1.00, 1372.8, 609.6)">b</text><text xml:space="preserve" font-family="Avenir-Book,Avenir" font-size="72.0" fill="#000000" transform="matrix(1.00, 0.00, -0.00, -1.00, 1416.8, 609.6)">i</text><text xml:space="preserve" font-family="Avenir-Book,Avenir" font-size="72.0" fill="#000000" transform="matrix(1.00, 0.00, -0.00, -1.00, 1434.1, 609.6)">l</text><text xml:space="preserve" font-family="Avenir-Book,Avenir" font-size="72.0" fill="#000000" transform="matrix(1.00, 0.00, -0.00, -1.00, 1451.3, 609.6)">i</text><text xml:space="preserve" font-family="Avenir-Book,Avenir" font-size="72.0" fill="#000000" transform="matrix(1.00, 0.00, -0.00, -1.00, 1468.6, 609.6)">t</text><text xml:space="preserve" font-family="Avenir-Book,Avenir" font-size="72.0" fill="#000000" transform="matrix(1.00, 0.00, -0.00, -1.00, 1492.5, 609.6)">y</text><text xml:space="preserve" font-family="Avenir-Book,Avenir" font-size="72.0" fill="#000000" transform="matrix(1.00, 0.00, -0.00, -1.00, 1520.6, 609.6)">,</text><text xml:space="preserve" font-family="Avenir-Book,Avenir" font-size="72.0" fill="#000000" transform="matrix(1.00, 0.00, -0.00, -1.00, 1540.6, 609.6)"> </text><text xml:space="preserve" font-family="Avenir-Book,Avenir" font-size="72.0" fill="#000000" transform="matrix(1.00, 0.00, -0.00, -1.00, 1560.6, 609.6)">b</text><text xml:space="preserve" font-family="Avenir-Book,Avenir" font-size="72.0" fill="#000000" transform="matrix(1.00, 0.00, -0.00, -1.00, 1604.6, 609.6)">u</text><text xml:space="preserve" font-family="Avenir-Book,Avenir" font-size="72.0" fill="#000000" transform="matrix(1.00, 0.00, -0.00, -1.00, 1644.7, 609.6)">t</text><text xml:space="preserve" font-family="Avenir-Book,Avenir" font-size="72.0" fill="#000000" transform="matrix(1.00, 0.00, -0.00, -1.00, 1668.6, 609.6)"> </text><text xml:space="preserve" font-family="Avenir-Book,Avenir" font-size="72.0" fill="#000000" transform="matrix(1.00, 0.00, -0.00, -1.00, 178.2, 511.6)">T</text><text xml:space="preserve" font-family="Avenir-Book,Avenir" font-size="72.0" fill="#000000" transform="matrix(1.00, 0.00, -0.00, -1.00, 211.6, 511.6)">y</text><text xml:space="preserve" font-family="Avenir-Book,Avenir" font-size="72.0" fill="#000000" transform="matrix(1.00, 0.00, -0.00, -1.00, 246.3, 511.6)">p</text><text xml:space="preserve" font-family="Avenir-Book,Avenir" font-size="72.0" fill="#000000" transform="matrix(1.00, 0.00, -0.00, -1.00, 290.3, 511.6)">e</text><text xml:space="preserve" font-family="Avenir-Book,Avenir" font-size="72.0" fill="#000000" transform="matrix(1.00, 0.00, -0.00, -1.00, 330.3, 511.6)">S</text><text xml:space="preserve" font-family="Avenir-Book,Avenir" font-size="72.0" fill="#000000" transform="matrix(1.00, 0.00, -0.00, -1.00, 370.3, 511.6)">c</text><text xml:space="preserve" font-family="Avenir-Book,Avenir" font-size="72.0" fill="#000000" transform="matrix(1.00, 0.00, -0.00, -1.00, 405.0, 511.6)">r</text><text xml:space="preserve" font-family="Avenir-Book,Avenir" font-size="72.0" fill="#000000" transform="matrix(1.00, 0.00, -0.00, -1.00, 428.9, 511.6)">i</text><text xml:space="preserve" font-family="Avenir-Book,Avenir" font-size="72.0" fill="#000000" transform="matrix(1.00, 0.00, -0.00, -1.00, 446.2, 511.6)">p</text><text xml:space="preserve" font-family="Avenir-Book,Avenir" font-size="72.0" fill="#000000" transform="matrix(1.00, 0.00, -0.00, -1.00, 490.2, 511.6)">t</text><text xml:space="preserve" font-family="Avenir-Book,Avenir" font-size="72.0" fill="#000000" transform="matrix(1.00, 0.00, -0.00, -1.00, 514.1, 511.6)"> </text><text xml:space="preserve" font-family="Avenir-Book,Avenir" font-size="72.0" fill="#000000" transform="matrix(1.00, 0.00, -0.00, -1.00, 534.1, 511.6)">b</text><text xml:space="preserve" font-family="Avenir-Book,Avenir" font-size="72.0" fill="#000000" transform="matrix(1.00, 0.00, -0.00, -1.00, 578.1, 511.6)">r</text><text xml:space="preserve" font-family="Avenir-Book,Avenir" font-size="72.0" fill="#000000" transform="matrix(1.00, 0.00, -0.00, -1.00, 602.0, 511.6)">i</text><text xml:space="preserve" font-family="Avenir-Book,Avenir" font-size="72.0" fill="#000000" transform="matrix(1.00, 0.00, -0.00, -1.00, 619.3, 511.6)">n</text><text xml:space="preserve" font-family="Avenir-Book,Avenir" font-size="72.0" fill="#000000" transform="matrix(1.00, 0.00, -0.00, -1.00, 659.3, 511.6)">g</text><text xml:space="preserve" font-family="Avenir-Book,Avenir" font-size="72.0" fill="#000000" transform="matrix(1.00, 0.00, -0.00, -1.00, 703.3, 511.6)">s</text><text xml:space="preserve" font-family="Avenir-Book,Avenir" font-size="72.0" fill="#000000" transform="matrix(1.00, 0.00, -0.00, -1.00, 734.0, 511.6)"> </text><text xml:space="preserve" font-family="Avenir-Book,Avenir" font-size="72.0" fill="#000000" transform="matrix(1.00, 0.00, -0.00, -1.00, 754.0, 511.6)">a</text><text xml:space="preserve" font-family="Avenir-Book,Avenir" font-size="72.0" fill="#000000" transform="matrix(1.00, 0.00, -0.00, -1.00, 791.4, 511.6)"> </text><text xml:space="preserve" font-family="Avenir-Book,Avenir" font-size="72.0" fill="#000000" transform="matrix(1.00, 0.00, -0.00, -1.00, 811.4, 511.6)">l</text><text xml:space="preserve" font-family="Avenir-Book,Avenir" font-size="72.0" fill="#000000" transform="matrix(1.00, 0.00, -0.00, -1.00, 828.7, 511.6)">o</text><text xml:space="preserve" font-family="Avenir-Book,Avenir" font-size="72.0" fill="#000000" transform="matrix(1.00, 0.00, -0.00, -1.00, 871.4, 511.6)">t</text><text xml:space="preserve" font-family="Avenir-Book,Avenir" font-size="72.0" fill="#000000" transform="matrix(1.00, 0.00, -0.00, -1.00, 895.3, 511.6)"> </text><text xml:space="preserve" font-family="Avenir-Book,Avenir" font-size="72.0" fill="#000000" transform="matrix(1.00, 0.00, -0.00, -1.00, 915.3, 511.6)">o</text><text xml:space="preserve" font-family="Avenir-Book,Avenir" font-size="72.0" fill="#000000" transform="matrix(1.00, 0.00, -0.00, -1.00, 958.0, 511.6)">f</text><text xml:space="preserve" font-family="Avenir-Book,Avenir" font-size="72.0" fill="#000000" transform="matrix(1.00, 0.00, -0.00, -1.00, 979.3, 511.6)"> </text><text xml:space="preserve" font-family="Avenir-Book,Avenir" font-size="72.0" fill="#000000" transform="matrix(1.00, 0.00, -0.00, -1.00, 999.3, 511.6)">t</text><text xml:space="preserve" font-family="Avenir-Book,Avenir" font-size="72.0" fill="#000000" transform="matrix(1.00, 0.00, -0.00, -1.00, 1023.2, 511.6)">h</text><text xml:space="preserve" font-family="Avenir-Book,Avenir" font-size="72.0" fill="#000000" transform="matrix(1.00, 0.00, -0.00, -1.00, 1063.3, 511.6)">e</text><text xml:space="preserve" font-family="Avenir-Book,Avenir" font-size="72.0" fill="#000000" transform="matrix(1.00, 0.00, -0.00, -1.00, 1103.3, 511.6)"> </text><text xml:space="preserve" font-family="Avenir-Book,Avenir" font-size="72.0" fill="#000000" transform="matrix(1.00, 0.00, -0.00, -1.00, 1123.3, 511.6)">b</text><text xml:space="preserve" font-family="Avenir-Book,Avenir" font-size="72.0" fill="#000000" transform="matrix(1.00, 0.00, -0.00, -1.00, 1167.3, 511.6)">e</text><text xml:space="preserve" font-family="Avenir-Book,Avenir" font-size="72.0" fill="#000000" transform="matrix(1.00, 0.00, -0.00, -1.00, 1207.3, 511.6)">n</text><text xml:space="preserve" font-family="Avenir-Book,Avenir" font-size="72.0" fill="#000000" transform="matrix(1.00, 0.00, -0.00, -1.00, 1247.4, 511.6)">e</text><text xml:space="preserve" font-family="Avenir-Book,Avenir" font-size="72.0" fill="#000000" transform="matrix(1.00, 0.00, -0.00, -1.00, 1287.4, 511.6)">f</text><text xml:space="preserve" font-family="Avenir-Book,Avenir" font-size="72.0" fill="#000000" transform="matrix(1.00, 0.00, -0.00, -1.00, 1308.7, 511.6)">i</text><text xml:space="preserve" font-family="Avenir-Book,Avenir" font-size="72.0" fill="#000000" transform="matrix(1.00, 0.00, -0.00, -1.00, 1326.0, 511.6)">t</text><text xml:space="preserve" font-family="Avenir-Book,Avenir" font-size="72.0" fill="#000000" transform="matrix(1.00, 0.00, -0.00, -1.00, 1349.9, 511.6)">s</text><text xml:space="preserve" font-family="Avenir-Book,Avenir" font-size="72.0" fill="#000000" transform="matrix(1.00, 0.00, -0.00, -1.00, 1380.6, 511.6)"> </text><text xml:space="preserve" font-family="Avenir-Book,Avenir" font-size="72.0" fill="#000000" transform="matrix(1.00, 0.00, -0.00, -1.00, 1400.6, 511.6)">t</text><text xml:space="preserve" font-family="Avenir-Book,Avenir" font-size="72.0" fill="#000000" transform="matrix(1.00, 0.00, -0.00, -1.00, 1424.5, 511.6)">o</text><text xml:space="preserve" font-family="Avenir-Book,Avenir" font-size="72.0" fill="#000000" transform="matrix(1.00, 0.00, -0.00, -1.00, 1467.2, 511.6)"> </text><text xml:space="preserve" font-family="Avenir-Book,Avenir" font-size="72.0" fill="#000000" transform="matrix(1.00, 0.00, -0.00, -1.00, 1487.2, 511.6)">J</text><text xml:space="preserve" font-family="Avenir-Book,Avenir" font-size="72.0" fill="#000000" transform="matrix(1.00, 0.00, -0.00, -1.00, 1521.9, 511.6)">a</text><text xml:space="preserve" font-family="Avenir-Book,Avenir" font-size="72.0" fill="#000000" transform="matrix(1.00, 0.00, -0.00, -1.00, 1559.3, 511.6)">v</text><text xml:space="preserve" font-family="Avenir-Book,Avenir" font-size="72.0" fill="#000000" transform="matrix(1.00, 0.00, -0.00, -1.00, 1594.0, 511.6)">a</text><text xml:space="preserve" font-family="Avenir-Book,Avenir" font-size="72.0" fill="#000000" transform="matrix(1.00, 0.00, -0.00, -1.00, 1631.3, 511.6)">S</text><text xml:space="preserve" font-family="Avenir-Book,Avenir" font-size="72.0" fill="#000000" transform="matrix(1.00, 0.00, -0.00, -1.00, 1671.4, 511.6)">c</text><text xml:space="preserve" font-family="Avenir-Book,Avenir" font-size="72.0" fill="#000000" transform="matrix(1.00, 0.00, -0.00, -1.00, 1706.1, 511.6)">r</text><text xml:space="preserve" font-family="Avenir-Book,Avenir" font-size="72.0" fill="#000000" transform="matrix(1.00, 0.00, -0.00, -1.00, 1730.0, 511.6)">i</text><text xml:space="preserve" font-family="Avenir-Book,Avenir" font-size="72.0" fill="#000000" transform="matrix(1.00, 0.00, -0.00, -1.00, 1747.3, 511.6)">p</text><text xml:space="preserve" font-family="Avenir-Book,Avenir" font-size="72.0" fill="#000000" transform="matrix(1.00, 0.00, -0.00, -1.00, 1791.3, 511.6)">t</text><text xml:space="preserve" font-family="Avenir-Book,Avenir" font-size="72.0" fill="#000000" transform="matrix(1.00, 0.00, -0.00, -1.00, 1815.2, 511.6)"> </text><text xml:space="preserve" font-family="Avenir-Book,Avenir" font-size="72.0" fill="#000000" transform="matrix(1.00, 0.00, -0.00, -1.00, 178.2, 413.6)">i</text><text xml:space="preserve" font-family="Avenir-Book,Avenir" font-size="72.0" fill="#000000" transform="matrix(1.00, 0.00, -0.00, -1.00, 195.5, 413.6)">n</text><text xml:space="preserve" font-family="Avenir-Book,Avenir" font-size="72.0" fill="#000000" transform="matrix(1.00, 0.00, -0.00, -1.00, 235.6, 413.6)"> </text><text xml:space="preserve" font-family="Avenir-Book,Avenir" font-size="72.0" fill="#000000" transform="matrix(1.00, 0.00, -0.00, -1.00, 255.6, 413.6)">a</text><text xml:space="preserve" font-family="Avenir-Book,Avenir" font-size="72.0" fill="#000000" transform="matrix(1.00, 0.00, -0.00, -1.00, 292.9, 413.6)">n</text><text xml:space="preserve" font-family="Avenir-Book,Avenir" font-size="72.0" fill="#000000" transform="matrix(1.00, 0.00, -0.00, -1.00, 333.0, 413.6)"> </text><text xml:space="preserve" font-family="Avenir-Book,Avenir" font-size="72.0" fill="#000000" transform="matrix(1.00, 0.00, -0.00, -1.00, 353.0, 413.6)">o</text><text xml:space="preserve" font-family="Avenir-Book,Avenir" font-size="72.0" fill="#000000" transform="matrix(1.00, 0.00, -0.00, -1.00, 395.7, 413.6)">p</text><text xml:space="preserve" font-family="Avenir-Book,Avenir" font-size="72.0" fill="#000000" transform="matrix(1.00, 0.00, -0.00, -1.00, 439.7, 413.6)">t</text><text xml:space="preserve" font-family="Avenir-Book,Avenir" font-size="72.0" fill="#000000" transform="matrix(1.00, 0.00, -0.00, -1.00, 463.6, 413.6)">i</text><text xml:space="preserve" font-family="Avenir-Book,Avenir" font-size="72.0" fill="#000000" transform="matrix(1.00, 0.00, -0.00, -1.00, 480.9, 413.6)">o</text><text xml:space="preserve" font-family="Avenir-Book,Avenir" font-size="72.0" fill="#000000" transform="matrix(1.00, 0.00, -0.00, -1.00, 523.6, 413.6)">n</text><text xml:space="preserve" font-family="Avenir-Book,Avenir" font-size="72.0" fill="#000000" transform="matrix(1.00, 0.00, -0.00, -1.00, 563.6, 413.6)">a</text><text xml:space="preserve" font-family="Avenir-Book,Avenir" font-size="72.0" fill="#000000" transform="matrix(1.00, 0.00, -0.00, -1.00, 601.0, 413.6)">l</text><text xml:space="preserve" font-family="Avenir-Book,Avenir" font-size="72.0" fill="#000000" transform="matrix(1.00, 0.00, -0.00, -1.00, 618.2, 413.6)"> </text><text xml:space="preserve" font-family="Avenir-Book,Avenir" font-size="72.0" fill="#000000" transform="matrix(1.00, 0.00, -0.00, -1.00, 638.2, 413.6)">w</text><text xml:space="preserve" font-family="Avenir-Book,Avenir" font-size="72.0" fill="#000000" transform="matrix(1.00, 0.00, -0.00, -1.00, 690.2, 413.6)">a</text><text xml:space="preserve" font-family="Avenir-Book,Avenir" font-size="72.0" fill="#000000" transform="matrix(1.00, 0.00, -0.00, -1.00, 727.6, 413.6)">y</text><text xml:space="preserve" font-family="Avenir-Book,Avenir" font-size="72.0" fill="#000000" transform="matrix(1.00, 0.00, -0.00, -1.00, 755.7, 413.6)">,</text><text xml:space="preserve" font-family="Avenir-Book,Avenir" font-size="72.0" fill="#000000" transform="matrix(1.00, 0.00, -0.00, -1.00, 775.7, 413.6)"> </text><text xml:space="preserve" font-family="Avenir-Book,Avenir" font-size="72.0" fill="#000000" transform="matrix(1.00, 0.00, -0.00, -1.00, 795.7, 413.6)">w</text><text xml:space="preserve" font-family="Avenir-Book,Avenir" font-size="72.0" fill="#000000" transform="matrix(1.00, 0.00, -0.00, -1.00, 847.7, 413.6)">h</text><text xml:space="preserve" font-family="Avenir-Book,Avenir" font-size="72.0" fill="#000000" transform="matrix(1.00, 0.00, -0.00, -1.00, 887.7, 413.6)">i</text><text xml:space="preserve" font-family="Avenir-Book,Avenir" font-size="72.0" fill="#000000" transform="matrix(1.00, 0.00, -0.00, -1.00, 905.0, 413.6)">c</text><text xml:space="preserve" font-family="Avenir-Book,Avenir" font-size="72.0" fill="#000000" transform="matrix(1.00, 0.00, -0.00, -1.00, 939.7, 413.6)">h</text><text xml:space="preserve" font-family="Avenir-Book,Avenir" font-size="72.0" fill="#000000" transform="matrix(1.00, 0.00, -0.00, -1.00, 979.7, 413.6)"> </text><text xml:space="preserve" font-family="Avenir-Book,Avenir" font-size="72.0" fill="#000000" transform="matrix(1.00, 0.00, -0.00, -1.00, 999.8, 413.6)">i</text><text xml:space="preserve" font-family="Avenir-Book,Avenir" font-size="72.0" fill="#000000" transform="matrix(1.00, 0.00, -0.00, -1.00, 1017.0, 413.6)">s</text><text xml:space="preserve" font-family="Avenir-Book,Avenir" font-size="72.0" fill="#000000" transform="matrix(1.00, 0.00, -0.00, -1.00, 1047.7, 413.6)"> </text><text xml:space="preserve" font-family="Avenir-Book,Avenir" font-size="72.0" fill="#000000" transform="matrix(1.00, 0.00, -0.00, -1.00, 1067.7, 413.6)">v</text><text xml:space="preserve" font-family="Avenir-Book,Avenir" font-size="72.0" fill="#000000" transform="matrix(1.00, 0.00, -0.00, -1.00, 1102.4, 413.6)">e</text><text xml:space="preserve" font-family="Avenir-Book,Avenir" font-size="72.0" fill="#000000" transform="matrix(1.00, 0.00, -0.00, -1.00, 1142.5, 413.6)">r</text><text xml:space="preserve" font-family="Avenir-Book,Avenir" font-size="72.0" fill="#000000" transform="matrix(1.00, 0.00, -0.00, -1.00, 1166.4, 413.6)">y</text><text xml:space="preserve" font-family="Avenir-Book,Avenir" font-size="72.0" fill="#000000" transform="matrix(1.00, 0.00, -0.00, -1.00, 1201.1, 413.6)"> </text><text xml:space="preserve" font-family="Avenir-Book,Avenir" font-size="72.0" fill="#000000" transform="matrix(1.00, 0.00, -0.00, -1.00, 1221.1, 413.6)">p</text><text xml:space="preserve" font-family="Avenir-Book,Avenir" font-size="72.0" fill="#000000" transform="matrix(1.00, 0.00, -0.00, -1.00, 1265.1, 413.6)">o</text><text xml:space="preserve" font-family="Avenir-Book,Avenir" font-size="72.0" fill="#000000" transform="matrix(1.00, 0.00, -0.00, -1.00, 1307.8, 413.6)">w</text><text xml:space="preserve" font-family="Avenir-Book,Avenir" font-size="72.0" fill="#000000" transform="matrix(1.00, 0.00, -0.00, -1.00, 1359.8, 413.6)">e</text><text xml:space="preserve" font-family="Avenir-Book,Avenir" font-size="72.0" fill="#000000" transform="matrix(1.00, 0.00, -0.00, -1.00, 1399.8, 413.6)">r</text><text xml:space="preserve" font-family="Avenir-Book,Avenir" font-size="72.0" fill="#000000" transform="matrix(1.00, 0.00, -0.00, -1.00, 1423.7, 413.6)">f</text><text xml:space="preserve" font-family="Avenir-Book,Avenir" font-size="72.0" fill="#000000" transform="matrix(1.00, 0.00, -0.00, -1.00, 1445.0, 413.6)">u</text><text xml:space="preserve" font-family="Avenir-Book,Avenir" font-size="72.0" fill="#000000" transform="matrix(1.00, 0.00, -0.00, -1.00, 1485.0, 413.6)">l</text><text xml:space="preserve" font-family="Avenir-Book,Avenir" font-size="72.0" fill="#000000" transform="matrix(1.00, 0.00, -0.00, -1.00, 1502.3, 413.6)">.</text><text xml:space="preserve" font-family="Avenir-Book,Avenir" font-size="72.0" fill="#000000" transform="matrix(1.00, 0.00, -0.00, -1.00, 1522.3, 413.6)"> </text><text xml:space="preserve" font-family="Avenir-Black,Avenir" font-weight="bold" font-size="25.0" fill="#4E4E4E" transform="matrix(1.00, 0.00, -0.00, -1.00, 178.2, 342.4)">I</text><text xml:space="preserve" font-family="Avenir-Black,Avenir" font-weight="bold" font-size="25.0" fill="#4E4E4E" transform="matrix(1.00, 0.00, -0.00, -1.00, 185.6, 342.4)">s</text><text xml:space="preserve" font-family="Avenir-Black,Avenir" font-weight="bold" font-size="25.0" fill="#4E4E4E" transform="matrix(1.00, 0.00, -0.00, -1.00, 197.2, 342.4)">a</text><text xml:space="preserve" font-family="Avenir-Black,Avenir" font-weight="bold" font-size="25.0" fill="#4E4E4E" transform="matrix(1.00, 0.00, -0.00, -1.00, 210.6, 342.4)">a</text><text xml:space="preserve" font-family="Avenir-Black,Avenir" font-weight="bold" font-size="25.0" fill="#4E4E4E" transform="matrix(1.00, 0.00, -0.00, -1.00, 224.1, 342.4)">c</text><text xml:space="preserve" font-family="Avenir-Black,Avenir" font-weight="bold" font-size="25.0" fill="#4E4E4E" transform="matrix(1.00, 0.00, -0.00, -1.00, 236.1, 342.4)"> </text><text xml:space="preserve" font-family="Avenir-Black,Avenir" font-weight="bold" font-size="25.0" fill="#4E4E4E" transform="matrix(1.00, 0.00, -0.00, -1.00, 243.5, 342.4)">S</text><text xml:space="preserve" font-family="Avenir-Black,Avenir" font-weight="bold" font-size="25.0" fill="#4E4E4E" transform="matrix(1.00, 0.00, -0.00, -1.00, 257.9, 342.4)">c</text><text xml:space="preserve" font-family="Avenir-Black,Avenir" font-weight="bold" font-size="25.0" fill="#4E4E4E" transform="matrix(1.00, 0.00, -0.00, -1.00, 269.9, 342.4)">h</text><text xml:space="preserve" font-family="Avenir-Black,Avenir" font-weight="bold" font-size="25.0" fill="#4E4E4E" transform="matrix(1.00, 0.00, -0.00, -1.00, 284.3, 342.4)">l</text><text xml:space="preserve" font-family="Avenir-Black,Avenir" font-weight="bold" font-size="25.0" fill="#4E4E4E" transform="matrix(1.00, 0.00, -0.00, -1.00, 290.8, 342.4)">u</text><text xml:space="preserve" font-family="Avenir-Black,Avenir" font-weight="bold" font-size="25.0" fill="#4E4E4E" transform="matrix(1.00, 0.00, -0.00, -1.00, 305.1, 342.4)">e</text><text xml:space="preserve" font-family="Avenir-Black,Avenir" font-weight="bold" font-size="25.0" fill="#4E4E4E" transform="matrix(1.00, 0.00, -0.00, -1.00, 319.5, 342.4)">t</text><text xml:space="preserve" font-family="Avenir-Black,Avenir" font-weight="bold" font-size="25.0" fill="#4E4E4E" transform="matrix(1.00, 0.00, -0.00, -1.00, 329.6, 342.4)">e</text><text xml:space="preserve" font-family="Avenir-Black,Avenir" font-weight="bold" font-size="25.0" fill="#4E4E4E" transform="matrix(1.00, 0.00, -0.00, -1.00, 344.0, 342.4)">r</text><text xml:space="preserve" font-family="Avenir-Black,Avenir" font-weight="bold" font-size="25.0" fill="#4E4E4E" transform="matrix(1.00, 0.00, -0.00, -1.00, 354.2, 342.4)"> </text><text xml:space="preserve" font-family="Avenir-Black,Avenir" font-weight="bold" font-size="25.0" fill="#4E4E4E" transform="matrix(1.00, 0.00, -0.00, -1.00, 361.6, 342.4)">-</text><text xml:space="preserve" font-family="Avenir-Black,Avenir" font-weight="bold" font-size="25.0" fill="#4E4E4E" transform="matrix(1.00, 0.00, -0.00, -1.00, 369.0, 342.4)"> </text><text xml:space="preserve" font-family="Avenir-Black,Avenir" font-weight="bold" font-size="25.0" fill="#4E4E4E" transform="matrix(1.00, 0.00, -0.00, -1.00, 376.4, 342.4)">n</text><text xml:space="preserve" font-family="Avenir-Black,Avenir" font-weight="bold" font-size="25.0" fill="#4E4E4E" transform="matrix(1.00, 0.00, -0.00, -1.00, 390.7, 342.4)">p</text><text xml:space="preserve" font-family="Avenir-Black,Avenir" font-weight="bold" font-size="25.0" fill="#4E4E4E" transform="matrix(1.00, 0.00, -0.00, -1.00, 406.5, 342.4)">m</text><text xml:space="preserve" font-family="Avenir-Black,Avenir" font-weight="bold" font-size="25.0" fill="#4E4E4E" transform="matrix(1.00, 0.00, -0.00, -1.00, 428.2, 342.4)"> </text><text xml:space="preserve" font-family="Avenir-Black,Avenir" font-weight="bold" font-size="25.0" fill="#4E4E4E" transform="matrix(1.00, 0.00, -0.00, -1.00, 435.6, 342.4)">I</text><text xml:space="preserve" font-family="Avenir-Black,Avenir" font-weight="bold" font-size="25.0" fill="#4E4E4E" transform="matrix(1.00, 0.00, -0.00, -1.00, 443.0, 342.4)">n</text><text xml:space="preserve" font-family="Avenir-Black,Avenir" font-weight="bold" font-size="25.0" fill="#4E4E4E" transform="matrix(1.00, 0.00, -0.00, -1.00, 457.4, 342.4)">c</text><text xml:space="preserve" font-family="Avenir-Black,Avenir" font-weight="bold" font-size="25.0" fill="#4E4E4E" transform="matrix(1.00, 0.00, -0.00, -1.00, 469.4, 342.4)">.</text><text xml:space="preserve" font-family="Baskerville,Baskerville" font-size="120.0" fill="#000000" transform="matrix(1.00, 0.00, -0.00, -1.00, 106.7, 698.6)">“</text></g></svg>