<?xml version="1.0" encoding="UTF-8" standalone="no"?><svg xmlns="http://www.w3.org/2000/svg" xmlns:xlink="http://www.w3.org/1999/xlink" clip-rule="evenodd" stroke-miterlimit="10" viewBox="0 0 1920 1080"><desc>SVG generated by Keynote</desc><defs></defs><g transform="matrix(1.00, 0.00, -0.00, -1.00, 0.0, 1080.0)"><path d="M 0.0 1080.0 L 1920.0 1080.0 L 1920.0 0.0 L 0.0 0.0 Z M 0.0 1080.0 " fill="#000000"></path><g opacity="0.60"><g><clipPath id="clip0x6000006b0fe0"><path d="M 0.0 1080.0 L 1920.0 1080.0 L 1920.0 0.0 L 0.0 0.0 Z M 0.0 1080.0 "></path></clipPath><g clip-path="url(#clip0x6000006b0fe0)"><g><clipPath id="clip0x6000006bb8a0"><path d="M 0.0 0.0 L 1920.0 0.0 L 1920.0 1080.0 L 0.0 1080.0 Z M 0.0 0.0 "></path></clipPath><g clip-path="url(#clip0x6000006bb8a0)"><image xlink:href="../../F156192A-66CE-44DF-B326-DCE6D0040D68/assets/E124528E269DC6C070534CC6C5046D89.jpeg" width="2560.00" height="1920.00" transform="matrix(0.75, 0.00, -0.00, -0.75, 0.0, 1260.0)"></image></g></g></g></g></g><image xlink:href="../../F156192A-66CE-44DF-B326-DCE6D0040D68/assets/E86BC1B9EFA6B1E1EC8BAFFFEB6FC2CF.png" width="1711.00" height="91.00" transform="matrix(1.00, 0.00, -0.00, -1.00, 102.0, 606.0)"></image><text xml:space="preserve" font-family="Avenir-Black,Avenir" font-weight="bold" font-size="93.6" fill="#FEFFFF" transform="matrix(1.00, 0.00, -0.00, -1.00, 101.5, 523.3)">D</text><text xml:space="preserve" font-family="Avenir-Black,Avenir" font-weight="bold" font-size="93.6" fill="#FEFFFF" transform="matrix(1.00, 0.00, -0.00, -1.00, 187.5, 523.3)">E</text><text xml:space="preserve" font-family="Avenir-Black,Avenir" font-weight="bold" font-size="93.6" fill="#FEFFFF" transform="matrix(1.00, 0.00, -0.00, -1.00, 261.5, 523.3)">C</text><text xml:space="preserve" font-family="Avenir-Black,Avenir" font-weight="bold" font-size="93.6" fill="#FEFFFF" transform="matrix(1.00, 0.00, -0.00, -1.00, 340.6, 523.3)">L</text><text xml:space="preserve" font-family="Avenir-Black,Avenir" font-weight="bold" font-size="93.6" fill="#FEFFFF" transform="matrix(1.00, 0.00, -0.00, -1.00, 405.8, 523.3)">A</text><text xml:space="preserve" font-family="Avenir-Black,Avenir" font-weight="bold" font-size="93.6" fill="#FEFFFF" transform="matrix(1.00, 0.00, -0.00, -1.00, 490.1, 523.3)">R</text><text xml:space="preserve" font-family="Avenir-Black,Avenir" font-weight="bold" font-size="93.6" fill="#FEFFFF" transform="matrix(1.00, 0.00, -0.00, -1.00, 565.8, 523.3)">A</text><text xml:space="preserve" font-family="Avenir-Black,Avenir" font-weight="bold" font-size="93.6" fill="#FEFFFF" transform="matrix(1.00, 0.00, -0.00, -1.00, 641.5, 523.3)">T</text><text xml:space="preserve" font-family="Avenir-Black,Avenir" font-weight="bold" font-size="93.6" fill="#FEFFFF" transform="matrix(1.00, 0.00, -0.00, -1.00, 710.2, 523.3)">I</text><text xml:space="preserve" font-family="Avenir-Black,Avenir" font-weight="bold" font-size="93.6" fill="#FEFFFF" transform="matrix(1.00, 0.00, -0.00, -1.00, 752.9, 523.3)">O</text><text xml:space="preserve" font-family="Avenir-Black,Avenir" font-weight="bold" font-size="93.6" fill="#FEFFFF" transform="matrix(1.00, 0.00, -0.00, -1.00, 845.7, 523.3)">N</text><text xml:space="preserve" font-family="Avenir-Black,Avenir" font-weight="bold" font-size="93.6" fill="#FEFFFF" transform="matrix(1.00, 0.00, -0.00, -1.00, 937.0, 523.3)"> </text><text xml:space="preserve" font-family="Avenir-Black,Avenir" font-weight="bold" font-size="93.6" fill="#FEFFFF" transform="matrix(1.00, 0.00, -0.00, -1.00, 979.7, 523.3)">S</text><text xml:space="preserve" font-family="Avenir-Black,Avenir" font-weight="bold" font-size="93.6" fill="#FEFFFF" transform="matrix(1.00, 0.00, -0.00, -1.00, 1048.4, 523.3)">O</text><text xml:space="preserve" font-family="Avenir-Black,Avenir" font-weight="bold" font-size="93.6" fill="#FEFFFF" transform="matrix(1.00, 0.00, -0.00, -1.00, 1141.2, 523.3)">U</text><text xml:space="preserve" font-family="Avenir-Black,Avenir" font-weight="bold" font-size="93.6" fill="#FEFFFF" transform="matrix(1.00, 0.00, -0.00, -1.00, 1225.5, 523.3)">R</text><text xml:space="preserve" font-family="Avenir-Black,Avenir" font-weight="bold" font-size="93.6" fill="#FEFFFF" transform="matrix(1.00, 0.00, -0.00, -1.00, 1301.2, 523.3)">C</text><text xml:space="preserve" font-family="Avenir-Black,Avenir" font-weight="bold" font-size="93.6" fill="#FEFFFF" transform="matrix(1.00, 0.00, -0.00, -1.00, 1380.3, 523.3)">E</text><text xml:space="preserve" font-family="Avenir-Black,Avenir" font-weight="bold" font-size="93.6" fill="#FEFFFF" transform="matrix(1.00, 0.00, -0.00, -1.00, 1454.2, 523.3)"> </text><text xml:space="preserve" font-family="Avenir-Black,Avenir" font-weight="bold" font-size="93.6" fill="#FEFFFF" transform="matrix(1.00, 0.00, -0.00, -1.00, 1496.9, 523.3)">F</text><text xml:space="preserve" font-family="Avenir-Black,Avenir" font-weight="bold" font-size="93.6" fill="#FEFFFF" transform="matrix(1.00, 0.00, -0.00, -1.00, 1567.4, 523.3)">I</text><text xml:space="preserve" font-family="Avenir-Black,Avenir" font-weight="bold" font-size="93.6" fill="#FEFFFF" transform="matrix(1.00, 0.00, -0.00, -1.00, 1610.1, 523.3)">L</text><text xml:space="preserve" font-family="Avenir-Black,Avenir" font-weight="bold" font-size="93.6" fill="#FEFFFF" transform="matrix(1.00, 0.00, -0.00, -1.00, 1675.3, 523.3)">E</text><text xml:space="preserve" font-family="Avenir-Black,Avenir" font-weight="bold" font-size="93.6" fill="#FEFFFF" transform="matrix(1.00, 0.00, -0.00, -1.00, 1749.2, 523.3)">S</text></g></svg>