<?xml version="1.0" encoding="UTF-8" standalone="no"?><svg xmlns="http://www.w3.org/2000/svg" xmlns:xlink="http://www.w3.org/1999/xlink" clip-rule="evenodd" stroke-miterlimit="10" viewBox="0 0 1920 1080"><desc>SVG generated by Keynote</desc><defs></defs><g transform="matrix(1.00, 0.00, -0.00, -1.00, 0.0, 1080.0)"><path d="M 0.0 1080.0 L 1920.0 1080.0 L 1920.0 0.0 L 0.0 0.0 Z M 0.0 1080.0 " fill="#000000"></path><g opacity="0.40"><g><clipPath id="clip0x610000abc260"><path d="M 0.0 1080.0 L 1920.0 1080.0 L 1920.0 0.0 L 0.0 0.0 Z M 0.0 1080.0 "></path></clipPath><g clip-path="url(#clip0x610000abc260)"><g><clipPath id="clip0x610000abcc80"><path d="M 0.0 0.0 L 1920.0 0.0 L 1920.0 1080.0 L 0.0 1080.0 Z M 0.0 0.0 "></path></clipPath><g clip-path="url(#clip0x610000abcc80)"><image xlink:href="../../F75E8171-6CED-45F7-8DC6-5C5F06B12499/assets/38C0BABD9C1D4D63167610387A23ED81.jpeg" width="2000.00" height="1413.00" transform="matrix(0.96, 0.00, -0.00, -0.96, 0.0, 1218.0)"></image></g></g></g></g></g><text xml:space="preserve" font-family="Avenir-Black,Avenir" font-weight="bold" font-size="86.0" fill="#FEFFFF" transform="matrix(1.00, 0.00, -0.00, -1.00, 101.0, 879.5)">S</text><text xml:space="preserve" font-family="Avenir-Black,Avenir" font-weight="bold" font-size="86.0" fill="#FEFFFF" transform="matrix(1.00, 0.00, -0.00, -1.00, 164.1, 879.5)">O</text><text xml:space="preserve" font-family="Avenir-Black,Avenir" font-weight="bold" font-size="86.0" fill="#FEFFFF" transform="matrix(1.00, 0.00, -0.00, -1.00, 249.4, 879.5)">U</text><text xml:space="preserve" font-family="Avenir-Black,Avenir" font-weight="bold" font-size="86.0" fill="#FEFFFF" transform="matrix(1.00, 0.00, -0.00, -1.00, 326.9, 879.5)">R</text><text xml:space="preserve" font-family="Avenir-Black,Avenir" font-weight="bold" font-size="86.0" fill="#FEFFFF" transform="matrix(1.00, 0.00, -0.00, -1.00, 396.4, 879.5)">C</text><text xml:space="preserve" font-family="Avenir-Black,Avenir" font-weight="bold" font-size="86.0" fill="#FEFFFF" transform="matrix(1.00, 0.00, -0.00, -1.00, 469.1, 879.5)">E</text><text xml:space="preserve" font-family="Avenir-Black,Avenir" font-weight="bold" font-size="86.0" fill="#FEFFFF" transform="matrix(1.00, 0.00, -0.00, -1.00, 537.0, 879.5)"> </text><text xml:space="preserve" font-family="Avenir-Black,Avenir" font-weight="bold" font-size="86.0" fill="#FEFFFF" transform="matrix(1.00, 0.00, -0.00, -1.00, 576.2, 879.5)">F</text><text xml:space="preserve" font-family="Avenir-Black,Avenir" font-weight="bold" font-size="86.0" fill="#FEFFFF" transform="matrix(1.00, 0.00, -0.00, -1.00, 641.0, 879.5)">I</text><text xml:space="preserve" font-family="Avenir-Black,Avenir" font-weight="bold" font-size="86.0" fill="#FEFFFF" transform="matrix(1.00, 0.00, -0.00, -1.00, 680.2, 879.5)">L</text><text xml:space="preserve" font-family="Avenir-Black,Avenir" font-weight="bold" font-size="86.0" fill="#FEFFFF" transform="matrix(1.00, 0.00, -0.00, -1.00, 740.2, 879.5)">E</text><text xml:space="preserve" font-family="Avenir-Black,Avenir" font-weight="bold" font-size="86.0" fill="#FEFFFF" transform="matrix(1.00, 0.00, -0.00, -1.00, 808.1, 879.5)"> </text><text xml:space="preserve" font-family="Avenir-Black,Avenir" font-weight="bold" font-size="86.0" fill="#FEFFFF" transform="matrix(1.00, 0.00, -0.00, -1.00, 847.3, 879.5)">D</text><text xml:space="preserve" font-family="Avenir-Black,Avenir" font-weight="bold" font-size="86.0" fill="#FEFFFF" transform="matrix(1.00, 0.00, -0.00, -1.00, 926.3, 879.5)">E</text><text xml:space="preserve" font-family="Avenir-Black,Avenir" font-weight="bold" font-size="86.0" fill="#FEFFFF" transform="matrix(1.00, 0.00, -0.00, -1.00, 994.3, 879.5)">P</text><text xml:space="preserve" font-family="Avenir-Black,Avenir" font-weight="bold" font-size="86.0" fill="#FEFFFF" transform="matrix(1.00, 0.00, -0.00, -1.00, 1062.2, 879.5)">E</text><text xml:space="preserve" font-family="Avenir-Black,Avenir" font-weight="bold" font-size="86.0" fill="#FEFFFF" transform="matrix(1.00, 0.00, -0.00, -1.00, 1130.2, 879.5)">N</text><text xml:space="preserve" font-family="Avenir-Black,Avenir" font-weight="bold" font-size="86.0" fill="#FEFFFF" transform="matrix(1.00, 0.00, -0.00, -1.00, 1214.0, 879.5)">D</text><text xml:space="preserve" font-family="Avenir-Black,Avenir" font-weight="bold" font-size="86.0" fill="#FEFFFF" transform="matrix(1.00, 0.00, -0.00, -1.00, 1293.0, 879.5)">E</text><text xml:space="preserve" font-family="Avenir-Black,Avenir" font-weight="bold" font-size="86.0" fill="#FEFFFF" transform="matrix(1.00, 0.00, -0.00, -1.00, 1361.0, 879.5)">N</text><text xml:space="preserve" font-family="Avenir-Black,Avenir" font-weight="bold" font-size="86.0" fill="#FEFFFF" transform="matrix(1.00, 0.00, -0.00, -1.00, 1444.8, 879.5)">C</text><text xml:space="preserve" font-family="Avenir-Black,Avenir" font-weight="bold" font-size="86.0" fill="#FEFFFF" transform="matrix(1.00, 0.00, -0.00, -1.00, 1517.5, 879.5)">I</text><text xml:space="preserve" font-family="Avenir-Black,Avenir" font-weight="bold" font-size="86.0" fill="#FEFFFF" transform="matrix(1.00, 0.00, -0.00, -1.00, 1556.7, 879.5)">E</text><text xml:space="preserve" font-family="Avenir-Black,Avenir" font-weight="bold" font-size="86.0" fill="#FEFFFF" transform="matrix(1.00, 0.00, -0.00, -1.00, 1624.7, 879.5)">S</text><image xlink:href="../../F75E8171-6CED-45F7-8DC6-5C5F06B12499/assets/A9131A83D5D0D77CCC142313CB1C27DC.png" width="1805.00" height="184.00" transform="matrix(1.00, 0.00, -0.00, -1.00, 54.1, 800.1)"></image><path d="M 94.0 741.0 L 1819.0 741.0 L 1819.0 676.0 L 94.0 676.0 Z M 94.1 741.2 " fill="#4E4E4E" fill-opacity="0.68"></path><g><clipPath id="clip0x600000caea60"><path d="M 84.0 666.1 L 1829.3 666.1 L 1829.3 751.4 L 84.0 751.4 Z M 84.0 666.1 "></path></clipPath><g clip-path="url(#clip0x600000caea60)"><text xml:space="preserve" font-family="CourierNewPSMT,Courier New" font-size="50.0" fill="#FEFFFF" transform="matrix(1.00, 0.00, -0.00, -1.00, 98.1, 695.3)">/</text><text xml:space="preserve" font-family="CourierNewPSMT,Courier New" font-size="50.0" fill="#FEFFFF" transform="matrix(1.00, 0.00, -0.00, -1.00, 128.2, 695.3)">/</text><text xml:space="preserve" font-family="CourierNewPSMT,Courier New" font-size="50.0" fill="#FEFFFF" transform="matrix(1.00, 0.00, -0.00, -1.00, 158.2, 695.3)">/</text><text xml:space="preserve" font-family="CourierNewPSMT,Courier New" font-size="50.0" fill="#FEFFFF" transform="matrix(1.00, 0.00, -0.00, -1.00, 188.2, 695.3)"> </text><text xml:space="preserve" font-family="CourierNewPSMT,Courier New" font-size="50.0" fill="#FEFFFF" transform="matrix(1.00, 0.00, -0.00, -1.00, 218.2, 695.3)">&lt;</text><text xml:space="preserve" font-family="CourierNewPSMT,Courier New" font-size="50.0" fill="#FEFFFF" transform="matrix(1.00, 0.00, -0.00, -1.00, 248.2, 695.3)">r</text><text xml:space="preserve" font-family="CourierNewPSMT,Courier New" font-size="50.0" fill="#FEFFFF" transform="matrix(1.00, 0.00, -0.00, -1.00, 278.2, 695.3)">e</text><text xml:space="preserve" font-family="CourierNewPSMT,Courier New" font-size="50.0" fill="#FEFFFF" transform="matrix(1.00, 0.00, -0.00, -1.00, 308.2, 695.3)">f</text><text xml:space="preserve" font-family="CourierNewPSMT,Courier New" font-size="50.0" fill="#FEFFFF" transform="matrix(1.00, 0.00, -0.00, -1.00, 338.2, 695.3)">e</text><text xml:space="preserve" font-family="CourierNewPSMT,Courier New" font-size="50.0" fill="#FEFFFF" transform="matrix(1.00, 0.00, -0.00, -1.00, 368.2, 695.3)">r</text><text xml:space="preserve" font-family="CourierNewPSMT,Courier New" font-size="50.0" fill="#FEFFFF" transform="matrix(1.00, 0.00, -0.00, -1.00, 398.2, 695.3)">e</text><text xml:space="preserve" font-family="CourierNewPSMT,Courier New" font-size="50.0" fill="#FEFFFF" transform="matrix(1.00, 0.00, -0.00, -1.00, 428.3, 695.3)">n</text><text xml:space="preserve" font-family="CourierNewPSMT,Courier New" font-size="50.0" fill="#FEFFFF" transform="matrix(1.00, 0.00, -0.00, -1.00, 458.3, 695.3)">c</text><text xml:space="preserve" font-family="CourierNewPSMT,Courier New" font-size="50.0" fill="#FEFFFF" transform="matrix(1.00, 0.00, -0.00, -1.00, 488.3, 695.3)">e</text><text xml:space="preserve" font-family="CourierNewPSMT,Courier New" font-size="50.0" fill="#FEFFFF" transform="matrix(1.00, 0.00, -0.00, -1.00, 518.3, 695.3)"> </text><text xml:space="preserve" font-family="CourierNewPSMT,Courier New" font-size="50.0" fill="#FEFFFF" transform="matrix(1.00, 0.00, -0.00, -1.00, 548.3, 695.3)">p</text><text xml:space="preserve" font-family="CourierNewPSMT,Courier New" font-size="50.0" fill="#FEFFFF" transform="matrix(1.00, 0.00, -0.00, -1.00, 578.3, 695.3)">a</text><text xml:space="preserve" font-family="CourierNewPSMT,Courier New" font-size="50.0" fill="#FEFFFF" transform="matrix(1.00, 0.00, -0.00, -1.00, 608.3, 695.3)">t</text><text xml:space="preserve" font-family="CourierNewPSMT,Courier New" font-size="50.0" fill="#FEFFFF" transform="matrix(1.00, 0.00, -0.00, -1.00, 638.3, 695.3)">h</text><text xml:space="preserve" font-family="CourierNewPSMT,Courier New" font-size="50.0" fill="#FEFFFF" transform="matrix(1.00, 0.00, -0.00, -1.00, 668.3, 695.3)">=</text><text xml:space="preserve" font-family="CourierNewPSMT,Courier New" font-size="50.0" fill="#FEFFFF" transform="matrix(1.00, 0.00, -0.00, -1.00, 698.3, 695.3)">"</text><text xml:space="preserve" font-family="CourierNewPSMT,Courier New" font-size="50.0" fill="#FEFFFF" transform="matrix(1.00, 0.00, -0.00, -1.00, 728.4, 695.3)">t</text><text xml:space="preserve" font-family="CourierNewPSMT,Courier New" font-size="50.0" fill="#FEFFFF" transform="matrix(1.00, 0.00, -0.00, -1.00, 758.4, 695.3)">y</text><text xml:space="preserve" font-family="CourierNewPSMT,Courier New" font-size="50.0" fill="#FEFFFF" transform="matrix(1.00, 0.00, -0.00, -1.00, 788.4, 695.3)">p</text><text xml:space="preserve" font-family="CourierNewPSMT,Courier New" font-size="50.0" fill="#FEFFFF" transform="matrix(1.00, 0.00, -0.00, -1.00, 818.4, 695.3)">i</text><text xml:space="preserve" font-family="CourierNewPSMT,Courier New" font-size="50.0" fill="#FEFFFF" transform="matrix(1.00, 0.00, -0.00, -1.00, 848.4, 695.3)">n</text><text xml:space="preserve" font-family="CourierNewPSMT,Courier New" font-size="50.0" fill="#FEFFFF" transform="matrix(1.00, 0.00, -0.00, -1.00, 878.4, 695.3)">g</text><text xml:space="preserve" font-family="CourierNewPSMT,Courier New" font-size="50.0" fill="#FEFFFF" transform="matrix(1.00, 0.00, -0.00, -1.00, 908.4, 695.3)">s</text><text xml:space="preserve" font-family="CourierNewPSMT,Courier New" font-size="50.0" fill="#FEFFFF" transform="matrix(1.00, 0.00, -0.00, -1.00, 938.4, 695.3)">/</text><text xml:space="preserve" font-family="CourierNewPSMT,Courier New" font-size="50.0" fill="#FEFFFF" transform="matrix(1.00, 0.00, -0.00, -1.00, 968.4, 695.3)">a</text><text xml:space="preserve" font-family="CourierNewPSMT,Courier New" font-size="50.0" fill="#FEFFFF" transform="matrix(1.00, 0.00, -0.00, -1.00, 998.4, 695.3)">n</text><text xml:space="preserve" font-family="CourierNewPSMT,Courier New" font-size="50.0" fill="#FEFFFF" transform="matrix(1.00, 0.00, -0.00, -1.00, 1028.5, 695.3)">g</text><text xml:space="preserve" font-family="CourierNewPSMT,Courier New" font-size="50.0" fill="#FEFFFF" transform="matrix(1.00, 0.00, -0.00, -1.00, 1058.5, 695.3)">u</text><text xml:space="preserve" font-family="CourierNewPSMT,Courier New" font-size="50.0" fill="#FEFFFF" transform="matrix(1.00, 0.00, -0.00, -1.00, 1088.5, 695.3)">l</text><text xml:space="preserve" font-family="CourierNewPSMT,Courier New" font-size="50.0" fill="#FEFFFF" transform="matrix(1.00, 0.00, -0.00, -1.00, 1118.5, 695.3)">a</text><text xml:space="preserve" font-family="CourierNewPSMT,Courier New" font-size="50.0" fill="#FEFFFF" transform="matrix(1.00, 0.00, -0.00, -1.00, 1148.5, 695.3)">r</text><text xml:space="preserve" font-family="CourierNewPSMT,Courier New" font-size="50.0" fill="#FEFFFF" transform="matrix(1.00, 0.00, -0.00, -1.00, 1178.5, 695.3)">j</text><text xml:space="preserve" font-family="CourierNewPSMT,Courier New" font-size="50.0" fill="#FEFFFF" transform="matrix(1.00, 0.00, -0.00, -1.00, 1208.5, 695.3)">s</text><text xml:space="preserve" font-family="CourierNewPSMT,Courier New" font-size="50.0" fill="#FEFFFF" transform="matrix(1.00, 0.00, -0.00, -1.00, 1238.5, 695.3)">/</text><text xml:space="preserve" font-family="CourierNewPSMT,Courier New" font-size="50.0" fill="#FEFFFF" transform="matrix(1.00, 0.00, -0.00, -1.00, 1268.5, 695.3)">a</text><text xml:space="preserve" font-family="CourierNewPSMT,Courier New" font-size="50.0" fill="#FEFFFF" transform="matrix(1.00, 0.00, -0.00, -1.00, 1298.5, 695.3)">n</text><text xml:space="preserve" font-family="CourierNewPSMT,Courier New" font-size="50.0" fill="#FEFFFF" transform="matrix(1.00, 0.00, -0.00, -1.00, 1328.6, 695.3)">g</text><text xml:space="preserve" font-family="CourierNewPSMT,Courier New" font-size="50.0" fill="#FEFFFF" transform="matrix(1.00, 0.00, -0.00, -1.00, 1358.6, 695.3)">u</text><text xml:space="preserve" font-family="CourierNewPSMT,Courier New" font-size="50.0" fill="#FEFFFF" transform="matrix(1.00, 0.00, -0.00, -1.00, 1388.6, 695.3)">l</text><text xml:space="preserve" font-family="CourierNewPSMT,Courier New" font-size="50.0" fill="#FEFFFF" transform="matrix(1.00, 0.00, -0.00, -1.00, 1418.6, 695.3)">a</text><text xml:space="preserve" font-family="CourierNewPSMT,Courier New" font-size="50.0" fill="#FEFFFF" transform="matrix(1.00, 0.00, -0.00, -1.00, 1448.6, 695.3)">r</text><text xml:space="preserve" font-family="CourierNewPSMT,Courier New" font-size="50.0" fill="#FEFFFF" transform="matrix(1.00, 0.00, -0.00, -1.00, 1478.6, 695.3)">.</text><text xml:space="preserve" font-family="CourierNewPSMT,Courier New" font-size="50.0" fill="#FEFFFF" transform="matrix(1.00, 0.00, -0.00, -1.00, 1508.6, 695.3)">d</text><text xml:space="preserve" font-family="CourierNewPSMT,Courier New" font-size="50.0" fill="#FEFFFF" transform="matrix(1.00, 0.00, -0.00, -1.00, 1538.6, 695.3)">.</text><text xml:space="preserve" font-family="CourierNewPSMT,Courier New" font-size="50.0" fill="#FEFFFF" transform="matrix(1.00, 0.00, -0.00, -1.00, 1568.6, 695.3)">t</text><text xml:space="preserve" font-family="CourierNewPSMT,Courier New" font-size="50.0" fill="#FEFFFF" transform="matrix(1.00, 0.00, -0.00, -1.00, 1598.6, 695.3)">s</text><text xml:space="preserve" font-family="CourierNewPSMT,Courier New" font-size="50.0" fill="#FEFFFF" transform="matrix(1.00, 0.00, -0.00, -1.00, 1628.7, 695.3)">"</text><text xml:space="preserve" font-family="CourierNewPSMT,Courier New" font-size="50.0" fill="#FEFFFF" transform="matrix(1.00, 0.00, -0.00, -1.00, 1658.7, 695.3)">/</text><text xml:space="preserve" font-family="CourierNewPSMT,Courier New" font-size="50.0" fill="#FEFFFF" transform="matrix(1.00, 0.00, -0.00, -1.00, 1688.7, 695.3)">&gt;</text></g></g><image xlink:href="../../F75E8171-6CED-45F7-8DC6-5C5F06B12499/assets/B69C01DE710EEC392DA897E8A85888B4.png" width="1794.00" height="370.00" transform="matrix(1.00, 0.00, -0.00, -1.00, 59.8, 675.1)"></image><path d="M 100.0 581.0 L 1814.0 581.0 L 1814.0 400.0 L 100.0 400.0 Z M 99.8 581.5 " fill="#4E4E4E" fill-opacity="0.68"></path><g><clipPath id="clip0x6080006bcf20"><path d="M 89.6 390.3 L 1823.7 390.3 L 1823.7 591.7 L 89.6 591.7 Z M 89.6 390.3 "></path></clipPath><g clip-path="url(#clip0x6080006bcf20)"><text xml:space="preserve" font-family="CourierNewPSMT,Courier New" font-size="50.0" fill="#FEFFFF" transform="matrix(1.00, 0.00, -0.00, -1.00, 103.8, 535.5)">i</text><text xml:space="preserve" font-family="CourierNewPSMT,Courier New" font-size="50.0" fill="#FEFFFF" transform="matrix(1.00, 0.00, -0.00, -1.00, 133.8, 535.5)">m</text><text xml:space="preserve" font-family="CourierNewPSMT,Courier New" font-size="50.0" fill="#FEFFFF" transform="matrix(1.00, 0.00, -0.00, -1.00, 163.8, 535.5)">p</text><text xml:space="preserve" font-family="CourierNewPSMT,Courier New" font-size="50.0" fill="#FEFFFF" transform="matrix(1.00, 0.00, -0.00, -1.00, 193.8, 535.5)">o</text><text xml:space="preserve" font-family="CourierNewPSMT,Courier New" font-size="50.0" fill="#FEFFFF" transform="matrix(1.00, 0.00, -0.00, -1.00, 223.8, 535.5)">r</text><text xml:space="preserve" font-family="CourierNewPSMT,Courier New" font-size="50.0" fill="#FEFFFF" transform="matrix(1.00, 0.00, -0.00, -1.00, 253.8, 535.5)">t</text><text xml:space="preserve" font-family="CourierNewPSMT,Courier New" font-size="50.0" fill="#FEFFFF" transform="matrix(1.00, 0.00, -0.00, -1.00, 283.9, 535.5)"> </text><text xml:space="preserve" font-family="CourierNewPSMT,Courier New" font-size="50.0" fill="#FEFFFF" transform="matrix(1.00, 0.00, -0.00, -1.00, 313.9, 535.5)">l</text><text xml:space="preserve" font-family="CourierNewPSMT,Courier New" font-size="50.0" fill="#FEFFFF" transform="matrix(1.00, 0.00, -0.00, -1.00, 343.9, 535.5)">o</text><text xml:space="preserve" font-family="CourierNewPSMT,Courier New" font-size="50.0" fill="#FEFFFF" transform="matrix(1.00, 0.00, -0.00, -1.00, 373.9, 535.5)">g</text><text xml:space="preserve" font-family="CourierNewPSMT,Courier New" font-size="50.0" fill="#FEFFFF" transform="matrix(1.00, 0.00, -0.00, -1.00, 403.9, 535.5)"> </text><text xml:space="preserve" font-family="CourierNewPSMT,Courier New" font-size="50.0" fill="#FEFFFF" transform="matrix(1.00, 0.00, -0.00, -1.00, 433.9, 535.5)">=</text><text xml:space="preserve" font-family="CourierNewPSMT,Courier New" font-size="50.0" fill="#FEFFFF" transform="matrix(1.00, 0.00, -0.00, -1.00, 463.9, 535.5)"> </text><text xml:space="preserve" font-family="CourierNewPSMT,Courier New" font-size="50.0" fill="#FEFFFF" transform="matrix(1.00, 0.00, -0.00, -1.00, 493.9, 535.5)">m</text><text xml:space="preserve" font-family="CourierNewPSMT,Courier New" font-size="50.0" fill="#FEFFFF" transform="matrix(1.00, 0.00, -0.00, -1.00, 523.9, 535.5)">o</text><text xml:space="preserve" font-family="CourierNewPSMT,Courier New" font-size="50.0" fill="#FEFFFF" transform="matrix(1.00, 0.00, -0.00, -1.00, 553.9, 535.5)">d</text><text xml:space="preserve" font-family="CourierNewPSMT,Courier New" font-size="50.0" fill="#FEFFFF" transform="matrix(1.00, 0.00, -0.00, -1.00, 583.9, 535.5)">u</text><text xml:space="preserve" font-family="CourierNewPSMT,Courier New" font-size="50.0" fill="#FEFFFF" transform="matrix(1.00, 0.00, -0.00, -1.00, 614.0, 535.5)">l</text><text xml:space="preserve" font-family="CourierNewPSMT,Courier New" font-size="50.0" fill="#FEFFFF" transform="matrix(1.00, 0.00, -0.00, -1.00, 644.0, 535.5)">e</text><text xml:space="preserve" font-family="CourierNewPSMT,Courier New" font-size="50.0" fill="#FEFFFF" transform="matrix(1.00, 0.00, -0.00, -1.00, 674.0, 535.5)">(</text><text xml:space="preserve" font-family="CourierNewPSMT,Courier New" font-size="50.0" fill="#FEFFFF" transform="matrix(1.00, 0.00, -0.00, -1.00, 704.0, 535.5)">"</text><text xml:space="preserve" font-family="CourierNewPSMT,Courier New" font-size="50.0" fill="#FEFFFF" transform="matrix(1.00, 0.00, -0.00, -1.00, 734.0, 535.5)">l</text><text xml:space="preserve" font-family="CourierNewPSMT,Courier New" font-size="50.0" fill="#FEFFFF" transform="matrix(1.00, 0.00, -0.00, -1.00, 764.0, 535.5)">o</text><text xml:space="preserve" font-family="CourierNewPSMT,Courier New" font-size="50.0" fill="#FEFFFF" transform="matrix(1.00, 0.00, -0.00, -1.00, 794.0, 535.5)">g</text><text xml:space="preserve" font-family="CourierNewPSMT,Courier New" font-size="50.0" fill="#FEFFFF" transform="matrix(1.00, 0.00, -0.00, -1.00, 824.0, 535.5)">"</text><text xml:space="preserve" font-family="CourierNewPSMT,Courier New" font-size="50.0" fill="#FEFFFF" transform="matrix(1.00, 0.00, -0.00, -1.00, 854.0, 535.5)">)</text><text xml:space="preserve" font-family="CourierNewPSMT,Courier New" font-size="50.0" fill="#FEFFFF" transform="matrix(1.00, 0.00, -0.00, -1.00, 884.0, 535.5)">;</text><text xml:space="preserve" font-family="CourierNewPSMT,Courier New" font-size="50.0" fill="#FEFFFF" transform="matrix(1.00, 0.00, -0.00, -1.00, 914.1, 535.5)"> </text><text xml:space="preserve" font-family="CourierNewPSMT,Courier New" font-size="50.0" fill="#FEFFFF" transform="matrix(1.00, 0.00, -0.00, -1.00, 103.8, 419.5)">l</text><text xml:space="preserve" font-family="CourierNewPSMT,Courier New" font-size="50.0" fill="#FEFFFF" transform="matrix(1.00, 0.00, -0.00, -1.00, 133.8, 419.5)">o</text><text xml:space="preserve" font-family="CourierNewPSMT,Courier New" font-size="50.0" fill="#FEFFFF" transform="matrix(1.00, 0.00, -0.00, -1.00, 163.8, 419.5)">g</text><text xml:space="preserve" font-family="CourierNewPSMT,Courier New" font-size="50.0" fill="#FEFFFF" transform="matrix(1.00, 0.00, -0.00, -1.00, 193.8, 419.5)">.</text><text xml:space="preserve" font-family="CourierNewPSMT,Courier New" font-size="50.0" fill="#FEFFFF" transform="matrix(1.00, 0.00, -0.00, -1.00, 223.8, 419.5)">m</text><text xml:space="preserve" font-family="CourierNewPSMT,Courier New" font-size="50.0" fill="#FEFFFF" transform="matrix(1.00, 0.00, -0.00, -1.00, 253.8, 419.5)">e</text><text xml:space="preserve" font-family="CourierNewPSMT,Courier New" font-size="50.0" fill="#FEFFFF" transform="matrix(1.00, 0.00, -0.00, -1.00, 283.9, 419.5)">s</text><text xml:space="preserve" font-family="CourierNewPSMT,Courier New" font-size="50.0" fill="#FEFFFF" transform="matrix(1.00, 0.00, -0.00, -1.00, 313.9, 419.5)">s</text><text xml:space="preserve" font-family="CourierNewPSMT,Courier New" font-size="50.0" fill="#FEFFFF" transform="matrix(1.00, 0.00, -0.00, -1.00, 343.9, 419.5)">a</text><text xml:space="preserve" font-family="CourierNewPSMT,Courier New" font-size="50.0" fill="#FEFFFF" transform="matrix(1.00, 0.00, -0.00, -1.00, 373.9, 419.5)">g</text><text xml:space="preserve" font-family="CourierNewPSMT,Courier New" font-size="50.0" fill="#FEFFFF" transform="matrix(1.00, 0.00, -0.00, -1.00, 403.9, 419.5)">e</text><text xml:space="preserve" font-family="CourierNewPSMT,Courier New" font-size="50.0" fill="#FEFFFF" transform="matrix(1.00, 0.00, -0.00, -1.00, 433.9, 419.5)">(</text><text xml:space="preserve" font-family="CourierNewPSMT,Courier New" font-size="50.0" fill="#FEFFFF" transform="matrix(1.00, 0.00, -0.00, -1.00, 463.9, 419.5)">"</text><text xml:space="preserve" font-family="CourierNewPSMT,Courier New" font-size="50.0" fill="#FEFFFF" transform="matrix(1.00, 0.00, -0.00, -1.00, 493.9, 419.5)">h</text><text xml:space="preserve" font-family="CourierNewPSMT,Courier New" font-size="50.0" fill="#FEFFFF" transform="matrix(1.00, 0.00, -0.00, -1.00, 523.9, 419.5)">e</text><text xml:space="preserve" font-family="CourierNewPSMT,Courier New" font-size="50.0" fill="#FEFFFF" transform="matrix(1.00, 0.00, -0.00, -1.00, 553.9, 419.5)">l</text><text xml:space="preserve" font-family="CourierNewPSMT,Courier New" font-size="50.0" fill="#FEFFFF" transform="matrix(1.00, 0.00, -0.00, -1.00, 583.9, 419.5)">l</text><text xml:space="preserve" font-family="CourierNewPSMT,Courier New" font-size="50.0" fill="#FEFFFF" transform="matrix(1.00, 0.00, -0.00, -1.00, 614.0, 419.5)">o</text><text xml:space="preserve" font-family="CourierNewPSMT,Courier New" font-size="50.0" fill="#FEFFFF" transform="matrix(1.00, 0.00, -0.00, -1.00, 644.0, 419.5)">"</text><text xml:space="preserve" font-family="CourierNewPSMT,Courier New" font-size="50.0" fill="#FEFFFF" transform="matrix(1.00, 0.00, -0.00, -1.00, 674.0, 419.5)">)</text><text xml:space="preserve" font-family="CourierNewPSMT,Courier New" font-size="50.0" fill="#FEFFFF" transform="matrix(1.00, 0.00, -0.00, -1.00, 704.0, 419.5)">;</text></g></g></g></svg>