<?xml version="1.0" encoding="UTF-8" standalone="no"?><svg xmlns="http://www.w3.org/2000/svg" xmlns:xlink="http://www.w3.org/1999/xlink" clip-rule="evenodd" stroke-miterlimit="10" viewBox="0 0 1920 1080"><desc>SVG generated by Keynote</desc><defs></defs><g transform="matrix(1.00, 0.00, -0.00, -1.00, 0.0, 1080.0)"><path d="M 0.0 1080.0 L 1920.0 1080.0 L 1920.0 0.0 L 0.0 0.0 Z M 0.0 1080.0 " fill="#000000"></path><g opacity="0.60"><g><clipPath id="clip0x6080006aedc0"><path d="M 0.0 1080.0 L 1920.0 1080.0 L 1920.0 0.0 L 0.0 0.0 Z M 0.0 1080.0 "></path></clipPath><g clip-path="url(#clip0x6080006aedc0)"><g><clipPath id="clip0x6080006af5a0"><path d="M 0.0 0.0 L 1920.0 0.0 L 1920.0 1080.0 L 0.0 1080.0 Z M 0.0 0.0 "></path></clipPath><g clip-path="url(#clip0x6080006af5a0)"><image xlink:href="18B55EF222B44524BE6738F6D30AA700.jpeg" width="2560.00" height="1710.00" transform="matrix(0.75, 0.00, -0.00, -0.75, 0.0, 1181.0)"></image></g></g></g></g></g><text xml:space="preserve" font-family="Avenir-Black,Avenir" font-weight="bold" font-size="112.8" fill="#FEFFFF" transform="matrix(1.00, 0.00, -0.00, -1.00, 101.5, 504.3)">M</text><text xml:space="preserve" font-family="Avenir-Black,Avenir" font-weight="bold" font-size="112.8" fill="#FEFFFF" transform="matrix(1.00, 0.00, -0.00, -1.00, 226.0, 504.3)">O</text><text xml:space="preserve" font-family="Avenir-Black,Avenir" font-weight="bold" font-size="112.8" fill="#FEFFFF" transform="matrix(1.00, 0.00, -0.00, -1.00, 337.9, 504.3)">D</text><text xml:space="preserve" font-family="Avenir-Black,Avenir" font-weight="bold" font-size="112.8" fill="#FEFFFF" transform="matrix(1.00, 0.00, -0.00, -1.00, 441.6, 504.3)">U</text><text xml:space="preserve" font-family="Avenir-Black,Avenir" font-weight="bold" font-size="112.8" fill="#FEFFFF" transform="matrix(1.00, 0.00, -0.00, -1.00, 543.2, 504.3)">L</text><text xml:space="preserve" font-family="Avenir-Black,Avenir" font-weight="bold" font-size="112.8" fill="#FEFFFF" transform="matrix(1.00, 0.00, -0.00, -1.00, 621.8, 504.3)">E</text><text xml:space="preserve" font-family="Avenir-Black,Avenir" font-weight="bold" font-size="112.8" fill="#FEFFFF" transform="matrix(1.00, 0.00, -0.00, -1.00, 711.0, 504.3)">S</text></g></svg>