<?xml version="1.0" encoding="UTF-8" standalone="no"?><svg xmlns="http://www.w3.org/2000/svg" xmlns:xlink="http://www.w3.org/1999/xlink" clip-rule="evenodd" stroke-miterlimit="10" viewBox="0 0 1920 1080"><desc>SVG generated by Keynote</desc><defs></defs><g transform="matrix(1.00, 0.00, -0.00, -1.00, 0.0, 1080.0)"><g><clipPath id="clip0x6080004bb8a0"><path d="M 0.0 1080.0 L 1920.0 1080.0 L 1920.0 0.0 L 0.0 0.0 Z M 0.0 1080.0 "></path></clipPath><g clip-path="url(#clip0x6080004bb8a0)"><image xlink:href="../../A1F60D5F-6A87-4046-9A45-65730696A075/assets/BBA369ED0362A80DAA480BB498E34054.png" width="2592.00" height="1944.00" transform="matrix(0.74, 0.00, -0.00, -0.74, 0.0, 1260.0)"></image></g></g><text xml:space="preserve" font-family="Avenir-Book,Avenir" font-size="72.0" fill="#000000" transform="matrix(1.00, 0.00, -0.00, -1.00, 178.2, 716.7)">W</text><text xml:space="preserve" font-family="Avenir-Book,Avenir" font-size="72.0" fill="#000000" transform="matrix(1.00, 0.00, -0.00, -1.00, 246.2, 716.7)">h</text><text xml:space="preserve" font-family="Avenir-Book,Avenir" font-size="72.0" fill="#000000" transform="matrix(1.00, 0.00, -0.00, -1.00, 286.2, 716.7)">a</text><text xml:space="preserve" font-family="Avenir-Book,Avenir" font-size="72.0" fill="#000000" transform="matrix(1.00, 0.00, -0.00, -1.00, 323.6, 716.7)">t</text><text xml:space="preserve" font-family="Avenir-Book,Avenir" font-size="72.0" fill="#000000" transform="matrix(1.00, 0.00, -0.00, -1.00, 347.5, 716.7)"> </text><text xml:space="preserve" font-family="Avenir-Book,Avenir" font-size="72.0" fill="#000000" transform="matrix(1.00, 0.00, -0.00, -1.00, 367.5, 716.7)">T</text><text xml:space="preserve" font-family="Avenir-Book,Avenir" font-size="72.0" fill="#000000" transform="matrix(1.00, 0.00, -0.00, -1.00, 400.9, 716.7)">y</text><text xml:space="preserve" font-family="Avenir-Book,Avenir" font-size="72.0" fill="#000000" transform="matrix(1.00, 0.00, -0.00, -1.00, 435.6, 716.7)">p</text><text xml:space="preserve" font-family="Avenir-Book,Avenir" font-size="72.0" fill="#000000" transform="matrix(1.00, 0.00, -0.00, -1.00, 479.6, 716.7)">e</text><text xml:space="preserve" font-family="Avenir-Book,Avenir" font-size="72.0" fill="#000000" transform="matrix(1.00, 0.00, -0.00, -1.00, 519.6, 716.7)">S</text><text xml:space="preserve" font-family="Avenir-Book,Avenir" font-size="72.0" fill="#000000" transform="matrix(1.00, 0.00, -0.00, -1.00, 559.6, 716.7)">c</text><text xml:space="preserve" font-family="Avenir-Book,Avenir" font-size="72.0" fill="#000000" transform="matrix(1.00, 0.00, -0.00, -1.00, 594.3, 716.7)">r</text><text xml:space="preserve" font-family="Avenir-Book,Avenir" font-size="72.0" fill="#000000" transform="matrix(1.00, 0.00, -0.00, -1.00, 618.2, 716.7)">i</text><text xml:space="preserve" font-family="Avenir-Book,Avenir" font-size="72.0" fill="#000000" transform="matrix(1.00, 0.00, -0.00, -1.00, 635.5, 716.7)">p</text><text xml:space="preserve" font-family="Avenir-Book,Avenir" font-size="72.0" fill="#000000" transform="matrix(1.00, 0.00, -0.00, -1.00, 679.5, 716.7)">t</text><text xml:space="preserve" font-family="Avenir-Book,Avenir" font-size="72.0" fill="#000000" transform="matrix(1.00, 0.00, -0.00, -1.00, 703.4, 716.7)"> </text><text xml:space="preserve" font-family="Avenir-Book,Avenir" font-size="72.0" fill="#000000" transform="matrix(1.00, 0.00, -0.00, -1.00, 723.4, 716.7)">d</text><text xml:space="preserve" font-family="Avenir-Book,Avenir" font-size="72.0" fill="#000000" transform="matrix(1.00, 0.00, -0.00, -1.00, 767.4, 716.7)">o</text><text xml:space="preserve" font-family="Avenir-Book,Avenir" font-size="72.0" fill="#000000" transform="matrix(1.00, 0.00, -0.00, -1.00, 810.1, 716.7)">e</text><text xml:space="preserve" font-family="Avenir-Book,Avenir" font-size="72.0" fill="#000000" transform="matrix(1.00, 0.00, -0.00, -1.00, 850.1, 716.7)">s</text><text xml:space="preserve" font-family="Avenir-Book,Avenir" font-size="72.0" fill="#000000" transform="matrix(1.00, 0.00, -0.00, -1.00, 880.8, 716.7)"> </text><text xml:space="preserve" font-family="Avenir-Book,Avenir" font-size="72.0" fill="#000000" transform="matrix(1.00, 0.00, -0.00, -1.00, 900.8, 716.7)">i</text><text xml:space="preserve" font-family="Avenir-Book,Avenir" font-size="72.0" fill="#000000" transform="matrix(1.00, 0.00, -0.00, -1.00, 918.1, 716.7)">s</text><text xml:space="preserve" font-family="Avenir-Book,Avenir" font-size="72.0" fill="#000000" transform="matrix(1.00, 0.00, -0.00, -1.00, 948.8, 716.7)">,</text><text xml:space="preserve" font-family="Avenir-Book,Avenir" font-size="72.0" fill="#000000" transform="matrix(1.00, 0.00, -0.00, -1.00, 968.8, 716.7)"> </text><text xml:space="preserve" font-family="Avenir-Book,Avenir" font-size="72.0" fill="#000000" transform="matrix(1.00, 0.00, -0.00, -1.00, 988.8, 716.7)">i</text><text xml:space="preserve" font-family="Avenir-Book,Avenir" font-size="72.0" fill="#000000" transform="matrix(1.00, 0.00, -0.00, -1.00, 1006.1, 716.7)">t</text><text xml:space="preserve" font-family="Avenir-Book,Avenir" font-size="72.0" fill="#000000" transform="matrix(1.00, 0.00, -0.00, -1.00, 1030.0, 716.7)"> </text><text xml:space="preserve" font-family="Avenir-Book,Avenir" font-size="72.0" fill="#000000" transform="matrix(1.00, 0.00, -0.00, -1.00, 1050.0, 716.7)">b</text><text xml:space="preserve" font-family="Avenir-Book,Avenir" font-size="72.0" fill="#000000" transform="matrix(1.00, 0.00, -0.00, -1.00, 1094.0, 716.7)">a</text><text xml:space="preserve" font-family="Avenir-Book,Avenir" font-size="72.0" fill="#000000" transform="matrix(1.00, 0.00, -0.00, -1.00, 1131.4, 716.7)">s</text><text xml:space="preserve" font-family="Avenir-Book,Avenir" font-size="72.0" fill="#000000" transform="matrix(1.00, 0.00, -0.00, -1.00, 1162.0, 716.7)">i</text><text xml:space="preserve" font-family="Avenir-Book,Avenir" font-size="72.0" fill="#000000" transform="matrix(1.00, 0.00, -0.00, -1.00, 1179.3, 716.7)">c</text><text xml:space="preserve" font-family="Avenir-Book,Avenir" font-size="72.0" fill="#000000" transform="matrix(1.00, 0.00, -0.00, -1.00, 1214.0, 716.7)">a</text><text xml:space="preserve" font-family="Avenir-Book,Avenir" font-size="72.0" fill="#000000" transform="matrix(1.00, 0.00, -0.00, -1.00, 1251.4, 716.7)">l</text><text xml:space="preserve" font-family="Avenir-Book,Avenir" font-size="72.0" fill="#000000" transform="matrix(1.00, 0.00, -0.00, -1.00, 1268.7, 716.7)">l</text><text xml:space="preserve" font-family="Avenir-Book,Avenir" font-size="72.0" fill="#000000" transform="matrix(1.00, 0.00, -0.00, -1.00, 1286.0, 716.7)">y</text><text xml:space="preserve" font-family="Avenir-Book,Avenir" font-size="72.0" fill="#000000" transform="matrix(1.00, 0.00, -0.00, -1.00, 1320.7, 716.7)"> </text><text xml:space="preserve" font-family="Avenir-Book,Avenir" font-size="72.0" fill="#000000" transform="matrix(1.00, 0.00, -0.00, -1.00, 1340.7, 716.7)">f</text><text xml:space="preserve" font-family="Avenir-Book,Avenir" font-size="72.0" fill="#000000" transform="matrix(1.00, 0.00, -0.00, -1.00, 1362.0, 716.7)">o</text><text xml:space="preserve" font-family="Avenir-Book,Avenir" font-size="72.0" fill="#000000" transform="matrix(1.00, 0.00, -0.00, -1.00, 1404.7, 716.7)">r</text><text xml:space="preserve" font-family="Avenir-Book,Avenir" font-size="72.0" fill="#000000" transform="matrix(1.00, 0.00, -0.00, -1.00, 1429.9, 716.7)">m</text><text xml:space="preserve" font-family="Avenir-Book,Avenir" font-size="72.0" fill="#000000" transform="matrix(1.00, 0.00, -0.00, -1.00, 1491.2, 716.7)">a</text><text xml:space="preserve" font-family="Avenir-Book,Avenir" font-size="72.0" fill="#000000" transform="matrix(1.00, 0.00, -0.00, -1.00, 1528.6, 716.7)">l</text><text xml:space="preserve" font-family="Avenir-Book,Avenir" font-size="72.0" fill="#000000" transform="matrix(1.00, 0.00, -0.00, -1.00, 1545.9, 716.7)">i</text><text xml:space="preserve" font-family="Avenir-Book,Avenir" font-size="72.0" fill="#000000" transform="matrix(1.00, 0.00, -0.00, -1.00, 1563.2, 716.7)">z</text><text xml:space="preserve" font-family="Avenir-Book,Avenir" font-size="72.0" fill="#000000" transform="matrix(1.00, 0.00, -0.00, -1.00, 1593.8, 716.7)">e</text><text xml:space="preserve" font-family="Avenir-Book,Avenir" font-size="72.0" fill="#000000" transform="matrix(1.00, 0.00, -0.00, -1.00, 1633.9, 716.7)">s</text><text xml:space="preserve" font-family="Avenir-Book,Avenir" font-size="72.0" fill="#000000" transform="matrix(1.00, 0.00, -0.00, -1.00, 1664.5, 716.7)"> </text><text xml:space="preserve" font-family="Avenir-Book,Avenir" font-size="72.0" fill="#000000" transform="matrix(1.00, 0.00, -0.00, -1.00, 1684.6, 716.7)">a</text><text xml:space="preserve" font-family="Avenir-Book,Avenir" font-size="72.0" fill="#000000" transform="matrix(1.00, 0.00, -0.00, -1.00, 1721.9, 716.7)"> </text><text xml:space="preserve" font-family="Avenir-Book,Avenir" font-size="72.0" fill="#000000" transform="matrix(1.00, 0.00, -0.00, -1.00, 178.2, 618.7)">s</text><text xml:space="preserve" font-family="Avenir-Book,Avenir" font-size="72.0" fill="#000000" transform="matrix(1.00, 0.00, -0.00, -1.00, 208.9, 618.7)">t</text><text xml:space="preserve" font-family="Avenir-Book,Avenir" font-size="72.0" fill="#000000" transform="matrix(1.00, 0.00, -0.00, -1.00, 232.8, 618.7)">a</text><text xml:space="preserve" font-family="Avenir-Book,Avenir" font-size="72.0" fill="#000000" transform="matrix(1.00, 0.00, -0.00, -1.00, 270.2, 618.7)">t</text><text xml:space="preserve" font-family="Avenir-Book,Avenir" font-size="72.0" fill="#000000" transform="matrix(1.00, 0.00, -0.00, -1.00, 294.1, 618.7)">i</text><text xml:space="preserve" font-family="Avenir-Book,Avenir" font-size="72.0" fill="#000000" transform="matrix(1.00, 0.00, -0.00, -1.00, 311.4, 618.7)">c</text><text xml:space="preserve" font-family="Avenir-Book,Avenir" font-size="72.0" fill="#000000" transform="matrix(1.00, 0.00, -0.00, -1.00, 346.1, 618.7)"> </text><text xml:space="preserve" font-family="Avenir-Book,Avenir" font-size="72.0" fill="#000000" transform="matrix(1.00, 0.00, -0.00, -1.00, 366.1, 618.7)">t</text><text xml:space="preserve" font-family="Avenir-Book,Avenir" font-size="72.0" fill="#000000" transform="matrix(1.00, 0.00, -0.00, -1.00, 390.0, 618.7)">y</text><text xml:space="preserve" font-family="Avenir-Book,Avenir" font-size="72.0" fill="#000000" transform="matrix(1.00, 0.00, -0.00, -1.00, 424.7, 618.7)">p</text><text xml:space="preserve" font-family="Avenir-Book,Avenir" font-size="72.0" fill="#000000" transform="matrix(1.00, 0.00, -0.00, -1.00, 468.7, 618.7)">e</text><text xml:space="preserve" font-family="Avenir-Book,Avenir" font-size="72.0" fill="#000000" transform="matrix(1.00, 0.00, -0.00, -1.00, 508.7, 618.7)"> </text><text xml:space="preserve" font-family="Avenir-Book,Avenir" font-size="72.0" fill="#000000" transform="matrix(1.00, 0.00, -0.00, -1.00, 528.7, 618.7)">s</text><text xml:space="preserve" font-family="Avenir-Book,Avenir" font-size="72.0" fill="#000000" transform="matrix(1.00, 0.00, -0.00, -1.00, 559.4, 618.7)">y</text><text xml:space="preserve" font-family="Avenir-Book,Avenir" font-size="72.0" fill="#000000" transform="matrix(1.00, 0.00, -0.00, -1.00, 594.1, 618.7)">s</text><text xml:space="preserve" font-family="Avenir-Book,Avenir" font-size="72.0" fill="#000000" transform="matrix(1.00, 0.00, -0.00, -1.00, 624.8, 618.7)">t</text><text xml:space="preserve" font-family="Avenir-Book,Avenir" font-size="72.0" fill="#000000" transform="matrix(1.00, 0.00, -0.00, -1.00, 648.7, 618.7)">e</text><text xml:space="preserve" font-family="Avenir-Book,Avenir" font-size="72.0" fill="#000000" transform="matrix(1.00, 0.00, -0.00, -1.00, 688.7, 618.7)">m</text><text xml:space="preserve" font-family="Avenir-Book,Avenir" font-size="72.0" fill="#000000" transform="matrix(1.00, 0.00, -0.00, -1.00, 750.1, 618.7)"> </text><text xml:space="preserve" font-family="Avenir-Book,Avenir" font-size="72.0" fill="#000000" transform="matrix(1.00, 0.00, -0.00, -1.00, 770.1, 618.7)">t</text><text xml:space="preserve" font-family="Avenir-Book,Avenir" font-size="72.0" fill="#000000" transform="matrix(1.00, 0.00, -0.00, -1.00, 794.0, 618.7)">h</text><text xml:space="preserve" font-family="Avenir-Book,Avenir" font-size="72.0" fill="#000000" transform="matrix(1.00, 0.00, -0.00, -1.00, 834.0, 618.7)">a</text><text xml:space="preserve" font-family="Avenir-Book,Avenir" font-size="72.0" fill="#000000" transform="matrix(1.00, 0.00, -0.00, -1.00, 871.4, 618.7)">t</text><text xml:space="preserve" font-family="Avenir-Book,Avenir" font-size="72.0" fill="#000000" transform="matrix(1.00, 0.00, -0.00, -1.00, 895.3, 618.7)"> </text><text xml:space="preserve" font-family="Avenir-Book,Avenir" font-size="72.0" fill="#000000" transform="matrix(1.00, 0.00, -0.00, -1.00, 915.3, 618.7)">d</text><text xml:space="preserve" font-family="Avenir-Book,Avenir" font-size="72.0" fill="#000000" transform="matrix(1.00, 0.00, -0.00, -1.00, 959.3, 618.7)">e</text><text xml:space="preserve" font-family="Avenir-Book,Avenir" font-size="72.0" fill="#000000" transform="matrix(1.00, 0.00, -0.00, -1.00, 999.3, 618.7)">s</text><text xml:space="preserve" font-family="Avenir-Book,Avenir" font-size="72.0" fill="#000000" transform="matrix(1.00, 0.00, -0.00, -1.00, 1030.0, 618.7)">c</text><text xml:space="preserve" font-family="Avenir-Book,Avenir" font-size="72.0" fill="#000000" transform="matrix(1.00, 0.00, -0.00, -1.00, 1064.7, 618.7)">r</text><text xml:space="preserve" font-family="Avenir-Book,Avenir" font-size="72.0" fill="#000000" transform="matrix(1.00, 0.00, -0.00, -1.00, 1088.6, 618.7)">i</text><text xml:space="preserve" font-family="Avenir-Book,Avenir" font-size="72.0" fill="#000000" transform="matrix(1.00, 0.00, -0.00, -1.00, 1105.9, 618.7)">b</text><text xml:space="preserve" font-family="Avenir-Book,Avenir" font-size="72.0" fill="#000000" transform="matrix(1.00, 0.00, -0.00, -1.00, 1149.9, 618.7)">e</text><text xml:space="preserve" font-family="Avenir-Book,Avenir" font-size="72.0" fill="#000000" transform="matrix(1.00, 0.00, -0.00, -1.00, 1189.9, 618.7)">s</text><text xml:space="preserve" font-family="Avenir-Book,Avenir" font-size="72.0" fill="#000000" transform="matrix(1.00, 0.00, -0.00, -1.00, 1220.6, 618.7)"> </text><text xml:space="preserve" font-family="Avenir-Book,Avenir" font-size="72.0" fill="#000000" transform="matrix(1.00, 0.00, -0.00, -1.00, 1240.6, 618.7)">J</text><text xml:space="preserve" font-family="Avenir-Book,Avenir" font-size="72.0" fill="#000000" transform="matrix(1.00, 0.00, -0.00, -1.00, 1275.3, 618.7)">a</text><text xml:space="preserve" font-family="Avenir-Book,Avenir" font-size="72.0" fill="#000000" transform="matrix(1.00, 0.00, -0.00, -1.00, 1312.7, 618.7)">v</text><text xml:space="preserve" font-family="Avenir-Book,Avenir" font-size="72.0" fill="#000000" transform="matrix(1.00, 0.00, -0.00, -1.00, 1347.4, 618.7)">a</text><text xml:space="preserve" font-family="Avenir-Book,Avenir" font-size="72.0" fill="#000000" transform="matrix(1.00, 0.00, -0.00, -1.00, 1384.7, 618.7)">S</text><text xml:space="preserve" font-family="Avenir-Book,Avenir" font-size="72.0" fill="#000000" transform="matrix(1.00, 0.00, -0.00, -1.00, 1424.8, 618.7)">c</text><text xml:space="preserve" font-family="Avenir-Book,Avenir" font-size="72.0" fill="#000000" transform="matrix(1.00, 0.00, -0.00, -1.00, 1459.5, 618.7)">r</text><text xml:space="preserve" font-family="Avenir-Book,Avenir" font-size="72.0" fill="#000000" transform="matrix(1.00, 0.00, -0.00, -1.00, 1483.4, 618.7)">i</text><text xml:space="preserve" font-family="Avenir-Book,Avenir" font-size="72.0" fill="#000000" transform="matrix(1.00, 0.00, -0.00, -1.00, 1500.7, 618.7)">p</text><text xml:space="preserve" font-family="Avenir-Book,Avenir" font-size="72.0" fill="#000000" transform="matrix(1.00, 0.00, -0.00, -1.00, 1544.7, 618.7)">t</text><text xml:space="preserve" font-family="Avenir-Book,Avenir" font-size="72.0" fill="#000000" transform="matrix(1.00, 0.00, -0.00, -1.00, 1568.6, 618.7)">'</text><text xml:space="preserve" font-family="Avenir-Book,Avenir" font-size="72.0" fill="#000000" transform="matrix(1.00, 0.00, -0.00, -1.00, 1587.3, 618.7)">s</text><text xml:space="preserve" font-family="Avenir-Book,Avenir" font-size="72.0" fill="#000000" transform="matrix(1.00, 0.00, -0.00, -1.00, 1618.0, 618.7)"> </text><text xml:space="preserve" font-family="Avenir-Book,Avenir" font-size="72.0" fill="#000000" transform="matrix(1.00, 0.00, -0.00, -1.00, 178.2, 520.7)">d</text><text xml:space="preserve" font-family="Avenir-Book,Avenir" font-size="72.0" fill="#000000" transform="matrix(1.00, 0.00, -0.00, -1.00, 222.2, 520.7)">y</text><text xml:space="preserve" font-family="Avenir-Book,Avenir" font-size="72.0" fill="#000000" transform="matrix(1.00, 0.00, -0.00, -1.00, 256.9, 520.7)">n</text><text xml:space="preserve" font-family="Avenir-Book,Avenir" font-size="72.0" fill="#000000" transform="matrix(1.00, 0.00, -0.00, -1.00, 297.0, 520.7)">a</text><text xml:space="preserve" font-family="Avenir-Book,Avenir" font-size="72.0" fill="#000000" transform="matrix(1.00, 0.00, -0.00, -1.00, 334.3, 520.7)">m</text><text xml:space="preserve" font-family="Avenir-Book,Avenir" font-size="72.0" fill="#000000" transform="matrix(1.00, 0.00, -0.00, -1.00, 395.7, 520.7)">i</text><text xml:space="preserve" font-family="Avenir-Book,Avenir" font-size="72.0" fill="#000000" transform="matrix(1.00, 0.00, -0.00, -1.00, 413.0, 520.7)">c</text><text xml:space="preserve" font-family="Avenir-Book,Avenir" font-size="72.0" fill="#000000" transform="matrix(1.00, 0.00, -0.00, -1.00, 447.7, 520.7)"> </text><text xml:space="preserve" font-family="Avenir-Book,Avenir" font-size="72.0" fill="#000000" transform="matrix(1.00, 0.00, -0.00, -1.00, 467.7, 520.7)">t</text><text xml:space="preserve" font-family="Avenir-Book,Avenir" font-size="72.0" fill="#000000" transform="matrix(1.00, 0.00, -0.00, -1.00, 491.6, 520.7)">y</text><text xml:space="preserve" font-family="Avenir-Book,Avenir" font-size="72.0" fill="#000000" transform="matrix(1.00, 0.00, -0.00, -1.00, 526.3, 520.7)">p</text><text xml:space="preserve" font-family="Avenir-Book,Avenir" font-size="72.0" fill="#000000" transform="matrix(1.00, 0.00, -0.00, -1.00, 570.3, 520.7)">e</text><text xml:space="preserve" font-family="Avenir-Book,Avenir" font-size="72.0" fill="#000000" transform="matrix(1.00, 0.00, -0.00, -1.00, 610.3, 520.7)">s</text><text xml:space="preserve" font-family="Avenir-Book,Avenir" font-size="72.0" fill="#000000" transform="matrix(1.00, 0.00, -0.00, -1.00, 641.0, 520.7)">,</text><text xml:space="preserve" font-family="Avenir-Book,Avenir" font-size="72.0" fill="#000000" transform="matrix(1.00, 0.00, -0.00, -1.00, 661.0, 520.7)"> </text><text xml:space="preserve" font-family="Avenir-Book,Avenir" font-size="72.0" fill="#000000" transform="matrix(1.00, 0.00, -0.00, -1.00, 681.0, 520.7)">b</text><text xml:space="preserve" font-family="Avenir-Book,Avenir" font-size="72.0" fill="#000000" transform="matrix(1.00, 0.00, -0.00, -1.00, 725.0, 520.7)">u</text><text xml:space="preserve" font-family="Avenir-Book,Avenir" font-size="72.0" fill="#000000" transform="matrix(1.00, 0.00, -0.00, -1.00, 765.0, 520.7)">t</text><text xml:space="preserve" font-family="Avenir-Book,Avenir" font-size="72.0" fill="#000000" transform="matrix(1.00, 0.00, -0.00, -1.00, 788.9, 520.7)"> </text><text xml:space="preserve" font-family="Avenir-Book,Avenir" font-size="72.0" fill="#000000" transform="matrix(1.00, 0.00, -0.00, -1.00, 809.0, 520.7)">i</text><text xml:space="preserve" font-family="Avenir-Book,Avenir" font-size="72.0" fill="#000000" transform="matrix(1.00, 0.00, -0.00, -1.00, 826.2, 520.7)">t</text><text xml:space="preserve" font-family="Avenir-Book,Avenir" font-size="72.0" fill="#000000" transform="matrix(1.00, 0.00, -0.00, -1.00, 850.1, 520.7)"> </text><text xml:space="preserve" font-family="Avenir-Book,Avenir" font-size="72.0" fill="#000000" transform="matrix(1.00, 0.00, -0.00, -1.00, 870.2, 520.7)">d</text><text xml:space="preserve" font-family="Avenir-Book,Avenir" font-size="72.0" fill="#000000" transform="matrix(1.00, 0.00, -0.00, -1.00, 914.2, 520.7)">e</text><text xml:space="preserve" font-family="Avenir-Book,Avenir" font-size="72.0" fill="#000000" transform="matrix(1.00, 0.00, -0.00, -1.00, 954.2, 520.7)">s</text><text xml:space="preserve" font-family="Avenir-Book,Avenir" font-size="72.0" fill="#000000" transform="matrix(1.00, 0.00, -0.00, -1.00, 984.9, 520.7)">c</text><text xml:space="preserve" font-family="Avenir-Book,Avenir" font-size="72.0" fill="#000000" transform="matrix(1.00, 0.00, -0.00, -1.00, 1019.6, 520.7)">r</text><text xml:space="preserve" font-family="Avenir-Book,Avenir" font-size="72.0" fill="#000000" transform="matrix(1.00, 0.00, -0.00, -1.00, 1043.5, 520.7)">i</text><text xml:space="preserve" font-family="Avenir-Book,Avenir" font-size="72.0" fill="#000000" transform="matrix(1.00, 0.00, -0.00, -1.00, 1060.7, 520.7)">b</text><text xml:space="preserve" font-family="Avenir-Book,Avenir" font-size="72.0" fill="#000000" transform="matrix(1.00, 0.00, -0.00, -1.00, 1104.7, 520.7)">e</text><text xml:space="preserve" font-family="Avenir-Book,Avenir" font-size="72.0" fill="#000000" transform="matrix(1.00, 0.00, -0.00, -1.00, 1144.8, 520.7)">s</text><text xml:space="preserve" font-family="Avenir-Book,Avenir" font-size="72.0" fill="#000000" transform="matrix(1.00, 0.00, -0.00, -1.00, 1175.4, 520.7)"> </text><text xml:space="preserve" font-family="Avenir-Book,Avenir" font-size="72.0" fill="#000000" transform="matrix(1.00, 0.00, -0.00, -1.00, 1195.5, 520.7)">t</text><text xml:space="preserve" font-family="Avenir-Book,Avenir" font-size="72.0" fill="#000000" transform="matrix(1.00, 0.00, -0.00, -1.00, 1219.4, 520.7)">h</text><text xml:space="preserve" font-family="Avenir-Book,Avenir" font-size="72.0" fill="#000000" transform="matrix(1.00, 0.00, -0.00, -1.00, 1259.4, 520.7)">e</text><text xml:space="preserve" font-family="Avenir-Book,Avenir" font-size="72.0" fill="#000000" transform="matrix(1.00, 0.00, -0.00, -1.00, 1299.4, 520.7)">m</text><text xml:space="preserve" font-family="Avenir-Book,Avenir" font-size="72.0" fill="#000000" transform="matrix(1.00, 0.00, -0.00, -1.00, 1360.8, 520.7)"> </text><text xml:space="preserve" font-family="Avenir-Book,Avenir" font-size="72.0" fill="#000000" transform="matrix(1.00, 0.00, -0.00, -1.00, 1380.8, 520.7)">a</text><text xml:space="preserve" font-family="Avenir-Book,Avenir" font-size="72.0" fill="#000000" transform="matrix(1.00, 0.00, -0.00, -1.00, 1418.2, 520.7)">t</text><text xml:space="preserve" font-family="Avenir-Book,Avenir" font-size="72.0" fill="#000000" transform="matrix(1.00, 0.00, -0.00, -1.00, 1442.1, 520.7)"> </text><text xml:space="preserve" font-family="Avenir-Book,Avenir" font-size="72.0" fill="#000000" transform="matrix(1.00, 0.00, -0.00, -1.00, 178.2, 422.7)">d</text><text xml:space="preserve" font-family="Avenir-Book,Avenir" font-size="72.0" fill="#000000" transform="matrix(1.00, 0.00, -0.00, -1.00, 222.2, 422.7)">e</text><text xml:space="preserve" font-family="Avenir-Book,Avenir" font-size="72.0" fill="#000000" transform="matrix(1.00, 0.00, -0.00, -1.00, 262.3, 422.7)">v</text><text xml:space="preserve" font-family="Avenir-Book,Avenir" font-size="72.0" fill="#000000" transform="matrix(1.00, 0.00, -0.00, -1.00, 297.0, 422.7)">e</text><text xml:space="preserve" font-family="Avenir-Book,Avenir" font-size="72.0" fill="#000000" transform="matrix(1.00, 0.00, -0.00, -1.00, 337.0, 422.7)">l</text><text xml:space="preserve" font-family="Avenir-Book,Avenir" font-size="72.0" fill="#000000" transform="matrix(1.00, 0.00, -0.00, -1.00, 354.3, 422.7)">o</text><text xml:space="preserve" font-family="Avenir-Book,Avenir" font-size="72.0" fill="#000000" transform="matrix(1.00, 0.00, -0.00, -1.00, 397.0, 422.7)">p</text><text xml:space="preserve" font-family="Avenir-Book,Avenir" font-size="72.0" fill="#000000" transform="matrix(1.00, 0.00, -0.00, -1.00, 441.0, 422.7)">m</text><text xml:space="preserve" font-family="Avenir-Book,Avenir" font-size="72.0" fill="#000000" transform="matrix(1.00, 0.00, -0.00, -1.00, 502.3, 422.7)">e</text><text xml:space="preserve" font-family="Avenir-Book,Avenir" font-size="72.0" fill="#000000" transform="matrix(1.00, 0.00, -0.00, -1.00, 542.3, 422.7)">n</text><text xml:space="preserve" font-family="Avenir-Book,Avenir" font-size="72.0" fill="#000000" transform="matrix(1.00, 0.00, -0.00, -1.00, 582.4, 422.7)">t</text><text xml:space="preserve" font-family="Avenir-Book,Avenir" font-size="72.0" fill="#000000" transform="matrix(1.00, 0.00, -0.00, -1.00, 606.3, 422.7)"> </text><text xml:space="preserve" font-family="Avenir-Book,Avenir" font-size="72.0" fill="#000000" transform="matrix(1.00, 0.00, -0.00, -1.00, 626.3, 422.7)">t</text><text xml:space="preserve" font-family="Avenir-Book,Avenir" font-size="72.0" fill="#000000" transform="matrix(1.00, 0.00, -0.00, -1.00, 650.2, 422.7)">i</text><text xml:space="preserve" font-family="Avenir-Book,Avenir" font-size="72.0" fill="#000000" transform="matrix(1.00, 0.00, -0.00, -1.00, 667.5, 422.7)">m</text><text xml:space="preserve" font-family="Avenir-Book,Avenir" font-size="72.0" fill="#000000" transform="matrix(1.00, 0.00, -0.00, -1.00, 728.8, 422.7)">e</text><text xml:space="preserve" font-family="Avenir-Book,Avenir" font-size="72.0" fill="#000000" transform="matrix(1.00, 0.00, -0.00, -1.00, 768.9, 422.7)">.</text><text xml:space="preserve" font-family="Avenir-Book,Avenir" font-size="72.0" fill="#000000" transform="matrix(1.00, 0.00, -0.00, -1.00, 788.9, 422.7)"> </text><text xml:space="preserve" font-family="Avenir-Black,Avenir" font-weight="bold" font-size="25.0" fill="#4E4E4E" transform="matrix(1.00, 0.00, -0.00, -1.00, 178.2, 351.5)">A</text><text xml:space="preserve" font-family="Avenir-Black,Avenir" font-weight="bold" font-size="25.0" fill="#4E4E4E" transform="matrix(1.00, 0.00, -0.00, -1.00, 196.8, 351.5)">n</text><text xml:space="preserve" font-family="Avenir-Black,Avenir" font-weight="bold" font-size="25.0" fill="#4E4E4E" transform="matrix(1.00, 0.00, -0.00, -1.00, 211.1, 351.5)">d</text><text xml:space="preserve" font-family="Avenir-Black,Avenir" font-weight="bold" font-size="25.0" fill="#4E4E4E" transform="matrix(1.00, 0.00, -0.00, -1.00, 226.9, 351.5)">e</text><text xml:space="preserve" font-family="Avenir-Black,Avenir" font-weight="bold" font-size="25.0" fill="#4E4E4E" transform="matrix(1.00, 0.00, -0.00, -1.00, 241.2, 351.5)">r</text><text xml:space="preserve" font-family="Avenir-Black,Avenir" font-weight="bold" font-size="25.0" fill="#4E4E4E" transform="matrix(1.00, 0.00, -0.00, -1.00, 251.4, 351.5)">s</text><text xml:space="preserve" font-family="Avenir-Black,Avenir" font-weight="bold" font-size="25.0" fill="#4E4E4E" transform="matrix(1.00, 0.00, -0.00, -1.00, 263.0, 351.5)"> </text><text xml:space="preserve" font-family="Avenir-Black,Avenir" font-weight="bold" font-size="25.0" fill="#4E4E4E" transform="matrix(1.00, 0.00, -0.00, -1.00, 270.4, 351.5)">H</text><text xml:space="preserve" font-family="Avenir-Black,Avenir" font-weight="bold" font-size="25.0" fill="#4E4E4E" transform="matrix(1.00, 0.00, -0.00, -1.00, 289.3, 351.5)">e</text><text xml:space="preserve" font-family="Avenir-Black,Avenir" font-weight="bold" font-size="25.0" fill="#4E4E4E" transform="matrix(1.00, 0.00, -0.00, -1.00, 303.7, 351.5)">j</text><text xml:space="preserve" font-family="Avenir-Black,Avenir" font-weight="bold" font-size="25.0" fill="#4E4E4E" transform="matrix(1.00, 0.00, -0.00, -1.00, 310.2, 351.5)">l</text><text xml:space="preserve" font-family="Avenir-Black,Avenir" font-weight="bold" font-size="25.0" fill="#4E4E4E" transform="matrix(1.00, 0.00, -0.00, -1.00, 316.7, 351.5)">s</text><text xml:space="preserve" font-family="Avenir-Black,Avenir" font-weight="bold" font-size="25.0" fill="#4E4E4E" transform="matrix(1.00, 0.00, -0.00, -1.00, 328.3, 351.5)">b</text><text xml:space="preserve" font-family="Avenir-Black,Avenir" font-weight="bold" font-size="25.0" fill="#4E4E4E" transform="matrix(1.00, 0.00, -0.00, -1.00, 344.0, 351.5)">e</text><text xml:space="preserve" font-family="Avenir-Black,Avenir" font-weight="bold" font-size="25.0" fill="#4E4E4E" transform="matrix(1.00, 0.00, -0.00, -1.00, 358.4, 351.5)">r</text><text xml:space="preserve" font-family="Avenir-Black,Avenir" font-weight="bold" font-size="25.0" fill="#4E4E4E" transform="matrix(1.00, 0.00, -0.00, -1.00, 368.1, 351.5)">g</text><text xml:space="preserve" font-family="Avenir-Black,Avenir" font-weight="bold" font-size="25.0" fill="#4E4E4E" transform="matrix(1.00, 0.00, -0.00, -1.00, 383.8, 351.5)"> </text><text xml:space="preserve" font-family="Avenir-Black,Avenir" font-weight="bold" font-size="25.0" fill="#4E4E4E" transform="matrix(1.00, 0.00, -0.00, -1.00, 391.2, 351.5)">-</text><text xml:space="preserve" font-family="Avenir-Black,Avenir" font-weight="bold" font-size="25.0" fill="#4E4E4E" transform="matrix(1.00, 0.00, -0.00, -1.00, 398.6, 351.5)"> </text><text xml:space="preserve" font-family="Avenir-Black,Avenir" font-weight="bold" font-size="25.0" fill="#4E4E4E" transform="matrix(1.00, 0.00, -0.00, -1.00, 406.0, 351.5)">M</text><text xml:space="preserve" font-family="Avenir-Black,Avenir" font-weight="bold" font-size="25.0" fill="#4E4E4E" transform="matrix(1.00, 0.00, -0.00, -1.00, 429.6, 351.5)">i</text><text xml:space="preserve" font-family="Avenir-Black,Avenir" font-weight="bold" font-size="25.0" fill="#4E4E4E" transform="matrix(1.00, 0.00, -0.00, -1.00, 436.1, 351.5)">c</text><text xml:space="preserve" font-family="Avenir-Black,Avenir" font-weight="bold" font-size="25.0" fill="#4E4E4E" transform="matrix(1.00, 0.00, -0.00, -1.00, 448.2, 351.5)">r</text><text xml:space="preserve" font-family="Avenir-Black,Avenir" font-weight="bold" font-size="25.0" fill="#4E4E4E" transform="matrix(1.00, 0.00, -0.00, -1.00, 457.9, 351.5)">o</text><text xml:space="preserve" font-family="Avenir-Black,Avenir" font-weight="bold" font-size="25.0" fill="#4E4E4E" transform="matrix(1.00, 0.00, -0.00, -1.00, 473.2, 351.5)">s</text><text xml:space="preserve" font-family="Avenir-Black,Avenir" font-weight="bold" font-size="25.0" fill="#4E4E4E" transform="matrix(1.00, 0.00, -0.00, -1.00, 484.7, 351.5)">o</text><text xml:space="preserve" font-family="Avenir-Black,Avenir" font-weight="bold" font-size="25.0" fill="#4E4E4E" transform="matrix(1.00, 0.00, -0.00, -1.00, 500.0, 351.5)">f</text><text xml:space="preserve" font-family="Avenir-Black,Avenir" font-weight="bold" font-size="25.0" fill="#4E4E4E" transform="matrix(1.00, 0.00, -0.00, -1.00, 509.2, 351.5)">t</text><text xml:space="preserve" font-family="Baskerville,Baskerville" font-size="120.0" fill="#000000" transform="matrix(1.00, 0.00, -0.00, -1.00, 105.7, 686.9)">“</text></g></svg>